<?xml version="1.0" encoding="UTF-8" standalone="no"?>
<!-- Created with Inkscape (http://www.inkscape.org/) -->

<svg
   xmlns:dc="http://purl.org/dc/elements/1.1/"
   xmlns:cc="http://creativecommons.org/ns#"
   xmlns:rdf="http://www.w3.org/1999/02/22-rdf-syntax-ns#"
   xmlns:svg="http://www.w3.org/2000/svg"
   xmlns="http://www.w3.org/2000/svg"
   xmlns:sodipodi="http://sodipodi.sourceforge.net/DTD/sodipodi-0.dtd"
   xmlns:inkscape="http://www.inkscape.org/namespaces/inkscape"
   width="1500"
   height="1500"
   viewBox="0 0 1500 1500"
   id="svg3347"
   version="1.1"
   inkscape:version="0.91 r13725"
   inkscape:export-filename="/Users/jaredatkinson/Desktop/Graphics/PowerForensics/powerforensic_square_white_lowres.png"
   inkscape:export-xdpi="200"
   inkscape:export-ydpi="200"
   sodipodi:docname="powerforensics_square_blue.svg">
  <defs
     id="defs3349" />
  <sodipodi:namedview
     id="base"
     pagecolor="#ffffff"
     bordercolor="#666666"
     borderopacity="1.0"
     inkscape:pageopacity="1"
     inkscape:pageshadow="2"
     inkscape:zoom="0.24748737"
     inkscape:cx="-564.99363"
     inkscape:cy="569.28656"
     inkscape:document-units="px"
     inkscape:current-layer="layer3"
     showgrid="false"
     units="px"
     inkscape:window-width="1368"
     inkscape:window-height="849"
     inkscape:window-x="-8"
     inkscape:window-y="-8"
     inkscape:window-maximized="1" />
  <metadata
     id="metadata3352">
    <rdf:RDF>
      <cc:Work
         rdf:about="">
        <dc:format>image/svg+xml</dc:format>
        <dc:type
           rdf:resource="http://purl.org/dc/dcmitype/StillImage" />
        <dc:title />
      </cc:Work>
    </rdf:RDF>
  </metadata>
  <g
     inkscape:label="Background"
     inkscape:groupmode="layer"
     id="layer1"
     transform="translate(0,447.63805)"
     style="display:inline">
    <rect
       style="fill:#012456;fill-opacity:1;stroke:none;stroke-opacity:1"
       id="rect4149"
       width="1502.8572"
       height="1500"
       x="0.31600952"
       y="-447.7135"
       inkscape:export-xdpi="179.47813"
       inkscape:export-ydpi="179.47813" />
    <rect
       style="opacity:1;fill:#ffffff;fill-opacity:0"
       id="rect3356"
       width="1729.3812"
       height="1709.1781"
       x="-105.05586"
       y="-523.47601" />
  </g>
  <g
     inkscape:groupmode="layer"
     id="layer2"
     inkscape:label="Fingerprint">
    <path
       style="fill:#ffffff;fill-opacity:1"
       d="m 788.24928,1284.1335 c -6.1131,-1.2069 -4.35493,-5.948 3.75047,-10.1137 6.35512,-3.2661 20.42951,-7.4029 28.23255,-8.2983 5.87231,-0.6738 13.43236,0.7528 13.43236,2.5346 0,1.6998 -4.96728,5.3304 -11.20244,8.1879 -14.52475,6.6567 -26.17789,9.2758 -34.21294,7.6895 z m -91.1475,-5.6046 c -4.54775,-2.6812 -6.3617,-15.1217 -2.84675,-19.5241 1.75468,-2.1977 2.11924,-2.2649 5.21897,-0.9627 3.9711,1.6682 9.15884,9.4029 9.15884,13.6553 0,5.7619 -6.65633,9.7052 -11.53106,6.8315 z m 56.60774,-1.947 c -3.0294,-1.2041 -3.96085,-6.1963 -1.90748,-10.2234 2.02336,-3.9685 10.40663,-9.6952 18.36996,-12.5486 7.45434,-2.6711 17.1603,-3.7501 18.21179,-2.0244 2.59237,4.2541 -19.45691,22.7345 -29.94152,25.0953 -1.39768,0.3147 -3.52741,0.1802 -4.73275,-0.2989 z m 157.88847,-20.4074 c -0.91868,-1.0295 -1.95553,-3.3185 -2.30416,-5.0864 -0.50655,-2.5685 -0.12377,-3.7321 1.90406,-5.7888 4.3895,-4.4518 13.65869,-5.7295 17.76542,-2.4489 2.56463,2.0488 1.36596,6.0919 -3.16991,10.6923 -3.75421,3.8075 -5.06544,4.5036 -8.48289,4.5036 -2.61449,0 -4.63224,-0.6611 -5.71252,-1.8718 z m -43.16546,-1.4846 c -0.58266,-0.7119 -1.36131,-2.515 -1.73052,-4.007 -0.98895,-3.996 1.40784,-5.7639 22.96162,-16.9378 28.49327,-14.7716 47.0432,-27.9301 57.95003,-41.107 5.98811,-7.2345 12.40707,-12.725 15.92333,-13.6201 1.72898,-0.4401 3.09436,0.017 4.59434,1.5383 1.76337,1.7885 2.20918,3.7555 2.56586,11.3218 0.54143,11.4849 -0.19168,12.988 -7.15101,14.6625 -13.32233,3.2057 -32.5491,13.4511 -53.13434,28.3141 -16.47622,11.8961 -23.66391,16.5396 -29.58648,19.1144 -5.28882,2.2993 -10.83714,2.622 -12.39283,0.7208 z m -152.4775,-3.9284 c -5.81815,-1.0371 -11.38827,-3.5203 -11.38827,-5.0769 0,-4.8368 28.74602,-4.7226 48.53878,0.193 4.48659,1.1143 5.6155,3.1151 2.5413,4.5042 -2.64255,1.194 -33.46861,1.4888 -39.69181,0.3797 z m 104.15602,-2.6812 c -1.54348,-1.5654 -0.3988,-3.8588 4.60329,-9.223 6.86939,-7.3665 17.67734,-14.5949 25.52779,-17.0729 11.84253,-3.7381 36.05789,-18.1781 62.57805,-37.3161 16.35456,-11.802 24.75686,-19.2066 26.83032,-23.6442 3.01117,-6.4444 20.18701,-17.9043 30.28235,-20.2048 8.54387,-1.9469 9.13337,0.8136 2.33107,10.9153 -11.3441,16.8466 -25.74557,32.1359 -34.91433,37.0671 -3.07493,1.6537 -13.93566,9.3797 -24.13484,17.1688 -32.26748,24.6427 -40.12615,28.8041 -54.64537,28.9357 -4.47269,0.04 -9.87309,-0.3234 -12.00094,-0.8087 -3.80545,-0.8682 -3.96329,-0.7798 -9.65693,5.4164 -6.6199,7.2043 -14.35902,11.2426 -16.80046,8.7664 z m -143.14871,-7.0293 c -13.25346,-3.6142 -19.15544,-7.1371 -19.15544,-11.434 0,-7.3639 21.41585,-5.0947 30.07358,3.1865 3.25937,3.1177 3.64752,3.989 3.07371,6.8989 -0.36123,1.8318 -0.99131,3.6116 -1.40011,3.9552 -0.40888,0.3434 -6.07512,-0.8295 -12.59174,-2.6066 z m 100.23933,-2.0305 c -5.0416,-5.1132 -1.6405,-14.9958 5.16075,-14.9958 3.25351,0 8.60845,5.1234 8.60845,8.2361 0,7.9153 -8.51038,12.0933 -13.7692,6.7597 z m 24.67726,-10.2263 c -1.43199,-1.3459 -3.50854,-4.2455 -4.61459,-6.4435 -2.52486,-5.0174 -4.75845,-7.0095 -9.64278,-8.6005 -4.58775,-1.4943 -19.10925,-1.5268 -27.65452,-0.062 -3.35451,0.5751 -8.14126,1.0482 -10.63718,1.0515 -3.95043,0.011 -4.34525,-0.1847 -3.04955,-1.4674 0.81866,-0.8104 5.03364,-3.4024 9.36653,-5.7598 7.80231,-4.2453 8.93837,-5.3829 6.74684,-6.7565 -2.58188,-1.6185 -16.02237,-4.5334 -20.97811,-4.5499 -6.5894,-0.021 -8.85315,1.9502 -9.83103,8.5638 -0.82184,5.558 -4.68111,9.5007 -10.35678,10.5806 -6.18272,1.1763 -17.80893,-0.1256 -23.51396,-2.6332 -5.30461,-2.3314 -12.4609,-9.0803 -12.4609,-11.7513 0,-0.7713 -2.17282,-3.4547 -4.82846,-5.9631 -18.19804,-17.1891 -75.84572,-45.2973 -83.91656,-40.9166 -2.09826,1.139 -2.07094,1.2275 1.24634,4.0362 1.86535,1.5794 13.77374,7.5658 26.46307,13.3029 12.68933,5.7373 26.61506,12.7339 30.94625,15.5484 13.45091,8.7404 22.97373,19.3561 22.97373,25.6107 0,2.3964 -3.60848,5.2542 -6.63453,5.2542 -3.22351,0 -10.51081,-5.2147 -16.88178,-12.0804 -6.40399,-6.9012 -10.42525,-8.5388 -20.96785,-8.5388 -12.45789,0 -22.00756,-4.5452 -39.8869,-18.9841 -18.16666,-14.6711 -24.0127,-19.2138 -36.59469,-28.4362 -6.42944,-4.7126 -15.47182,-11.7748 -20.09406,-15.6935 -8.86843,-7.5189 -18.53365,-18.4508 -18.53365,-20.9629 0,-4.7356 11.78462,1.5236 28.34599,15.0556 18.57563,15.1777 30.44889,22.628 36.06154,22.628 3.32678,0 3.92531,-2.1761 1.74321,-6.3379 -1.95896,-3.7362 -6.27176,-7.4559 -22.53574,-19.4361 -11.99086,-8.8326 -31.86404,-28.2547 -39.03148,-38.1455 -4.68428,-6.4641 -11.69916,-19.8161 -11.69916,-22.2681 0,-0.6554 0.65896,-1.7462 1.46436,-2.4241 1.15599,-0.973 2.45632,-0.7875 6.1758,0.8812 4.83692,2.17 12.66688,9.7628 32.40581,31.4243 18.29449,20.0763 34.48276,31.6233 72.06907,51.4059 14.09278,7.4174 28.80254,15.4908 32.68824,17.9411 10.74827,6.7772 16.38572,8.1714 45.28576,11.2002 30.30511,3.176 41.90424,5.3313 58.07665,10.7915 18.62978,6.2897 29.73391,12.559 38.71546,21.8582 5.47099,5.6645 9.13916,6.3987 14.72147,2.9466 6.12384,-3.7869 7.49549,-9.3251 4.2776,-17.2709 -1.67954,-4.1474 -0.90333,-4.9959 2.79535,-3.056 7.97364,4.1818 9.02212,10.9918 3.52626,22.9031 -3.99477,8.6579 -7.46125,13.4118 -11.68411,16.0233 -4.22856,2.6151 -6.919,2.4897 -10.06696,-0.4692 z m -169.99326,-0.5322 c -1.67726,-1.0674 -4.55759,-3.6003 -6.40082,-5.6288 -3.99825,-4.4 -8.94097,-5.6749 -14.9051,-3.8441 -8.95911,2.75 -9.69791,2.6987 -9.69791,-0.6734 0,-1.6776 -0.82363,-3.806 -1.83023,-4.73 -2.44037,-2.2399 -13.69991,-6.8862 -26.33426,-10.8673 -11.68256,-3.681 -17.97059,-8.0026 -24.59845,-16.9058 -4.11349,-5.5258 -9.60318,-16.5013 -10.82447,-21.6413 -0.6178,-2.6001 -0.42832,-2.8352 2.2857,-2.8352 6.0361,0 28.11838,12.4709 44.42017,25.0863 10.65824,8.248 21.34276,14.2336 40.73932,22.8227 19.72794,8.7359 23.91861,11.2776 23.91861,14.5076 0,6.2424 -9.96645,9.0407 -16.77256,4.7093 z m 210.92767,-18.4942 c 0,-0.5927 2.52828,-5.1618 5.61842,-10.1534 3.09005,-4.9915 5.48562,-9.776 5.32347,-10.6321 -0.2116,-1.1169 -2.30181,-1.777 -7.39734,-2.3364 -15.58868,-1.7112 -28.82604,-12.5305 -26.55569,-21.7049 1.76166,-7.1188 13.12114,-17.1775 27.79715,-24.6142 14.68634,-7.4419 23.03619,-6.1144 24.35701,3.8727 0.52558,3.9744 0.30488,4.4178 -4.20302,8.4422 -4.61524,4.1201 -13.43147,8.224 -22.78092,10.6043 l -4.44829,1.1324 0.64155,4.747 c 1.82339,13.4919 9.94302,11.2551 29.8197,-8.2149 18.21708,-17.8443 25.70345,-22.7633 25.70345,-16.8888 0,4.4014 -6.88825,13.194 -21.90013,27.955 -13.66249,13.434 -17.00725,18.0263 -13.12927,18.0263 5.48806,0 24.13696,-14.8375 41.78291,-33.2434 12.63094,-13.1749 16.66327,-18.3967 12.93272,-16.7476 -1.04343,0.4612 -3.5574,1.0389 -5.58662,1.2838 -5.19848,0.6271 -10.44014,-4.0548 -10.44014,-9.3252 0,-3.0888 1.04523,-4.7764 6.76993,-10.9313 13.72024,-14.7507 23.06881,-43.1116 27.63176,-83.8267 1.85079,-16.5153 1.96968,-21.8756 0.54509,-24.5754 -0.98301,-1.8629 -1.22039,-1.8788 -4.48195,-0.3014 -7.35545,3.5574 -8.47736,-0.6047 -6.16051,-22.85443 2.70288,-25.95833 3.3724,-34.39053 4.09267,-51.54797 0.7427,-17.69305 2.29098,-23.96619 6.47563,-26.23757 5.35835,-2.90842 8.45003,4.11051 6.3508,14.41808 -2.20853,10.84475 -1.33562,13.02008 4.58637,11.42928 4.95833,-1.33191 5.93094,-4.96163 5.83482,-21.77542 -0.0957,-16.75114 -2.23862,-33.51034 -6.54077,-51.15391 -3.25888,-13.36485 -6.41773,-20.96103 -11.55367,-27.78287 -4.72551,-6.27678 -7.41913,-13.83587 -8.72336,-24.48101 -1.94179,-15.848 -9.80363,-40.36369 -25.68491,-80.09299 -17.95904,-44.92733 -43.32908,-98.94923 -56.06005,-119.37206 -13.58662,-21.79547 -33.52804,-46.5878 -48.5726,-60.38834 -22.95121,-21.05338 -35.56312,-26.34547 -59.76757,-25.07919 -32.33954,1.69189 -64.43477,17.93713 -90.60948,45.86263 -12.28768,13.10956 -21.56761,26.36061 -29.74863,42.47854 -11.08559,21.84043 -15.43776,37.64096 -17.98743,65.30285 -1.49265,16.19406 -0.69635,54.30488 1.45891,69.82586 3.23001,23.25992 8.94,43.18229 15.30959,53.41574 3.55408,5.71004 16.51558,34.22382 19.01996,41.84165 2.72883,8.30085 4.19643,10.70567 16.92309,27.73127 13.91476,18.61497 25.18446,30.21226 33.25562,34.22227 5.3895,2.67769 7.04528,3.00462 14.23126,2.80991 4.47269,-0.12119 17.44704,-0.35314 28.83181,-0.51548 l 20.69966,-0.29515 3.88708,-4.44116 c 4.81879,-5.50581 9.06346,-13.05589 13.57281,-24.14259 4.3899,-10.79292 7.54883,-25.09945 5.90923,-26.76234 -1.88422,-1.911 -7.97089,2.95666 -19.09511,15.27075 -13.48774,14.93061 -17.14615,18.43076 -24.19396,23.14779 -13.64461,9.13223 -20.77537,5.40106 -17.3623,-9.08473 2.74403,-11.64583 1.32058,-14.91738 -6.99341,-16.07312 -5.86108,-0.81477 -14.48946,-5.1661 -22.78523,-11.49068 -8.45508,-6.44612 -9.83202,-6.07878 -10.2152,2.72517 l -0.29861,6.8615 6.87443,3.43237 c 7.93641,3.96259 20.66054,15.66269 20.66054,18.99783 0,3.40904 -4.57222,7.03362 -8.72214,6.91432 -11.79772,-0.33918 -39.92731,-34.91498 -48.3353,-59.41188 -3.57628,-10.41952 -3.62076,-13.08403 -0.28553,-17.10403 3.39306,-4.08966 7.64463,-4.26904 11.11706,-0.46904 3.27986,3.58932 4.05616,8.49179 2.51268,15.8684 -2.0428,9.76277 -0.75833,10.74544 9.92732,7.59491 9.49802,-2.80038 19.59507,-0.31656 25.65376,6.31069 10.27432,11.23843 39.58121,14.38443 55.12899,5.91789 7.60096,-4.13911 7.77052,-4.68621 8.27763,-26.71025 0.26552,-11.52808 1.35694,-26.328 2.68638,-36.42761 1.76923,-13.43995 2.10623,-19.64941 1.60529,-29.58041 -2.70524,-53.6362 -28.07536,-104.61212 -53.8472,-108.19473 -3.89449,-0.54138 -4.77667,-0.3458 -5.3569,1.1877 -0.38205,1.00969 -0.0986,3.27518 0.62993,5.03439 0.72847,1.75923 1.37506,4.57984 1.43695,6.26802 0.0916,2.49941 -0.50071,3.36558 -3.18887,4.66411 -1.81566,0.87707 -3.97076,2.56424 -4.78919,3.74924 -2.88219,4.17341 -6.54369,17.55652 -9.12809,33.36396 -4.04079,24.71612 -8.31276,35.26777 -13.59069,33.56882 -2.51878,-0.81078 -2.84203,-3.34789 -1.06239,-8.33922 1.64831,-4.62319 0.37408,-8.40909 -4.24612,-12.61568 -5.75488,-5.23963 -5.9947,-8.21634 -1.54137,-19.12739 4.6607,-11.41895 5.98478,-18.25224 4.5697,-23.58232 -1.83307,-6.904 -7.90006,-7.18647 -10.57293,-0.49227 -0.71767,1.7972 -1.59854,7.35505 -1.95765,12.35077 -0.72677,10.11083 -3.24734,16.60051 -6.90469,17.77782 -5.30029,1.70615 -7.74498,-8.02292 -5.98047,-23.80045 2.07354,-18.54047 6.52183,-31.39641 12.30972,-35.57633 3.90417,-2.81946 4.9925,-5.62278 3.766,-9.70038 -0.72978,-2.42636 -0.4528,-4.47978 1.21072,-8.97668 2.35735,-6.37236 11.47756,-21.66822 16.43605,-27.56553 13.52897,-16.09056 35.11512,-25.83106 54.2617,-24.48499 11.06835,0.77813 17.56601,2.91327 29.17311,9.58635 12.02184,6.91148 18.86179,9.63386 24.20503,9.63386 3.84853,0 4.05517,-0.16124 4.05517,-3.16486 0,-4.21685 -4.77324,-11.07636 -14.04145,-20.17873 -12.62517,-12.39922 -21.15238,-15.50213 -37.20874,-13.53966 -26.9284,3.29129 -50.9855,14.13247 -68.05985,30.6707 -9.51681,9.21808 -15.17557,17.01106 -22.6904,31.24826 -5.89379,11.16598 -9.9588,17.23363 -11.54562,17.23363 -1.76379,0 -0.99742,-7.78939 1.49875,-15.23259 9.6209,-28.68851 33.698,-57.71479 61.47865,-74.11596 l 9.02018,-5.32536 20.72366,-0.34492 20.72365,-0.34492 7.59827,3.82642 c 4.17903,2.10453 11.55586,6.85661 16.39303,10.5602 9.35116,7.15983 37.55851,32.01694 48.75176,42.96154 10.96889,10.72525 27.16106,37.37862 43.76317,72.03725 12.74097,26.59794 24.46818,55.77421 23.01187,57.25124 -1.41491,1.43497 -5.32176,-1.00869 -11.3363,-7.09057 -7.0335,-7.11236 -10.49282,-13.41665 -11.79601,-21.49725 -1.22128,-7.57255 -3.9384,-14.19886 -13.65599,-33.30273 -13.5759,-26.68908 -32.82323,-57.27955 -42.39966,-67.38734 -4.82375,-5.09142 -7.73441,-5.42495 -12.18074,-1.39576 -2.42826,2.20048 -3.28978,3.98705 -3.69923,7.67084 -0.29349,2.64123 -0.24194,5.98118 0.11466,7.42211 0.98871,3.99531 6.41139,9.64223 10.03435,10.44927 2.02929,0.45204 5.5797,3.10175 9.54568,7.12407 16.31171,16.54347 38.3065,59.66342 54.23038,106.31698 7.23055,21.18398 7.11205,20.92195 11.89002,26.28574 4.20506,4.72055 5.7413,4.98768 8.0584,1.40117 1.58438,-2.45242 1.58601,-3.04759 0.0236,-8.74759 -2.80007,-10.21428 -1.95465,-15.42589 2.50234,-15.42589 3.94718,0 10.54561,11.31379 15.93381,27.32042 3.59458,10.67828 6.19003,20.75175 9.76224,37.88999 1.38906,6.6638 4.87043,20.92939 7.73653,31.70131 2.86609,10.77194 5.06779,21.08962 4.89254,22.92819 -0.78857,8.27458 -8.73287,1.83102 -13.8641,-11.24505 -3.18927,-8.12736 -5.22352,-15.37115 -9.33205,-33.23065 -3.69264,-16.05119 -7.88493,-23.81624 -12.85839,-23.81624 -7.43604,0 -2.59099,22.46618 10.78331,50.00153 7.82028,16.10061 9.40768,22.15797 11.21261,42.78482 0.62024,7.08784 2.0728,17.46292 3.22798,23.05571 1.17257,5.67729 1.84649,11.7548 1.52567,13.75962 -0.31602,1.97499 -2.40118,5.99221 -4.63379,8.92717 -6.81099,8.9537 -10.29367,17.77359 -11.29555,28.60566 -1.30009,14.05633 -2.51576,14.83637 -19.97395,12.8159 -6.99828,-0.80992 -7.37984,-0.73957 -9.91106,1.82762 -2.32034,2.35329 -2.63262,3.50815 -2.63262,9.73651 0,8.71611 1.496,11.46507 5.16311,9.48754 1.35343,-0.72987 5.79179,-4.2681 9.86307,-7.86273 4.0712,-3.59463 7.84501,-6.53569 8.38629,-6.53569 2.89334,0 -0.77459,12.0984 -4.75463,15.68281 -2.8543,2.57059 -8.9426,4.93293 -12.78016,4.95903 -8.76411,0.059 -19.66371,9.3644 -27.78837,23.7228 -9.12094,16.1191 -21.22109,25.6346 -41.11348,32.3312 -14.40187,4.8484 -28.5898,6.8119 -49.22033,6.8119 -24.55112,0 -38.64007,-3.3865 -60.05545,-14.4354 -37.03219,-19.1062 -71.96482,-51.81263 -98.55443,-92.27377 -8.32472,-12.66751 -20.71495,-37.96142 -24.87023,-50.77091 -3.72095,-11.47063 -7.21355,-28.27806 -7.15671,-34.44035 l 0.0415,-4.47737 3.05045,3.60835 c 6.01072,7.11009 8.72726,14.83235 10.62685,30.2081 0.48573,3.93205 1.09898,5.13757 2.98279,5.86398 3.40941,1.31466 6.12538,5.31172 18.87904,27.78414 19.69054,34.69522 28.55645,47.47516 44.64762,64.35805 23.14459,24.28328 49.5017,38.73638 81.09105,44.46678 10.44111,1.894 53.50272,3.9618 63.79851,3.0636 16.79533,-1.4654 25.73387,-7.1161 41.60564,-26.3018 15.59624,-18.8528 26.04914,-37.70447 26.80828,-48.34836 0.48256,-6.76599 -1.16908,-9.29221 -4.79025,-7.32671 -2.65189,1.4394 -10.71052,11.68198 -21.53417,27.36996 -19.26581,27.92431 -28.90606,34.44211 -56.43851,38.15841 -12.77033,1.7236 -44.31088,2.0206 -52.34837,0.4928 -29.02047,-5.5163 -87.92531,-58.08429 -120.13367,-107.21001 -7.10034,-10.82985 -12.21181,-20.70208 -13.47814,-26.03173 -1.49184,-6.27866 6.75367,-1.65452 16.61837,9.31963 13.70219,15.24341 24.12655,29.63621 25.66702,35.43819 3.00036,11.30086 41.50618,51.50057 57.27889,59.79872 3.43031,1.8047 4.2889,1.9011 6.45547,0.7251 2.19788,-1.1929 2.67027,-1.1186 3.92148,0.6168 0.7824,1.0853 1.42264,2.9635 1.42264,4.1738 0,7.6124 20.10569,14.3496 42.69379,14.3063 14.60657,-0.028 19.82968,-1.2086 26.93775,-6.0886 5.99803,-4.1179 15.72962,-6.9566 20.8114,-6.0707 1.9718,0.3438 6.03227,1.3197 9.02335,2.1686 7.11555,2.0196 8.6126,0.8173 5.73089,-4.6027 -1.43947,-2.7074 -3.71631,-4.678 -7.91705,-6.85226 -5.05007,-2.61385 -7.01984,-3.04738 -13.72301,-3.02046 -9.506,0.0383 -14.15669,1.85861 -18.08167,7.07762 l -2.89928,3.8552 -9.6871,-0.602 c -16.62927,-1.0333 -42.22798,-9.09576 -63.10622,-19.87565 -11.06485,-5.71304 -17.58196,-10.59225 -21.38715,-16.01204 -4.96273,-7.06853 1.14875,-6.15975 21.86906,3.25193 18.63458,8.46425 29.0182,11.37903 42.98663,12.06673 18.52643,0.91209 29.90745,-2.41983 40.05027,-11.72519 7.47711,-6.85967 11.5096,-9.64796 13.95323,-9.64796 2.00979,0 2.37866,0.64749 3.63141,6.37479 0.94773,4.33277 4.0046,4.58048 9.81998,0.79574 5.75813,-3.74745 7.48223,-6.29311 6.62047,-9.77523 -0.79419,-3.20929 -3.86245,-4.05143 -7.60665,-2.08774 -4.42455,2.32054 -7.07449,2.01365 -8.41702,-0.97479 -2.42362,-5.39488 4.06185,-17.02252 9.48599,-17.00708 5.71642,0.0163 11.77584,7.04822 14.61819,16.96444 2.04784,7.14439 1.58902,10.98229 -2.57326,21.52472 -5.58784,14.15328 -3.22781,19.53353 4.70779,10.73236 4.10096,-4.54832 7.32333,-9.46635 14.52572,-22.16939 8.22942,-14.51445 16.61554,-22.87814 24.42752,-24.36215 4.21637,-0.80097 8.17737,-4.31103 8.19055,-7.25806 0.026,-5.75693 14.10464,-23.86907 17.93659,-23.07495 2.64905,0.54896 2.07866,5.76539 -2.24439,20.52582 -4.76682,16.27579 -4.60247,26.69864 0.42108,26.69864 4.09804,0 9.05718,-8.60615 12.23011,-21.22404 7.33357,-29.16365 6.81775,-83.73366 -0.93951,-99.40526 -2.29635,-4.63919 -12.47057,-14.42638 -14.99682,-14.42638 -4.64444,0 -6.58046,-5.77324 -8.29764,-24.74303 -1.18876,-13.13289 -3.05777,-22.41987 -7.75352,-38.52769 -10.09135,-34.61619 -30.88787,-83.01053 -45.30154,-105.41861 -4.4273,-6.88286 -21.87483,-29.25488 -22.81531,-29.25488 -0.68107,0 7.79109,17.83832 24.48216,51.54797 20.89231,42.19441 25.1299,54.14327 32.90651,92.78635 6.69667,33.27676 9.14728,55.15173 7.22867,64.52515 -1.35059,6.59793 -3.66735,9.39471 -12.68803,15.31671 -3.70541,2.43254 -5.84384,4.84788 -7.892,8.9138 -4.62216,9.17563 -5.86841,17.66396 -6.79808,46.30002 -0.46946,14.45921 -1.34294,27.85417 -1.94106,29.76657 -2.49739,7.98437 -7.14971,10.97765 -9.37238,6.03011 -0.81907,-1.82314 -0.58096,-3.47096 1.06384,-7.36264 1.1655,-2.75759 1.8421,-5.2947 1.50355,-5.63804 -0.33854,-0.34333 -2.86609,0.6502 -5.61688,2.20783 -2.75086,1.55765 -5.4587,2.83208 -6.01746,2.83208 -1.66392,0 -1.16387,-5.8133 1.27122,-14.77715 2.15876,-7.9468 2.28367,-10.27145 2.22479,-41.41014 -0.0642,-34.13059 -1.28447,-52.11453 -5.59532,-82.47676 -3.61726,-25.47719 -7.30991,-38.13102 -10.91953,-37.41888 -1.45614,0.28726 -1.70255,1.60262 -1.60553,8.56951 0.0634,4.52661 0.46638,13.10991 0.89633,19.07402 0.67122,9.31103 0.55265,11.03667 -0.83924,12.20821 -5.01868,4.22429 -13.85906,-19.16152 -13.91233,-36.80295 -0.0105,-3.21053 -0.7288,-9.08485 -1.59796,-13.05404 -4.96533,-22.67514 -6.49629,-31.69795 -6.50589,-38.3424 -0.0187,-13.06697 3.46812,-10.93721 12.15204,7.42224 3.22302,6.81405 7.16337,13.96009 8.75629,15.88011 4.52172,5.45014 10.47267,9.36977 14.22541,9.36977 5.12391,0 8.98262,3.95505 11.01069,11.28577 0.94756,3.42508 2.36865,15.33477 3.18138,26.66113 1.63952,22.85071 4.44187,36.53214 9.71605,47.43546 5.0974,10.53787 7.99537,9.78662 8.02212,-2.07957 0.0456,-20.02171 -11.4817,-82.42367 -19.00589,-102.89102 -9.13167,-24.84001 -28.6882,-59.54653 -50.54059,-89.69347 -15.46101,-21.32955 -16.78476,-24.42255 -9.9805,-23.31992 13.69917,2.21998 14.36056,2.08282 12.11112,-2.51162 -5.37177,-10.97176 -50.92767,-17.05636 -72.38484,-9.66795 -5.10658,1.75834 -12.66152,6.34858 -12.66152,7.69286 0,0.43242 7.20452,0.71872 16.01018,0.63621 14.51694,-0.13601 16.54534,0.0694 21.74919,2.20355 21.7052,8.90109 40.82942,31.19706 65.81748,76.73328 11.2575,20.51474 19.50684,38.13725 20.15823,43.06282 0.47946,3.6253 0.25193,4.20014 -2.09054,5.28263 -2.15177,0.99432 -3.08997,0.90806 -5.17197,-0.4755 -3.50504,-2.32922 -9.34798,-11.36883 -16.35587,-25.30425 -10.09736,-20.07871 -13.92939,-22.63835 -19.92897,-13.31165 -6.11042,9.49903 -6.92404,8.2572 -7.89526,-12.04988 l -0.69026,-14.43344 -4.48203,-8.50013 c -6.09513,-11.55933 -19.23645,-29.28821 -23.85567,-32.18362 -4.26564,-2.67375 -7.61934,-2.63313 -33.09932,0.40087 -19.88604,2.36791 -20.50245,2.60482 -23.45418,9.01424 -1.35693,2.94633 -4.17773,7.83732 -6.26851,10.86885 -3.85772,5.59365 -6.87198,10.96062 -6.87198,12.23581 0,2.2582 9.5965,-1.75432 25.14208,-10.51245 24.91659,-14.03762 27.5971,-14.1027 39.71556,-0.96408 21.63859,23.46038 35.32932,58.73821 41.26538,106.33167 2.61481,20.96452 4.80805,46.5905 4.86295,56.81872 0.0585,10.90633 -0.6409,12.40281 -6.35024,13.58708 -4.50895,0.93528 -4.69388,2.34449 -0.88486,6.74426 7.99431,9.23441 13.13042,10.20758 21.82385,4.13514 4.31622,-3.01491 6.80742,-3.9894 11.12755,-4.35275 5.23393,-0.4402 5.62573,-0.30962 6.56159,2.18681 2.01213,5.36752 -3.99208,20.72564 -15.18249,38.83503 -2.70126,4.37136 -6.83662,11.84282 -9.18966,16.60322 -2.35312,4.76041 -6.9816,12.89753 -10.28562,18.08251 -5.51311,8.65171 -6.5689,9.72619 -12.834,13.06171 -22.22078,11.83016 -76.45824,19.93016 -76.45824,11.4185 0,-9.865 -35.93581,-48.78678 -50.81529,-55.03761 -2.63864,-1.10848 -3.69436,-1.12979 -5.30891,-0.10716 -2.7346,1.73203 -3.24554,0.88304 -1.92,-3.19032 0.69473,-2.13508 0.78622,-4.59511 0.24209,-6.51257 -0.48093,-1.69479 -6.11774,-13.5199 -12.52628,-26.27802 -6.40846,-12.75812 -12.86075,-26.96126 -14.33828,-31.56251 -9.80046,-30.51905 -15.58152,-95.17635 -11.45194,-128.082 4.82017,-38.40813 18.8252,-74.79895 39.93439,-103.76563 10.20756,-14.00704 28.23565,-31.69828 41.4447,-40.67026 13.27045,-9.01368 23.56112,-14.03301 38.81297,-18.93116 29.59192,-9.50352 42.30165,-7.83186 84.69407,11.13948 9.78395,4.3785 19.09836,8.02698 20.69861,8.10773 3.53138,0.17817 5.75715,-2.58535 4.15585,-5.15996 -1.61895,-2.6031 -33.94572,-20.26488 -46.01529,-25.1406 -17.41557,-7.03527 -26.63222,-8.50862 -49.48723,-7.9109 -35.18221,0.9201 -43.06958,4.75231 -76.74718,37.28859 -17.92358,17.31611 -31.89047,28.70199 -37.52637,30.59172 -2.96686,0.99477 -3.66102,0.90364 -4.76333,-0.62526 -2.74696,-3.81011 2.64832,-11.70496 19.06737,-27.90099 18.5696,-18.31738 47.16038,-40.15987 63.37483,-48.41635 15.95121,-8.12252 22.85931,-8.88726 66.58199,-7.37091 35.42349,1.22852 43.80001,-0.53213 49.78796,-10.46482 5.05331,-8.38226 7.08944,-10.51999 10.00978,-10.50917 3.38809,0.0126 10.09151,3.2011 22.54028,10.72158 11.44381,6.91339 21.44555,10.45827 24.63034,8.72963 5.95127,-3.23027 21.2498,3.56755 38.18939,16.96921 8.41174,6.65488 11.39063,11.15083 11.37054,17.16097 -0.008,2.56176 -0.44393,5.34491 -0.96756,6.18477 -0.81208,1.3025 -1.37035,1.18533 -3.79641,-0.79675 -12.8183,-10.47243 -14.6639,-11.55535 -19.69339,-11.55535 -4.08218,0 -5.5632,0.55911 -8.56738,3.23428 -5.55484,4.94645 -8.99237,11.53186 -8.21453,15.73679 1.07401,5.80638 7.71285,14.7988 23.56835,31.92384 35.88028,38.75296 46.41718,56.33739 64.63938,107.87284 10.98621,31.07085 26.2,82.89215 29.89647,101.83348 0.60316,3.09085 3.96304,6.41727 6.48173,6.41727 3.97768,0 5.61664,-4.67451 5.58785,-15.9369 -0.0317,-12.34085 -2.41793,-20.62133 -8.83363,-30.65262 -6.96673,-10.89272 -8.34985,-14.82389 -8.4554,-24.03121 -0.0883,-7.70634 -0.47883,-9.12735 -5.94957,-21.65014 -14.85386,-34.00117 -18.36939,-46.52372 -14.33129,-51.04916 1.41507,-1.5858 3.13178,-2.04526 7.64211,-2.04526 7.92494,0 8.88007,-1.2553 7.20687,-9.47143 -0.69716,-3.42327 -3.95987,-14.05894 -7.25046,-23.63485 -3.29059,-9.5759 -5.58955,-17.41073 -5.10878,-17.41073 1.49494,0 13.58834,15.15305 17.07117,21.39023 6.56168,11.7509 9.08069,25.74674 6.1889,34.38548 -0.6452,1.92745 -2.93237,5.46581 -5.0826,7.86301 -2.60904,2.90868 -3.90945,5.33279 -3.90945,7.28733 0,4.80035 2.9588,13.46672 8.24584,24.152 16.46102,33.2685 31.76421,87.88454 35.48571,126.64674 2.2467,23.40131 7.1166,37.43588 11.461,33.02982 1.6779,-1.70179 2.0265,-14.59558 0.7565,-27.98416 -3.1092,-32.77721 -10.8257,-68.13103 -20.3075,-93.03992 -8.0696,-21.19922 -10.26931,-29.01586 -10.07163,-35.78938 0.10426,-3.57141 -0.72351,-8.44105 -2.23634,-13.15576 -2.23756,-6.97347 -2.30879,-7.89022 -1.04197,-13.40247 2.29497,-9.98571 2.40419,-14.40417 0.52997,-21.42666 -0.98139,-3.67707 -1.48794,-6.98624 -1.12557,-7.35371 3.46064,-3.50978 21.24194,19.88345 39.32034,51.73024 13.9117,24.5067 32.8223,65.23098 37.9805,81.79122 4.0556,13.02059 3.3302,15.6479 -2.5374,9.19095 -7.9747,-8.77554 -20.0234,-29.69929 -37.5014,-65.12447 -7.5476,-15.29795 -14.3617,-28.01539 -15.1424,-28.26099 -3.3828,-1.06419 2.1132,20.92839 10.0045,40.03331 9.541,23.09887 12.1282,33.88969 13.2242,55.15633 0.4384,8.50542 1.3058,16.74817 1.9277,18.31722 0.6218,1.56905 4.1469,5.74443 7.8334,9.27864 8.9635,8.5931 13.8597,16.30156 17.6566,27.79859 4.3083,13.04552 5.5073,14.50497 4.4628,5.43216 -0.4569,-3.9692 -0.8308,-12.1097 -0.8308,-18.09003 0,-8.78346 0.3559,-11.42367 1.8518,-13.73684 1.7074,-2.64014 2.0236,-2.74791 4.0529,-1.38133 10.2793,6.92212 28.0704,68.98546 34.2319,119.41619 2.5545,20.90812 2.5554,26.13122 0.01,43.89409 -5.4502,37.99284 -11.8664,60.58256 -18.7725,66.09196 -2.2418,1.7885 -3.6256,2.1181 -6.7585,1.61 -4.7041,-0.7629 -4.6521,-1.0869 -2.4035,14.9576 1.4327,10.2231 1.4101,10.8965 -0.5129,15.3056 -1.1064,2.5367 -6.0915,9.7953 -11.078,16.1302 -12.785,16.242 -24.4677,35.8529 -24.4967,41.1206 -0.022,3.9543 9.4418,0.2904 16.6459,-6.4444 5.6211,-5.255 9.7824,-11.7509 13.34,-20.8244 3.5378,-9.0232 6.7884,-12.3696 11.616,-11.9584 3.3919,0.2888 3.6134,0.5244 3.47,3.6908 -0.6173,13.6208 -62.5462,85.8024 -101.47681,118.2768 -5.93573,4.9514 -10.98946,8.8026 -11.23041,8.5582 -0.24096,-0.2443 2.57863,-4.5909 6.26558,-9.659 17.47444,-24.0198 16.86544,-29.8475 -2.35255,-22.5111 -3.61117,1.3785 -6.99202,2.2392 -7.51306,1.9126 -3.24781,-2.0357 1.44484,-11.3317 15.33115,-30.37 14.1835,-19.4459 17.8233,-27.0519 15.2654,-31.8992 -2.6123,-4.9505 -10.19094,-0.4128 -19.70093,11.7954 -5.36795,6.8912 -7.32308,8.7856 -7.59827,7.3623 -0.4345,-2.248 1.11459,-6.7301 13.05552,-37.7756 16.23918,-42.2207 18.08568,-50.3073 19.30378,-84.5387 0.5588,-15.70176 1.3977,-26.22825 2.3842,-29.91299 2.5396,-9.48617 5.669,-17.12768 7.8245,-19.10614 1.8461,-1.6944 2.1956,-1.72113 3.6198,-0.2767 4.5668,4.63165 4.003,34.54998 -1.2451,66.07733 -3.5171,21.1288 -6.6105,32.6971 -12.7103,47.5318 -5.9249,14.4095 -7.1985,22.0651 -4.5385,27.282 0.93,1.8241 5.5602,7.4573 10.2892,12.5181 6.5035,6.96 8.598,9.8923 8.598,12.0373 0,2.2518 -2.1861,4.9673 -10.6195,13.1901 -14.1617,13.8081 -15.9555,18.9187 -7.4546,21.2403 4.1938,1.1454 9.8499,0.6133 13.2814,-1.2492 2.8695,-1.5576 5.8002,-7.1935 5.8154,-11.1833 0.024,-6.1672 4.2582,-13.768 9.8031,-17.5953 2.7117,-1.8718 5.2472,-3.8822 5.6345,-4.4677 0.981,-1.4827 -0.908,-3.5115 -5.4646,-5.8691 -3.8268,-1.98 -4.4047,-3.2529 -3.9353,-8.6669 0.2946,-3.3986 6.6309,-15.774 14.2521,-27.8359 7.9464,-12.5765 12.8739,-24.2348 13.8677,-32.8107 0.4999,-4.3142 0.1285,-7.4116 -1.5684,-13.0775 -1.2229,-4.0834 -2.0119,-7.6389 -1.7533,-7.9012 0.2586,-0.2624 3.0827,2.8023 6.2755,6.8102 3.193,4.008 6.44,7.2872 7.2156,7.2872 1.0817,0 1.4103,-1.8658 1.4103,-8.006 0,-10.6766 -1.9844,-14.6034 -8.4579,-16.737 -8.2899,-2.7323 -10.6115,-7.7355 -5.4326,-11.7076 2.4293,-1.8632 4.1058,-2.1812 10.6734,-2.0249 6.9071,0.1644 7.5607,0.024 5.7584,-1.2413 -4.0736,-2.859 -5.6606,-5.12042 -7.1777,-10.22827 -6.2317,-20.98277 -7.2866,-74.35359 -1.9746,-99.91746 2.2084,-10.62846 4.261,-14.07398 9.5456,-16.02339 3.2102,-1.18419 4.9898,-2.65125 6.3532,-5.23726 2.5986,-4.92871 2.4942,-12.36646 -0.2225,-15.86927 -1.8563,-2.39353 -2.7635,-2.70132 -7.3833,-2.50524 -9.014,0.38256 -14.4272,-5.45713 -23.4755,-25.32544 -7.3629,-16.16721 -7.6166,-16.54739 -7.6546,-11.47123 -0.017,2.2688 1.3361,13.86709 3.0067,25.77399 1.6708,11.9069 3.0431,24.15645 3.0496,27.22123 0.011,5.51419 -0.01,5.55279 -2.0287,3.69935 -1.1224,-1.03013 -4.2806,-5.39341 -7.0183,-9.69616 -7.569,-11.89577 -11.1335,-14.93895 -12.6875,-10.83174 -1.1294,2.98484 -0.637,23.0126 0.9305,37.84796 3.4733,32.87307 6.334,48.15283 9.0151,48.15283 2.1817,0 5.8532,-14.53308 8.7253,-34.53714 2.1479,-14.96147 3.3,-20.0847 4.3659,-19.41653 1.0975,0.6879 0.7846,25.93264 -1.2817,103.43972 -1.9476,73.04675 -3.8622,81.82185 -22.444,102.86825 -5.1461,5.8286 -9.5071,10.4445 -9.6911,10.2578 -0.1841,-0.1866 2.3665,-8.6668 5.668,-18.8449 10.8606,-33.4819 15.725,-63.6921 15.7616,-97.88951 0.026,-24.17587 -0.9396,-29.11078 -6.5142,-33.29083 -5.7949,-4.3452 -10.0646,-21.88312 -12.7275,-52.2788 -2.6249,-29.96245 -4.3865,-40.98288 -10.2997,-64.43497 -8.1367,-32.27018 -12.34588,-44.06792 -17.3613,-48.66067 -5.71576,-5.23404 -5.74975,6.48551 -0.0691,23.91765 4.68453,14.37603 7.21509,29.04896 7.28983,42.26933 0.1767,31.24649 -5.22744,19.42655 -23.80387,-52.06345 -6.03284,-23.21664 -6.14872,-23.91669 -5.54913,-33.50618 0.91413,-14.61924 -2.77486,-29.89782 -7.21884,-29.89782 -4.07437,0 -7.93974,-12.92442 -9.09581,-30.41331 -1.27072,-19.22267 -4.37387,-30.01481 -10.2043,-35.48896 -3.53798,-3.32176 -7.16776,-10.76782 -11.27914,-23.13782 -4.22123,-12.70032 -11.10184,-25.89771 -23.18459,-44.46916 -22.52118,-34.61549 -52.40196,-71.64723 -71.68483,-88.84028 -9.82494,-8.76011 -21.74375,-15.27061 -31.05685,-16.96439 -8.2604,-1.50234 -11.68997,-0.20069 -11.68997,4.43681 0,2.69669 1.10532,4.40933 5.84499,9.05684 3.21471,3.15221 9.10004,7.68208 13.07853,10.06637 15.10075,9.05 22.16417,16.41795 21.06804,21.97643 -0.73466,3.72558 2.65832,6.12372 8.77345,6.20104 7.78012,0.0983 11.39331,1.93705 14.06733,7.15853 3.53292,6.89868 11.70549,17.30768 26.71184,34.02166 14.0343,15.63129 25.81258,30.43546 29.88167,37.55848 1.31814,2.30745 7.50605,21.36085 13.75081,42.34087 6.24485,20.98003 15.15093,48.58397 19.79138,61.34209 4.64053,12.75812 8.74418,24.6678 9.11932,26.46596 0.40969,1.96393 0.048,5.43479 -0.90593,8.69253 -2.6179,8.94071 -2.18819,11.6199 2.58082,16.09018 5.11179,4.79164 7.01292,8.35245 7.01292,13.13509 0,3.13331 -0.33683,3.65956 -2.3423,3.65956 -1.28821,0 -4.39697,-1.3216 -6.90834,-2.93687 -7.69318,-4.94819 -14.49865,-15.34939 -15.72343,-24.0312 -1.14746,-8.13368 -4.63264,-19.74706 -10.31564,-34.37401 -7.53216,-19.38644 -9.81014,-23.73397 -15.99253,-30.52193 -8.78792,-9.6488 -16.98415,-27.90789 -20.97029,-46.71644 -3.08428,-14.55298 -3.07176,-14.54248 15.28714,12.84816 12.6189,18.82694 15.62317,22.52678 16.76728,20.64935 0.87095,-1.42926 -2.81234,-14.69636 -7.31951,-26.36439 -6.62884,-17.16069 -15.87868,-33.97535 -21.51279,-39.10675 -3.34898,-3.05009 -6.84613,-1.22243 -10.60709,5.54347 -2.64214,4.753 -3.10827,6.64882 -3.04191,12.37151 0.11384,9.82529 4.77536,21.46433 24.84827,62.04238 18.82186,38.04888 20.51408,42.89099 23.69034,67.78466 1.03034,8.07585 2.29571,13.3702 4.06542,17.01083 3.406,7.00665 11.25328,16.45642 18.94353,22.81206 10.99312,9.0853 18.27082,20.6709 23.21493,36.95676 4.86945,16.03995 8.6605,49.22659 6.5446,57.29113 -1.78884,6.81811 -5.9969,6.86457 -9.89838,0.10927 -1.57162,-2.72116 -2.10704,-6.55309 -2.79396,-19.99485 -1.49225,-29.20199 -4.99193,-46.87696 -11.27181,-56.92721 -2.76274,-4.42144 -11.20855,-12.80309 -14.94446,-14.83085 -4.30329,-2.3358 -8.44589,-3.14972 -9.88138,-1.94146 -2.46038,2.07099 -1.51095,5.83864 2.35938,9.36255 7.66854,6.9821 9.6536,9.52062 13.05739,16.69786 7.75417,16.35061 12.09357,41.21456 12.15936,69.67151 0.0488,21.03869 -1.63294,31.94175 -5.91207,38.33143 -2.05907,3.07459 -2.80259,3.43041 -7.31618,3.50093 -7.02073,0.10969 -7.31942,0.18745 -9.59854,2.4989 -4.06607,4.12383 -1.428,10.67018 5.20759,12.92274 5.02022,1.70423 6.15905,6.99929 6.31128,29.34659 0.13044,19.1456 -0.32618,23.146 -6.01649,52.7143 -5.8497,30.3962 -12.64671,53.159 -18.7573,62.8167 -1.65513,2.616 -3.00938,5.7155 -3.00938,6.8876 0,1.8934 0.45646,2.0693 4.08893,1.5752 6.42635,-0.8743 8.97863,2.517 10.60155,14.0868 l 0.64122,4.5715 -8.93649,8.8496 c -10.59474,10.4917 -24.0349,21.0092 -45.56607,35.6575 -20.29094,13.8045 -42.15057,24.836 -42.15057,21.2712 z M 1096.4824,988.55578 c 0.3563,-1.92664 0.093,-6.21425 -0.5853,-9.52802 -1.5395,-7.52075 -0.6699,-17.90179 2.2051,-26.32768 3.0902,-9.05616 2.2778,-19.42984 -2.6903,-34.35491 -4.9655,-14.91696 -5.6167,-21.74769 -2.5527,-26.77578 2.7907,-4.57961 2.0892,-5.56055 -2.4179,-3.38077 -7.8225,3.78328 -15.8617,14.56374 -15.8617,21.27032 0,4.66837 4.0142,11.24936 9.2305,15.1329 2.7572,2.05273 5.6965,4.72176 6.5318,5.93115 2.167,3.13782 1.8761,8.21786 -0.6578,11.4849 -1.9436,2.50597 -2.6776,2.75194 -6.8616,2.29944 -2.5767,-0.27869 -5.943,-0.83707 -7.4805,-1.24085 -4.0524,-1.06426 -3.7182,0.98811 2.6114,16.0352 2.9737,7.06936 6.7071,16.03834 8.2963,19.93108 2.8071,6.876 6.9169,13.02601 8.7046,13.02601 0.4841,0 1.1717,-1.57635 1.5281,-3.50299 z M 876.77198,630.03807 c 1.6252,-2.32856 5.39902,-7.15568 8.38628,-10.72695 2.98734,-3.57127 5.43146,-6.75942 5.43146,-7.08479 0,-1.19318 -4.18115,-0.53883 -9.3919,1.46981 -2.94116,1.13377 -6.8733,2.06163 -8.738,2.06192 l -3.39046,5.1e-4 0.71767,-7.76701 c 0.67683,-7.32581 0.54014,-8.13105 -2.40631,-14.17569 -6.35706,-13.0413 -25.0497,-33.09375 -40.2269,-43.1531 -6.54109,-4.33539 -8.48013,-4.82584 -9.40589,-2.3791 -0.93479,2.47059 5.94362,15.39373 13.96453,26.23653 11.83187,15.99446 23.1711,33.81244 28.94924,45.48951 2.98075,6.02378 6.1636,11.70695 7.07294,12.62925 2.81917,2.85921 5.83172,1.99223 9.03734,-2.60089 z M 861.30699,508.45632 c 5.20335,-1.74644 10.03238,-3.9228 10.73126,-4.83636 2.29099,-2.99484 1.55422,-8.10639 -1.52477,-10.57793 -2.52407,-2.02611 -3.5849,-2.18318 -10.92758,-1.61811 -4.47269,0.34421 -10.08639,0.90608 -12.47481,1.24862 -7.27973,1.04399 -11.19431,-0.30222 -16.95984,-5.8325 -10.07248,-9.66147 -21.24126,-11.45735 -15.80841,-2.54189 4.22546,6.9341 31.24649,26.97515 36.79895,27.29316 0.3875,0.0222 4.96184,-1.38855 10.1652,-3.13499 z M 788.1608,1188.007 c -4.57579,-1.1618 -11.11982,-5.7265 -11.93255,-8.3234 -2.62546,-8.3897 19.8536,-11.3956 27.46806,-3.6731 6.37959,6.4702 -4.42886,14.8165 -15.53551,11.9965 z m 243.2308,-4.1667 c -0.9734,-1.5974 7.7377,-13.3449 12.4899,-16.8434 6.5717,-4.838 8.4914,-5.7487 14.59,-6.9217 6.6119,-1.2718 8.9925,-3.3639 8.9925,-7.903 0,-4.6498 2.7612,-9.8878 10.069,-19.1009 10.2547,-12.9286 26.8963,-27.607 31.299,-27.607 6.1071,0 -9.3676,20.9083 -35.7173,48.2588 -14.4224,14.9702 -25.0302,24.438 -30.5554,27.2717 -4.3812,2.247 -10.5713,3.8241 -11.1677,2.8455 z m -294.08773,-16.8042 c -3.00506,-1.7811 -6.30762,-7.2999 -6.30762,-10.5404 0,-3.6306 3.48252,-5.5044 14.40611,-7.7512 15.21997,-3.1306 47.02213,-7.2506 61.17541,-7.9253 12.47244,-0.5947 13.04876,-0.5339 12.6938,1.3415 -0.50216,2.6534 -7.57039,6.4203 -25.75941,13.7282 -22.26281,8.9445 -31.69497,11.5516 -43.7103,12.0815 -7.34512,0.324 -10.81235,0.065 -12.49799,-0.9343 z m -42.87351,-1.8587 c -7.58095,-1.3591 -19.03427,-4.8825 -23.7027,-7.2916 -4.11495,-2.1234 -7.82817,-7.2258 -7.83435,-10.7655 -0.008,-4.2433 3.58994,-6.1002 11.54066,-5.9571 13.94867,0.251 31.7454,7.0645 38.62504,14.7876 2.03832,2.2882 3.70598,4.551 3.70598,5.0286 0,3.9784 -11.50138,6.1403 -22.33463,4.198 z m -58.04493,-29.7921 c -7.22209,-3.8722 -13.34145,-12.8437 -11.70705,-17.1635 1.93993,-5.1271 26.01288,7.0177 26.01288,13.1233 0,5.5477 -7.52883,7.6739 -14.30583,4.0402 z m 202.36183,-1.1218 c 0,-3.7254 1.99409,-6.3026 16.69929,-21.5824 16.24437,-16.8792 21.71219,-24.9092 22.87404,-33.5924 1.22664,-9.1679 2.67953,-9.834 17.85998,-8.1881 6.44522,0.6987 7.38172,0.5572 9.93944,-1.5026 3.97776,-3.2034 6.18995,-8.113 11.00671,-24.4281 4.97452,-16.8494 5.71593,-18.5512 7.35643,-16.8849 0.77206,0.7842 1.13402,5.3404 1.05294,13.2554 -0.1519,14.8243 -3.29717,28.1321 -9.96156,42.1481 -10.38646,21.8441 -30.82841,47.1239 -39.9918,49.4565 -2.74257,0.698 -4.26556,-0.8407 -4.29134,-4.3356 -0.0406,-5.5702 -4.70891,-5.9136 -12.06721,-0.8878 -11.51578,7.8653 -20.47692,10.7282 -20.47692,6.5419 z m 52.30746,-29.2206 c 5.2537,-8.1702 10.29937,-16.3205 11.2126,-18.1116 1.61977,-3.1768 1.61058,-3.2294 -0.37586,-2.1513 -1.11996,0.6078 -5.43569,4.4667 -9.59049,8.5751 -7.64553,7.5602 -12.89296,16.007 -12.89296,20.7539 0,2.6167 0.91194,5.7888 1.66425,5.7888 0.23665,0 4.72876,-6.6848 9.98246,-14.8549 z m -197.66966,26.16 c -14.84297,-3.8621 -41.62442,-19.1919 -64.54896,-36.948 -4.47268,-3.4642 -10.71207,-7.6946 -13.86531,-9.4007 -5.82173,-3.1498 -12.56816,-4.1208 -13.29363,-1.9134 -0.21493,0.6538 0.008,4.4813 0.48695,8.5055 0.48281,4.0242 0.73483,12.7528 0.56015,19.3966 -0.3814,14.504 -1.25,16.1853 -6.92502,13.4039 -1.95676,-0.959 -5.95932,-4.0959 -8.89454,-6.9709 -6.61892,-6.4828 -6.99422,-9.4683 -1.7789,-14.1511 7.00755,-6.2921 3.89472,-13.107 -13.42968,-29.4012 -14.30291,-13.4525 -18.68687,-19.0616 -17.92359,-22.9323 0.70636,-3.5821 -2.01149,-8.3474 -13.57386,-23.7989 -4.40625,-5.8884 -10.9288,-15.5773 -14.49467,-21.5312 -9.29675,-15.52271 -24.92671,-46.9803 -27.43534,-55.2177 -2.45035,-8.04598 -1.91995,-9.38813 4.10168,-10.37919 2.91668,-0.48003 3.9937,-0.0845 6.39057,2.3463 3.43909,3.48797 7.25762,10.87229 9.99441,19.32733 4.79057,14.80015 20.74521,43.05096 40.06386,70.94066 24.77257,35.7635 31.18656,44.1189 33.86764,44.1189 2.38086,0 5.14546,-3.2338 5.14546,-6.0187 0,-4.0766 -11.61288,-25.0772 -26.16471,-47.316 -16.70059,-25.52257 -26.02565,-41.74411 -35.80375,-62.2831 -9.24609,-19.42142 -14.4788,-35.19467 -14.06837,-42.40745 0.25307,-4.44783 0.63422,-5.38188 2.1965,-5.38188 3.81918,0 18.38736,28.35459 28.55742,55.58232 5.11155,13.68491 8.89869,20.58513 20.41886,37.20401 11.9075,17.1777 16.63749,25.2208 18.38199,31.2581 2.11201,7.3088 9.769,15.1113 19.85448,20.2316 7.17655,3.6435 7.75052,3.7637 14.79394,3.096 6.78945,-0.6435 7.81492,-0.4632 13.96086,2.4536 3.64825,1.7315 10.93409,6.1893 16.19071,9.9063 16.96895,11.9991 30.80378,17.0835 35.5693,13.0722 0.92609,-0.7794 1.96351,-3.1912 2.30539,-5.3597 1.04067,-6.6006 3.10623,-7.6507 14.97405,-7.6124 9.11427,0.03 11.03647,0.3709 16.60683,2.9514 12.73926,5.9014 12.36941,9.5628 -0.91926,9.1006 -13.23931,-0.4605 -18.8835,2.6368 -16.99237,9.3244 1.67123,5.9102 5.09414,6.715 33.60001,7.9007 22.41538,0.9323 26.81162,1.4859 25.74183,3.2415 -0.29877,0.4903 -4.43486,3.0429 -9.19127,5.6725 -4.75642,2.6296 -8.47509,5.3113 -8.26365,5.9595 0.25404,0.7784 5.7034,1.3919 16.05863,1.8075 16.65441,0.6685 19.61988,1.1475 25.4599,4.1125 4.65501,2.3634 5.6564,4.7981 3.05753,7.434 -4.22888,4.2888 -24.59366,3.2622 -41.28165,-2.0813 -6.75578,-2.1632 -8.97985,-3.4599 -12.95313,-7.5512 -2.63824,-2.7168 -6.52646,-5.5602 -8.64041,-6.3187 -5.585,-2.0041 -22.19711,-1.764 -24.28252,0.351 -1.46176,1.4825 -1.25683,1.8858 2.30156,4.5293 6.38374,4.7427 9.49705,7.9381 9.49705,9.7478 0,4.3677 -12.52367,5.3529 -25.41297,1.999 z m 2.97555,-13.0864 c 1.77647,-2.1859 3.12356,-5.0412 3.12356,-6.621 0,-4.0997 -6.53101,-9.2303 -20.83863,-16.3697 -18.0215,-8.9928 -47.72394,-21.6398 -48.12608,-20.4917 -0.86014,2.4558 12.13879,17.9865 21.89834,26.1635 9.01002,7.549 15.07693,10.4563 18.82545,9.0213 4.4669,-1.7099 8.22908,0.1907 12.96224,6.5488 5.14593,6.9126 7.66382,7.2749 12.15512,1.7488 z m 264.14918,10.4884 c -6.88931,-3.7922 -12.36956,-20.571 -12.44072,-38.0895 -0.0448,-11.0742 0.0293,-11.4501 3.15128,-16.0088 4.30907,-6.2915 6.45962,-14.1935 6.45962,-23.7352 0,-15.6547 4.61621,-34.3216 9.68076,-39.1472 3.37199,-3.2128 4.74006,-1.7726 5.65005,5.9477 1.72897,14.6689 -2.94018,42.8277 -10.07939,60.7866 -7.34561,18.478 -6.6421,24.3088 3.93832,32.642 3.47771,2.7389 6.28216,5.8357 6.65705,7.3505 0.90276,3.6479 -1.36131,8.5772 -4.75779,10.3586 -3.51683,1.8443 -4.74673,1.8288 -8.25918,-0.1047 z m -154.72986,-3.7645 c -0.87689,-1.2697 -1.59431,-3.5616 -1.59431,-5.0929 0,-4.7056 -4.45561,-8.973 -10.17186,-9.7421 -3.12169,-0.4199 -5.71382,-1.4885 -7.01277,-2.8907 -6.49937,-7.0166 -6.95347,-26.2088 -0.74376,-31.432 0.93528,-0.7866 7.06383,-2.5354 13.61916,-3.8861 17.42045,-3.5896 29.82897,-10.0604 41.3576,-21.5676 7.07537,-7.0621 9.79883,-12.4709 10.7625,-21.3742 1.02204,-9.4428 3.32994,-12.053 10.65701,-12.053 5.85979,0 12.531,2.1168 23.87014,7.5738 12.66363,6.0944 14.94625,6.0654 11.81016,-0.1506 -2.33246,-4.6231 -2.8029,-10.5285 -1.65472,-20.7721 2.14314,-19.12109 6.95217,-37.80905 13.14456,-51.0804 3.66695,-7.85885 8.47752,-13.99803 9.86568,-12.59023 0.35473,0.35981 -0.0748,3.57051 -0.95552,7.13487 -0.88023,3.56435 -3.24758,18.54287 -5.26069,33.28559 -4.69575,34.38777 -7.19745,49.53537 -9.87553,59.79567 -2.47485,9.4812 -5.50123,17.1595 -7.1776,18.2103 -0.66651,0.4178 -2.54511,-0.8851 -4.4299,-3.0722 -3.79194,-4.4001 -5.28647,-4.0524 -9.53251,2.2181 -4.29198,6.3383 -6.56541,7.3787 -16.28976,7.4541 -7.58892,0.058 -9.34904,0.4432 -14.16238,3.0928 -3.02304,1.6642 -9.55536,6.6556 -14.5163,11.0922 -14.51442,12.9802 -19.5862,13.6896 -26.64369,3.7265 -4.27214,-6.0309 -7.43165,-6.7085 -10.52333,-2.2566 -4.3015,6.1941 -4.00891,10.9808 0.73002,11.9421 3.76112,0.7629 6.97048,7.2651 8.3331,16.8832 1.00774,7.1128 0.38929,16.3555 -1.15924,17.3262 -0.46841,0.2936 -1.56918,-0.5049 -2.44606,-1.7747 z m 64.81332,-72.4959 c 5.79513,-4.4878 9.83128,-11.2086 9.83128,-16.3706 0,-6.7495 -2.95733,-9.8004 -7.4758,-7.7124 -4.30118,1.9876 -11.83806,16.9816 -11.83806,23.5507 0,5.4164 2.961,5.5827 9.48258,0.5323 z m -49.64068,61.3584 c -1.30513,-2.1418 0.84712,-5.2411 9.22373,-13.2829 10.99345,-10.5541 29.13091,-23.0265 32.84901,-22.589 2.29091,0.2695 2.70451,0.8673 2.98295,4.3116 0.4554,5.6326 -1.3396,9.2646 -7.2364,14.6416 -11.56579,10.5463 -35.24677,21.1401 -37.81929,16.9187 z m -318.86458,-11.263 c -5.30707,-4.2338 -21.52096,-31.8853 -31.84384,-54.3072 -0.55083,-1.1965 -2.76127,-4.7609 -4.91213,-7.9209 -6.73005,-9.8879 -5.07485,-16.652 3.91063,-15.9813 3.91757,0.2924 4.31811,0.6801 10.96656,10.6131 12.47693,18.6411 37.82007,62.7417 38.50984,67.0124 0.30317,1.8768 -0.31154,2.0887 -6.84792,2.361 -5.94501,0.2475 -7.62877,-0.058 -9.78314,-1.7771 z m 252.70627,-11.2965 c -9.97059,-6.1665 -9.74972,-16.7812 0.28577,-13.7318 6.81645,2.0713 12.81074,9.6843 11.12763,14.1326 -0.83591,2.2092 -7.57575,1.9726 -11.4134,-0.4008 z m -194.06492,-1.0304 c -5.1222,-3.2604 -12.75902,-12.1083 -28.12773,-32.5883 -47.84547,-63.75788 -66.49837,-92.76981 -65.70854,-102.20038 0.424,-5.06267 2.50892,-6.27616 7.94506,-4.62432 5.27978,1.60432 12.35061,8.0541 17.3025,15.78278 2.92473,4.56478 4.13611,7.95377 5.45354,15.25703 1.34898,7.47814 2.74676,11.31233 6.86865,18.84119 7.28812,13.3119 7.62064,13.7939 15.45451,22.4021 16.57649,18.2147 45.38634,60.9134 45.38634,67.2663 0,2.2969 -0.78857,2.2734 -4.57433,-0.1364 z m 415.597,-1.7086 c -2.04686,-5.4099 3.3554,-16.3513 9.09858,-18.4277 7.9286,-2.8667 7.54436,10.5942 -0.49834,17.4578 -3.38411,2.888 -7.69074,3.3737 -8.60024,0.9699 z m 145.69856,-7.3317 c -0.3381,-0.3428 -0.9196,-3.3562 -1.2922,-6.6962 -0.3726,-3.3401 -1.1626,-6.377 -1.7556,-6.7486 -0.593,-0.3717 -3.7348,2.2536 -6.9818,5.8341 -5.0904,5.6132 -5.9012,6.171 -5.8865,4.0495 0.047,-6.7655 15.3703,-36.4373 23.5753,-45.6509 3.7427,-4.2028 3.7705,-4.2135 3.8119,-1.4666 0.06,4.0092 -5.7894,38.5494 -7.598,44.8623 -1.5165,5.2931 -2.6744,7.0322 -3.8731,5.8164 z m -449.84426,-12.9903 c -2.43754,-1.2653 -7.71725,-5.3381 -11.73274,-9.0504 -8.94212,-8.2672 -12.68608,-10.0705 -17.3537,-8.3587 -4.27548,1.5679 -6.22971,0.7483 -7.57964,-3.1792 -2.37533,-6.9105 -0.23885,-16.4425 3.9906,-17.8039 6.77344,-2.1804 22.37928,6.1918 36.4431,19.5509 6.45571,6.1324 8.28812,9.3884 8.28812,14.7275 0,6.8883 -4.0494,8.2701 -12.05574,4.1138 z m 419.78236,-6.755 c -0.7565,-1.4337 -0.035,-3.6496 3.104,-9.5364 5.1315,-9.6227 14.111,-23.3978 18.0157,-27.6371 6.5009,-7.0582 6.8042,-2.8376 1.0044,13.9727 -4.7091,13.6486 -7.6686,18.5507 -13.5356,22.4202 -4.7328,3.1213 -7.2334,3.3486 -8.5885,0.7806 z m -104.80398,-5.3491 c -2.83772,-2.8781 -2.63669,-8.6724 0.94755,-27.3205 7.78483,-40.50212 9.41248,-77.78987 3.34386,-76.60455 -4.48341,0.87568 -8.35749,14.29932 -8.35749,28.95864 0,8.6488 -1.29285,12.73159 -4.34249,13.71326 -2.92985,0.94311 -7.13775,-2.71155 -8.5377,-7.41524 -3.08965,-10.38059 -0.44873,-38.09616 4.8205,-50.58909 2.1268,-5.04259 5.60728,-9.6125 7.32088,-9.6125 0.51688,0 2.47543,-0.73902 4.35217,-1.64228 4.74096,-2.28167 7.20842,-8.13299 7.94584,-18.84272 0.61634,-8.95097 2.96385,-15.0831 5.77416,-15.0831 7.0354,0 8.1979,64.34758 1.9779,109.48178 -1.1092,8.0484 -2.2885,20.8066 -2.62067,28.3514 -0.71474,16.2318 -2.41338,23.5456 -6.1632,26.5372 -3.30653,2.6379 -3.92075,2.6443 -6.46131,0.068 z m -487.92907,-6.4587 c -5.23737,-2.6246 -10.51252,-18.1683 -6.67298,-19.6626 2.07185,-0.8063 7.53595,3.2132 11.45859,8.4291 3.8509,5.1206 4.41665,9.8221 1.38035,11.4701 -2.48129,1.3469 -3.04964,1.325 -6.16596,-0.2366 z m 121.90208,-24.3724 c -1.91268,-1.5944 -5.99364,-4.1031 -9.06873,-5.5751 -16.14118,-7.7266 -34.15601,-29.60605 -48.96799,-59.47307 -5.50953,-11.1095 -7.31764,-16.72402 -10.02239,-31.12253 -0.60585,-3.22521 -2.20105,-7.40059 -3.54489,-9.27863 -4.41266,-6.1667 -7.60494,-13.08361 -9.14338,-19.81163 -4.214,-18.42849 6.4958,-10.12864 22.37545,17.34042 3.25009,5.62214 10.8696,20.69992 16.9322,33.50618 18.82154,39.75729 21.63144,44.70767 31.35733,55.24386 9.73386,10.5449 16.29187,20.3569 14.39886,21.5434 -0.46133,0.2892 -2.40378,-0.7786 -4.31646,-2.3729 z m -147.27355,-17.2314 c -6.23115,-5.3176 -7.97636,-12.10732 -3.55069,-13.81387 3.91429,-1.50934 9.04892,1.03183 10.4764,5.18486 1.16322,3.38421 0.67486,7.71301 -1.13272,10.04051 -1.42204,1.8311 -2.2217,1.6363 -5.79299,-1.4115 z m 649.13832,-2.7123 c -0.3372,-1.2758 -0.6192,-11.20953 -0.6269,-22.07494 -0.019,-26.32686 2.3529,-39.52489 7.1018,-39.52489 4.4825,0 5.1107,7.86745 2.4697,30.92879 -2.9452,25.71774 -6.7795,38.86524 -8.9446,30.67104 z M 449.18611,993.01834 c -0.96755,-0.57181 -2.97426,-3.14247 -4.45935,-5.71257 -2.44183,-4.22588 -2.58891,-5.04951 -1.5373,-8.60932 1.4918,-5.04991 5.49836,-7.92642 8.87011,-6.36833 3.00704,1.38956 3.8057,4.59547 3.2701,13.12649 -0.49586,7.89786 -2.14422,9.92726 -6.14356,7.56373 z m 291.30923,-15.87589 c -2.8822,-0.81772 -12.71698,-4.11656 -21.85516,-7.33076 -9.13809,-3.21419 -20.50286,-6.71225 -25.25512,-7.77347 -20.37706,-4.5504 -32.00571,-9.5618 -44.48035,-19.16896 -13.63688,-10.50225 -25.76176,-27.08635 -44.22297,-60.48677 -10.42777,-18.86622 -15.82036,-26.06477 -22.97129,-30.6642 -6.44733,-4.14685 -8.23412,-3.85145 -13.25858,2.19191 -3.57156,4.29582 -4.85343,5.1548 -7.69268,5.1548 -2.53366,0 -4.06128,-0.78868 -5.95965,-3.07679 -5.76773,-6.95193 -10.1334,-26.33807 -7.85298,-34.87209 1.11444,-4.17076 1.38596,-4.42319 4.43536,-4.12384 l 3.24831,0.31886 0,7.13734 0,7.13734 3.33946,0.89147 c 2.3071,0.6159 4.19253,0.46872 6.09912,-0.47609 4.4151,-2.18792 3.59018,-7.72098 -4.11471,-27.59895 -3.62182,-9.34391 -7.42669,-19.44093 -8.45532,-22.43781 -2.35214,-6.85286 -4.23693,-8.57694 -10.11029,-9.24835 -6.73196,-0.76958 -8.05027,-3.19685 -7.29772,-13.43613 1.16387,-15.83401 8.02603,-34.75053 13.68235,-37.71705 1.53771,-0.80649 3.60677,-2.37518 4.598,-3.48598 2.368,-2.65378 0.71302,-4.137 -5.59444,-5.01381 -6.16197,-0.85659 -11.15999,0.97682 -15.11401,5.54422 -6.90094,7.97139 -9.8486,19.40261 -10.96409,42.51979 -0.64292,13.32307 -1.13915,16.81858 -2.79583,19.69556 -1.55999,2.70898 -2.68231,3.49775 -4.97672,3.49775 -6.61184,0 -6.94111,-8.93348 -1.51989,-41.23838 5.76065,-34.32739 10.09826,-48.22024 15.8912,-50.89715 1.53445,-0.70909 5.28915,-0.89473 9.97351,-0.49313 7.13693,0.61186 7.64438,0.51037 10.14885,-2.0296 1.44987,-1.47053 2.63619,-3.64219 2.63619,-4.82593 0,-12.98058 16.69498,-61.14684 31.15273,-89.87765 6.98918,-13.88914 8.84851,-16.31457 12.50692,-16.31457 8.3488,0 7.05668,11.68421 -2.48429,22.46393 -5.22621,5.90478 -8.76427,12.81378 -12.65663,24.71578 -6.92104,21.16263 -11.1918,50.22448 -8.21088,55.87351 1.1899,2.25494 0.77931,2.8694 -6.61314,9.89593 -5.48734,5.21576 -7.69359,7.98905 -7.26234,9.12884 0.34074,0.90043 1.46891,1.63715 2.50722,1.63715 3.02069,0 6.08919,4.20131 7.72733,10.58015 0.89528,3.48574 1.76167,13.22169 2.10908,23.6997 0.70644,21.30357 2.5752,36.32848 6.57924,52.89641 9.06913,37.52615 25.88561,71.73707 50.90092,103.55123 11.2253,14.27616 39.21096,42.26394 48.44892,48.45259 10.64823,7.13336 15.54672,8.08983 44.03706,8.59852 26.16381,0.46715 30.65634,-0.12582 39.99082,-5.27849 6.71432,-3.70629 15.24047,-12.35492 23.89129,-24.23442 3.87953,-5.32746 8.31879,-10.69558 9.86503,-11.92914 2.45868,-1.96143 3.07127,-2.06783 4.88271,-0.84802 1.13924,0.76716 2.55398,2.17194 3.14389,3.12173 1.62285,2.61292 -2.91383,10.51155 -14.1649,24.66164 -13.36528,16.80918 -18.11177,25.56514 -14.51719,26.78035 2.27309,0.76848 -1.74517,5.35523 -9.24407,10.55176 -8.20453,5.68555 -13.39162,6.66424 -22.15027,4.17927 z M 553.61526,751.834 c 0.67382,-4.96912 -0.71027,-14.55632 -2.52748,-17.50647 -0.71636,-1.16297 -1.23348,-1.24751 -2.12151,-0.34684 -1.37084,1.39026 -0.94325,22.65294 0.50232,24.97968 1.38255,2.22538 3.33304,-1.12673 4.14667,-7.12637 z M 437.80195,954.61531 c -5.87653,-7.81398 -12.45151,-26.0584 -18.84523,-52.29229 -9.00624,-36.95324 -11.49843,-64.90817 -5.78659,-64.90817 5.83608,0 27.74909,81.94941 29.81816,111.51279 0.55501,7.92993 0.42712,9.10947 -0.9877,9.10947 -0.89389,0 -2.78328,-1.53981 -4.19864,-3.4218 z m 22.3048,-19.66811 c -3.598,-3.64912 -5.88194,-12.9655 -6.00533,-24.49631 -0.0586,-5.47591 0.27432,-10.34687 0.73984,-10.82437 0.94438,-0.96864 4.56137,2.93635 9.64469,10.41265 1.96616,2.89173 3.75229,4.58226 4.27802,4.04908 0.69936,-0.7093 8.10257,-30.81371 8.10257,-32.94829 0,-0.26292 3.40858,3.36137 7.57461,8.05399 8.55472,9.63602 17.40418,25.88613 18.4642,33.90539 0.55486,4.19802 0.35017,4.95178 -1.74968,6.44349 -3.2729,2.325 -6.42241,2.11532 -9.46801,-0.63033 -2.33243,-2.10273 -3.36314,-4.97721 -5.14952,-14.36134 -0.60764,-3.19203 -3.04879,-6.00011 -5.21608,-6.00011 -2.17524,0 -6.2928,4.5203 -7.10418,7.79905 -0.38408,1.552 -0.17397,4.29251 0.46691,6.09 1.92301,5.39357 1.42595,8.68624 -1.80613,11.96424 -3.85516,3.90994 -9.22687,4.13825 -12.77191,0.54286 z m 386.9993,-2.95485 c -3.45486,-3.7298 -4.82602,-14.94288 -3.47405,-28.4105 1.9757,-19.68046 5.65721,-33.99882 10.69272,-41.58605 2.02352,-3.04895 2.98604,-3.53411 8.34854,-4.20803 8.89512,-1.11789 16.27399,-0.0569 19.56336,2.81306 5.65372,4.93277 3.33117,12.33976 -11.80252,37.64063 -7.38944,12.35385 -7.7161,13.16894 -7.89591,19.70206 -0.21274,7.72883 -1.08637,9.88483 -5.54865,13.69292 -3.87294,3.30515 -7.04578,3.41939 -9.88349,0.35591 z m 282.84555,-2.43499 c -3.5375,-3.87134 -5.8867,-10.9937 -12.1314,-36.78076 -4.9938,-20.62105 -8.3128,-36.79326 -14.6417,-71.34162 -3.3778,-18.43902 -11.2818,-42.77084 -27.1267,-83.50771 -16.3453,-42.02342 -26.9799,-64.45206 -40.7017,-85.84108 -10.4428,-16.27773 -28.4411,-40.45879 -40.69446,-54.67365 -29.61104,-34.35109 -44.09676,-53.46037 -45.68358,-60.26462 -1.90585,-8.17251 9.92456,1.26659 39.71173,31.6846 21.24041,21.69028 32.18661,31.46166 35.24421,31.46166 1.5295,0 0.8762,-5.1694 -1.1667,-9.2306 -1.1048,-2.19652 -4.1514,-5.77351 -6.7699,-7.94887 -6.83,-5.67397 -10.9302,-15.96188 -6.975,-17.50121 2.8523,-1.11008 6.4243,0.64323 12.1807,5.97902 6.3006,5.84018 11.0044,14.14163 12.101,21.35632 1.0869,7.15165 2.2822,8.70725 6.1955,8.06319 6.6596,-1.09605 13.7625,6.70014 30.3421,33.30381 10.4885,16.82985 18.8793,27.33683 23.341,29.2275 4.6536,1.97205 12.1411,10.79183 18.5766,21.88204 3.0138,5.1935 7.2306,11.59183 9.3707,14.2185 4.5156,5.54217 14.7117,22.66373 21.1593,35.53167 7.7251,15.417 8.3544,22.61712 1.9344,22.13134 -4.5622,-0.34521 -7.4435,-3.07493 -11.1724,-10.58459 -9.4001,-18.93127 -48.3932,-73.328 -81.6847,-113.9529 -8.41,-10.26257 -21.525,-24.22754 -22.753,-24.22754 -1.8057,0 -0.5617,5.44505 2.6895,11.77104 1.9125,3.72134 8.4844,14.07754 14.6042,23.01375 6.1198,8.93623 16.0211,23.74835 22.0029,32.91582 12.6728,19.42151 19.8876,27.14766 25.351,27.14766 2.7801,0 4.018,0.66742 5.7113,3.07922 3.405,4.84979 9.472,18.80338 15.2469,35.06628 7.1681,20.18676 14.3735,34.28171 20.655,40.4049 2.7291,2.66024 4.6627,5.32785 4.297,5.92802 -1.0398,1.70607 -7.5365,1.28071 -10.8898,-0.71297 -6.1941,-3.6827 -14.0672,-18.48015 -23.1235,-43.46052 -4.8066,-13.25841 -7.3486,-18.70905 -9.615,-20.61669 -8.137,-6.84909 -1.7536,23.79824 22.3914,107.50234 15.8694,55.01491 18.7175,66.9309 19.3913,81.13022 0.8225,17.33184 -1.8728,23.86021 -7.3682,17.84643 z m 18.6246,-14.82055 c -3.6595,-5.66779 -14.3041,-42.64331 -18.9948,-65.9814 -6.0625,-30.16298 -4.4796,-43.88481 4.1288,-35.79342 5.0811,4.77577 12.5931,27.74731 15.5824,47.64945 1.924,12.80976 3.0251,43.42982 1.8353,51.03249 l -0.8874,5.67028 -1.6643,-2.5774 z M 514.84774,903.6902 c -2.84291,-0.36302 -3.41469,-1.0423 -5.285,-6.27851 -5.09382,-14.26145 -10.49016,-33.11092 -12.39256,-43.28748 -2.62418,-14.03761 -4.72753,-21.38388 -6.69336,-23.37764 -2.29339,-2.32598 -3.27388,-6.60491 -5.44101,-23.74502 -3.80814,-30.11945 -5.46583,-55.09484 -5.5426,-83.50771 -0.0744,-27.52929 0.68108,-34.74037 3.45719,-33.00027 2.85574,1.79002 6.55277,22.62232 8.6594,48.79465 2.24169,27.85005 3.36898,38.26779 5.70958,52.76442 4.23985,26.25962 11.83309,55.41135 21.2145,81.44579 2.34971,6.52082 5.14294,14.28009 6.20719,17.24282 1.06418,2.96273 1.93489,6.11535 1.93489,7.00584 0,2.2846 -4.63191,6.71251 -6.81531,6.51513 -1.00384,-0.0907 -3.25962,-0.34816 -5.01291,-0.57202 z m -71.6962,-17.31328 c -1.18214,-1.85374 -3.7208,-16.15295 -5.398,-30.4048 -0.90086,-7.65487 -2.54211,-20.23039 -3.64724,-27.94559 -2.2495,-15.70457 -2.69615,-26.36773 -1.16932,-27.91624 1.6226,-1.64565 5.96644,1.89056 8.25352,6.71892 4.09252,8.63996 4.58234,13.3725 4.28604,41.41072 -0.28416,26.88824 -1.08817,40.07649 -2.325,38.13699 z m 26.23483,-14.9552 c -1.46714,-1.76836 -3.47197,-5.85196 -4.45518,-9.07466 -3.48817,-11.43331 -1.69872,-51.62825 2.83711,-63.72764 1.56729,-4.18075 2.45063,-1.96631 3.96055,9.92857 0.68379,5.38676 2.80566,17.75475 4.71525,27.48442 3.91612,19.95316 4.3592,28.95715 1.69152,34.37314 -2.37036,4.81233 -5.3159,5.15444 -8.74925,1.01617 z m 64.79557,-5.50114 c -4.36754,-5.37383 -12.16132,-21.79223 -13.67609,-28.80993 -1.13525,-5.2596 -1.09288,-6.17393 0.354,-7.64134 1.51363,-1.53516 1.88852,-1.40081 4.74502,1.70056 6.53394,7.09396 14.8846,31.11563 12.61224,36.28054 -0.9513,2.16225 -1.0715,2.11669 -4.03517,-1.52983 z M 702.479,845.02124 c -5.85621,-6.24251 -13.20792,-11.73022 -15.71457,-11.73022 -1.30464,0 -3.78763,1.20804 -5.51775,2.68453 -2.40622,2.05347 -3.78405,2.52207 -5.861,1.99338 -7.90006,-2.01096 -12.58686,-9.75625 -12.60248,-20.82648 -0.0122,-8.73467 2.05809,-14.84443 6.85524,-20.22971 l 3.69582,-4.14891 -0.66586,-12.46937 c -0.57519,-10.7718 -0.42124,-12.95063 1.13086,-16.00445 3.59953,-7.08219 10.10249,-9.19291 21.37893,-6.93919 l 4.33445,0.86627 2.54714,-5.64269 c 3.28515,-7.27772 2.41021,-10.00823 -4.31532,-13.46721 -6.94055,-3.56961 -8.69132,-5.93128 -9.22373,-12.44221 -0.55518,-6.79009 2.04507,-15.56009 8.62724,-29.09776 5.03575,-10.35723 9.34115,-16.31876 12.36437,-17.12058 3.05524,-0.81031 7.7305,2.04982 11.07216,6.77354 4.68957,6.62911 19.16862,34.36985 22.16125,42.45941 8.14468,22.01581 8.97017,46.37452 2.31783,68.39378 -3.42153,11.32523 -10.67582,24.43745 -17.55382,31.72894 -6.79751,7.20606 -9.38532,8.37977 -8.2604,3.74644 1.6562,-6.82106 1.68491,-8.40537 0.20534,-11.30723 -3.89335,-7.63586 -18.35492,-18.5482 -25.95026,-19.58142 -8.32708,-1.13276 -11.33825,1.3345 -8.88787,7.28236 1.71279,4.15758 6.32437,8.15456 13.85938,12.01225 7.14514,3.65808 8.80288,6.77918 9.75573,18.36769 0.81509,9.91158 -0.13475,10.68735 -5.75268,4.69884 z m 25.19315,-56.35205 c 2.74567,-2.79649 2.81267,-3.14333 2.68744,-13.91795 -0.21867,-18.8182 -6.12132,-57.5867 -10.62767,-69.80206 -4.18293,-11.33864 -7.79686,-12.46508 -12.37615,-3.8576 -3.37314,6.34021 -7.74205,20.81812 -8.5421,28.30719 -0.75035,7.02304 0.51583,8.08959 7.17939,6.04753 10.92603,-3.34829 12.996,-2.38016 14.91917,6.97785 1.38335,6.73156 0.7362,22.39486 -1.19559,28.93408 -3.13381,10.60853 -10.01954,13.09315 -18.77966,6.77646 -3.95572,-2.85241 -5.9738,-3.60836 -9.63254,-3.60836 -8.17167,0 -9.39116,4.26367 -2.98685,10.44249 5.77789,5.5745 11.31938,7.07373 25.1233,6.7971 10.99516,-0.22034 11.51912,-0.33434 14.23126,-3.09673 z m -211.18009,26.04554 c -3.85667,-3.91143 -3.63661,-17.5054 0.32334,-19.97484 1.53543,-0.95754 2.47445,-0.44332 5.84498,3.20085 3.25961,3.52433 4.01558,5.09931 4.01558,8.36638 0,7.20736 -6.26639,12.38078 -10.1839,8.40761 z m -108.74432,-4.60834 c -2.56311,-6.83726 -3.28009,-18.32701 -2.76709,-44.34322 0.62809,-31.85277 2.15126,-39.62106 6.20847,-31.66382 4.47109,8.76897 7.14422,43.29952 4.76569,61.56165 -1.76628,13.56139 -5.84634,20.74277 -8.20707,14.44539 z m -29.3885,-5.93998 c -2.04072,-11.54757 -3.47601,-31.05306 -2.72713,-37.06137 0.84691,-6.79469 3.67487,-11.13598 7.25412,-11.13598 6.0791,0 7.15584,12.63021 2.99852,35.17261 -2.56767,13.92273 -4.16345,19.46824 -5.60221,19.46824 -0.43152,0 -1.297,-2.89958 -1.9233,-6.4435 z m 250.62186,-1.4209 c -3.00174,-1.64946 -3.07224,-2.26687 -1.07206,-9.38606 0.51639,-1.83815 -0.37985,-3.30488 -4.45129,-7.28488 -5.91842,-5.7854 -8.1411,-11.75712 -11.37265,-30.55486 -4.74308,-27.59037 -5.62664,-51.6496 -2.65279,-72.23329 3.26205,-22.57795 9.19583,-33.29215 12.9341,-23.35418 2.48876,6.61601 3.08022,14.23433 3.89457,50.15912 1.15883,51.12037 2.71272,59.76089 14.181,78.85482 5.83491,9.71459 6.36667,13.37193 2.11713,14.56121 -4.41819,1.23651 -10.56944,0.89136 -13.57801,-0.76188 z M 448.021,791.49641 c -1.26672,-3.34788 -0.69294,-17.69855 0.7564,-18.91848 2.08293,-1.75323 3.91384,1.08661 4.43548,6.87967 0.69305,7.69673 -3.31679,16.99464 -5.19188,12.03881 z m 15.83727,-16.70022 c -8.37991,-12.03814 -12.89226,-29.86876 -15.46151,-61.09647 -2.5391,-30.86123 -7.16106,-43.84693 -18.03596,-50.67331 -5.60574,-3.51883 -3.66127,-5.9504 4.82846,-6.03803 1.9568,-0.0202 5.52166,-0.94066 7.92189,-2.0455 3.47671,-1.60033 4.79646,-3.00015 6.49056,-6.88438 1.82329,-4.18041 2.04405,-6.16623 1.54828,-13.92735 -0.56278,-8.81002 -0.5085,-9.10738 2.0328,-11.13477 3.16722,-2.52673 6.69059,-2.67494 8.95657,-0.37678 2.42189,2.45632 1.62322,9.13255 -3.40682,28.47782 -2.32618,8.94635 -4.22941,16.92689 -4.22941,17.73453 0,0.80762 2.17281,2.94975 4.82846,4.76028 12.49554,8.51898 14.22574,12.52313 10.12735,23.43741 -4.15023,11.05235 -4.74054,13.56442 -5.77499,24.57554 -1.01488,10.80282 -0.35799,20.4256 2.54861,37.33406 1.69518,9.86125 1.91826,17.25595 0.54653,18.11577 -0.51635,0.32364 -1.8307,-0.69283 -2.92082,-2.25882 z m 183.94104,-1.62367 c -0.60926,-0.74459 -2.04833,-7.35561 -3.19789,-14.69117 -2.36361,-15.08261 -4.27296,-21.79758 -7.31235,-25.71643 -2.74737,-3.54236 -2.11045,-10.84776 1.26341,-14.49008 4.32029,-4.66405 14.66943,-2.24491 18.41534,4.30464 3.60124,6.29657 6.95071,32.11478 5.46765,42.14528 -0.96024,6.49421 -4.17952,9.80157 -9.54048,9.80157 -2.19332,0 -4.48634,-0.60922 -5.09568,-1.35381 z M 348.51697,743.3398 c -0.92032,-0.70878 -2.07427,-2.44852 -2.56436,-3.86609 -1.75454,-5.07505 2.22033,-43.1814 5.15117,-49.38324 1.81914,-3.84944 4.90918,-3.4491 7.16412,0.92814 1.63731,3.17834 1.7888,5.32846 1.27111,18.04179 -0.61951,15.21398 -1.9446,26.64079 -3.73605,32.21749 -1.16832,3.63694 -4.14656,4.47977 -7.28599,2.06191 z m 30.883,-4.50818 c -1.98066,-7.57425 -3.39778,-31.38225 -2.92332,-49.11274 0.51074,-19.08601 2.60583,-29.32342 6.78627,-33.16042 1.90986,-1.75295 2.00441,-1.68641 3.05474,2.14992 2.23761,8.1728 0.857,49.21544 -2.43455,72.37423 -1.60009,11.25802 -2.95371,13.59771 -4.48314,7.74901 z m 48.65257,-5.28593 c -5.85942,-15.78702 -8.95042,-36.58865 -5.82745,-39.21729 3.88621,-3.27109 8.72776,4.46179 11.50879,18.38171 1.64784,8.24801 1.57328,20.50386 -0.1525,25.06507 -1.23561,3.26568 -3.34625,1.65107 -5.52884,-4.22949 z m 73.54447,-14.1938 c -3.15507,-3.33957 -4.40009,-5.51718 -4.40009,-7.69593 0,-5.47185 6.63802,-6.68831 11.20756,-2.05385 3.25391,3.30016 2.28846,14.4072 -1.25235,14.4072 -0.63529,0 -3.13511,-2.09584 -5.55512,-4.65742 z m -97.2453,-10.22382 c -1.52172,-4.02186 -2.88628,-20.41867 -2.52381,-30.32631 0.4149,-11.34056 2.07727,-17.16549 4.89884,-17.16549 3.41393,0 4.57672,5.57746 4.51361,21.65015 -0.0494,12.58282 -0.42823,16.50822 -2.03304,21.06628 -2.02983,5.7653 -3.8163,7.52223 -4.8556,4.77537 z m 80.20294,-28.31368 c -1.50461,-2.4691 -2.77488,-18.32452 -2.27982,-28.45676 0.90238,-18.46887 4.24241,-31.57407 13.13772,-51.54797 10.44909,-23.46293 12.64395,-30.73105 10.35166,-34.2794 -4.53874,-7.02577 -12.63007,1.22085 -23.31705,23.7646 -7.57586,15.98096 -12.6911,21.18799 -14.3257,14.58273 -2.07784,-8.39639 3.37037,-22.59815 13.75261,-35.8487 9.24976,-11.80522 17.753,-16.45594 22.88688,-12.5177 5.40316,4.14479 10.39768,0.26473 17.85853,-13.87346 6.10245,-11.56419 11.27482,-18.93046 15.53892,-22.13 2.62033,-1.96613 3.05646,-2.01097 5.59084,-0.57482 2.0663,1.17088 2.82569,2.48442 3.05835,5.28999 0.44629,5.38122 -1.69645,9.69363 -9.14485,18.40492 -8.45809,9.89205 -11.65915,14.75893 -17.57887,26.72665 -10.92131,22.0794 -19.58814,49.55245 -22.4295,71.09936 -3.59707,27.27766 -9.5546,45.17817 -13.09972,39.36056 z m 41.44065,-5.85954 c -2.11095,-5.57916 2.56829,-24.3915 10.97563,-44.12654 7.25893,-17.03928 10.57099,-20.93058 14.12173,-16.59143 2.1229,2.59429 0.48142,13.26259 -4.11942,26.77258 -8.55071,25.10837 -18.33264,40.93694 -20.97794,33.94539 z m -20.66624,-3.39093 c 0,-4.54258 4.28719,-26.39529 7.20053,-36.70249 17.12452,-60.58552 67.89558,-138.33101 112.24044,-171.87341 7.78247,-5.88665 12.83969,-8.6459 33.79047,-18.43619 5.16676,-2.41441 10.129,-5.21343 11.0272,-6.22005 4.01281,-4.49711 -2.31522,-5.17709 -18.00361,-1.93458 -14.38366,2.97284 -19.52953,5.20543 -33.09997,14.36076 -13.89004,9.37094 -23.63178,18.03673 -36.56036,32.52233 -13.27118,14.86949 -22.94226,23.80206 -27.37721,25.2865 -3.54993,1.18825 -3.97963,1.11033 -5.69007,-1.032 -1.01757,-1.27453 -1.85014,-3.84843 -1.85014,-5.7198 0,-4.23815 4.43763,-8.37823 9.94098,-9.27443 7.5398,-1.22787 8.66651,-1.68407 11.66151,-4.72158 2.5852,-2.62196 2.95652,-3.63904 2.46022,-6.74043 -0.77622,-4.85113 -2.33759,-6.56142 -5.99031,-6.56142 -4.52147,0 -9.52243,2.80933 -16.25601,9.13207 -10.04695,9.43382 -17.10452,20.64827 -21.79318,34.62949 -4.29606,12.8102 -10.37012,19.12697 -18.39233,19.12697 -5.18977,0 -6.81646,-1.88785 -6.00389,-6.96771 1.50893,-9.43379 12.31265,-25.47867 36.06121,-53.55541 18.17536,-21.4878 20.93988,-25.9293 17.07557,-27.43326 -1.9596,-0.76263 -8.31854,0.82276 -11.33191,2.82524 -18.48543,12.28423 -61.49769,77.71054 -80.70497,122.76116 -10.87306,25.50272 -17.75069,37.57973 -20.06453,35.23301 -1.33208,-1.351 -0.3028,-9.74568 2.05469,-16.75786 1.31926,-3.92403 4.94994,-13.1872 8.06817,-20.58482 3.11823,-7.39762 6.88979,-17.13699 8.38123,-21.64302 3.61942,-10.93526 6.08022,-15.66617 15.34818,-29.50717 18.2248,-27.21732 20.69653,-31.23543 23.66875,-38.47647 1.71759,-4.18435 3.12282,-8.69125 3.12282,-10.01533 0,-5.89927 6.67593,-13.85911 18.19,-21.68824 4.25222,-2.89132 14.1353,-10.59088 21.9625,-17.11014 13.79481,-11.48969 35.82968,-27.1358 40.19503,-28.54101 4.87148,-1.5681 3.59221,0.84561 -8.47663,15.99357 -8.27552,10.38687 -10.47235,14.22803 -8.99457,15.72685 4.71405,4.781 97.73366,-57.91941 97.73366,-65.87794 0,-0.97203 -1.41703,-1.39688 -4.65908,-1.39688 -6.03966,0 -5.63744,-1.10593 2.95319,-8.12031 3.73364,-3.0486 6.78848,-6.12602 6.78848,-6.83873 0,-1.76705 -3.33613,-2.53352 -11.18171,-2.56899 -3.63401,-0.0164 -7.29348,-0.4955 -8.13215,-1.06462 -2.01783,-1.36937 -0.51891,-2.52449 13.02121,-10.03454 13.35721,-7.4086 21.39878,-15.82159 17.47436,-18.28147 -1.94261,-1.21767 -1.00009,-2.57733 1.77891,-2.56624 1.53746,0.007 5.08007,0.71399 7.87241,1.57299 8.20973,2.52555 12.7121,0.40191 12.7121,-5.9959 0,-1.36697 0.80052,-3.19454 1.7789,-4.06128 4.56425,-4.0433 8.6052,-4.41396 48.12225,-4.41396 31.02733,0 38.53078,-0.268 39.91097,-1.42549 2.45672,-2.06042 1.06263,-3.31147 -11.00686,-9.87745 -16.24243,-8.8361 -17.66889,-10.6922 -9.89935,-12.88069 8.61252,-2.42593 14.20752,-1.44553 38.51183,6.74841 27.58914,9.30136 47.17713,17.01591 54.42613,21.43525 4.79366,2.92241 5.45789,3.7947 7.26006,9.53483 3.52586,11.23031 2.04028,11.67029 -18.5043,5.48055 -21.45749,-6.46481 -28.48644,-5.92077 -33.68313,2.60709 -4.62573,7.59101 -11.94638,9.01985 -28.54279,5.57105 -10.17918,-2.11526 -14.34715,-2.40616 -33.48169,-2.33679 -22.91917,0.0831 -36.44546,1.43291 -61.4994,6.13722 -18.34003,3.44367 -20.72795,4.2307 -22.09961,7.28399 -1.79972,4.00613 0.46362,14.69772 5.25557,24.82638 5.17294,10.93384 5.27557,13.91654 0.63178,18.35843 -1.92813,1.84432 -3.22423,3.63885 -2.88008,3.98784 1.18047,1.19728 17.8543,0.63363 30.91413,-1.04505 14.57851,-1.87388 15.78548,-1.57502 16.3279,4.04308 0.79792,8.26551 19.54115,11.94527 31.2512,6.13538 3.53245,-1.75263 3.61629,-1.93229 3.34265,-7.16885 -0.24966,-4.7796 0.008,-5.56129 2.31701,-7.09737 1.99856,-1.32809 3.85602,-1.57618 8.05416,-1.07577 21.37161,2.5475 99.61487,33.26373 118.76552,46.62422 5.46984,3.816 8.59755,4.44017 9.55608,1.90697 1.1263,-2.97696 -1.54193,-6.47593 -9.01033,-11.81554 -9.7751,-6.98881 -40.65174,-22.35057 -68.05204,-33.85728 -12.10268,-5.08249 -23.30984,-9.95801 -24.90471,-10.83449 l -2.89994,-1.59359 5.0826,-0.0211 c 6.40066,-0.0266 24.35311,2.37527 33.03686,4.42008 13.67324,3.21972 24.03482,7.81357 33.1225,14.68503 6.01462,4.54781 10.52227,7.09841 14.48791,8.19781 3.16626,0.87777 7.3579,2.31797 9.31465,3.20044 5.28858,2.38501 18.69045,11.4463 31.69132,21.42707 6.33088,4.86026 18.0707,13.88097 26.08835,20.04603 13.82295,10.62889 26.37777,18.70268 31.41986,20.20567 4.44106,1.32381 2.45575,-3.18906 -4.93287,-11.21316 -12.5863,-13.66868 -39.41768,-36.56944 -59.02681,-50.37972 -11.1413,-7.84661 -16.14428,-10.51233 -21.62592,-11.5229 -5.403,-0.99608 -12.20587,-4.67323 -18.35345,-9.9206 -10.66711,-9.10509 -35.96786,-19.06717 -63.02417,-24.81557 -10.80836,-2.29634 -18.87668,-3.25219 -33.54513,-3.97408 -25.11582,-1.23604 -34.99996,-4.01486 -35.89393,-10.09126 -0.51346,-3.48936 3.29433,-4.77992 14.03878,-4.75812 35.88116,0.0727 111.52692,21.71497 142.42348,40.74729 39.50047,24.33229 125.91201,107.57327 139.30011,134.18904 2.3272,4.62659 2.1862,10.35895 -0.2664,10.82952 -2.5948,0.49785 -6.986,-3.8818 -23.9431,-23.88014 -8.7152,-10.27818 -17.00865,-19.69644 -18.43007,-20.92947 -4.18326,-3.62885 -10.72126,-4.81673 -18.20618,-3.30782 -9.72337,1.96014 -11.78381,0.70783 -36.36575,-22.10196 -13.79417,-12.79978 -27.63988,-23.38087 -30.59463,-23.38087 -0.79182,0 -1.43963,0.83703 -1.43963,1.86007 0,3.80733 6.69025,12.43879 19.73429,25.46035 18.33792,18.30634 22.55477,24.20974 26.49911,37.09812 2.8591,9.34204 4.87904,10.15359 16.93309,6.8032 16.34042,-4.54177 22.21337,-1.42864 52.18397,27.66154 21.7728,21.13327 32.4682,29.16738 36.6581,27.53673 2.9035,-1.13 1.2756,-8.30659 -3.4141,-15.05107 -6.9486,-9.99302 -9.1487,-20.16042 -5.3831,-24.87676 l 1.9152,-2.39875 3.4761,3.57323 c 1.9118,1.96529 6.3744,8.87321 9.9169,15.35094 6.345,11.60267 13.3069,20.69753 15.8434,20.69753 3.988,0 35.5464,39.0066 48.537,59.99227 8.7087,14.06828 9.7862,18.13575 4.0363,15.23691 -4.8568,-2.44871 -28.839,-27.8067 -38.8821,-41.11269 -16.3696,-21.68827 -17.2423,-22.73608 -21.6075,-25.94308 -2.9581,-2.17328 -5.1748,-3.0234 -7.3262,-2.80963 -2.674,0.26567 -3.1278,0.76056 -3.4077,3.71583 -0.363,3.8339 3.8067,13.73237 9.0254,21.42525 1.7809,2.62517 9.4713,12.96427 17.0898,22.97577 14.9273,19.61592 24.9857,34.30271 26.0397,38.0221 0.8538,3.01234 -1.5343,4.01433 -5.5484,2.32801 -4.6923,-1.97122 -19.6514,-18.44728 -35.0744,-38.63119 -31.9457,-41.80698 -55.4532,-66.3206 -89.98942,-93.8414 -6.98853,-5.56896 -13.3926,-10.63505 -14.23127,-11.25801 -0.83858,-0.62295 1.44858,2.2331 5.0826,6.34677 21.73887,24.60793 28.46249,34.23017 28.46249,40.73275 0,3.6647 -2.2971,3.6934 -7.64199,0.0955 -8.45361,-5.69059 -17.27903,-14.08978 -51.31607,-48.8377 -19.2884,-19.69131 -39.64423,-39.7362 -45.23509,-44.54417 -19.88945,-17.10435 -36.25362,-28.27508 -47.2774,-32.27314 -6.18922,-2.24466 -14.48572,-2.25841 -17.83966,-0.0296 -5.13082,3.40959 -8.57536,16.13747 -5.14798,19.02233 0.99082,0.83402 5.52686,0.97818 15.53363,0.49371 12.87775,-0.62347 14.55054,-0.4975 18.81821,1.41712 18.48649,8.29359 58.81008,45.10542 73.27027,66.88914 5.88264,8.86189 5.52336,10.03011 -6.01909,19.57256 -5.80099,4.79587 -10.62157,9.68838 -11.75958,11.93505 l -1.92863,3.80746 4.69112,13.67588 c 2.58009,7.52174 4.55547,14.78579 4.38982,16.14234 l -0.30122,2.46647 -2.85975,-2.29189 c -4.82147,-3.86404 -29.25891,-31.10542 -32.81193,-36.57672 -4.20546,-6.47592 -5.00989,-9.70097 -3.08607,-12.37151 1.35653,-1.88294 2.98369,-2.10667 18.7455,-2.5774 15.40051,-0.45994 17.50129,-0.73701 19.49903,-2.5717 4.9624,-4.55723 0.89348,-13.01996 -14.84621,-30.87833 -10.5744,-11.99774 -29.53305,-26.88296 -43.38593,-34.06408 -12.49318,-6.4763 -16.41572,-6.02098 -17.67393,2.05157 -1.11419,7.14838 -3.0006,7.03917 -18.11697,-1.04885 -16.60951,-8.88693 -36.28021,-14.302 -63.54422,-17.49288 -17.29196,-2.02377 -24.87901,-3.50558 -27.1617,-5.30488 -1.6984,-1.33873 -1.67084,-1.52547 0.50158,-3.395 5.37764,-4.6279 28.3386,-5.72493 44.40952,-2.12181 11.59287,2.59915 22.06,2.63511 27.49749,0.0944 6.74432,-3.15124 15.74237,-13.33699 15.75222,-17.83135 0.008,-2.71076 -3.68647,-3.26184 -7.8799,-1.17607 -3.59221,1.78669 -5.68909,4.31069 -9.60398,11.5602 -2.21057,4.0936 -6.01056,4.22003 -14.53265,0.4835 -17.10134,-7.49812 -26.95662,-9.42621 -53.94844,-10.5545 -20.96315,-0.87629 -26.2645,-2.20127 -28.38048,-7.09325 -1.35408,-3.13041 -2.28847,-3.32976 -16.32603,-3.48327 -12.73958,-0.13932 -20.32688,1.65888 -24.96619,5.91703 -3.77714,3.46682 -2.20795,5.06373 5.69755,5.79836 2.79721,0.25994 3.09697,0.67473 3.72388,5.15293 0.6857,4.89823 2.8791,8.92106 6.84727,12.55813 2.80486,2.57081 2.73866,6.35718 -0.14443,8.26562 -1.25796,0.83268 -6.63275,2.74926 -11.9441,4.25908 -18.04443,5.12937 -38.65439,16.46853 -60.99113,33.55597 -15.10824,11.55773 -25.40826,21.94293 -32.04426,32.30921 -2.9253,4.56976 -9.17664,13.52796 -13.89182,19.90711 -13.2141,17.87724 -29.28632,48.16256 -29.28632,55.18507 0,3.35544 2.15925,5.04668 6.6064,5.17453 5.46073,0.15698 8.52249,-3.4998 9.6392,-11.51274 0.54965,-3.94384 2.1438,-8.68024 4.13837,-12.29546 17.88748,-32.42236 72.75584,-88.81959 99.03765,-101.79725 18.93693,-9.35084 51.83319,-14.94688 87.43998,-14.87454 30.98552,0.063 44.03071,4.46286 36.5889,12.34077 -5.42162,5.73939 -16.50151,6.50736 -37.09716,2.57131 -28.84393,-5.51241 -53.78938,-1.6429 -82.01348,12.72182 -38.3013,19.49354 -68.50996,51.25215 -90.33145,94.96622 -10.45802,20.95032 -15.32398,24.9375 -28.51433,23.36521 -6.84898,-0.8164 -11.15772,0.8458 -15.22704,5.87417 -3.14259,3.8833 -3.8836,5.72495 -13.14335,32.66541 -5.74781,16.7228 -12.01427,31.95974 -13.14399,31.95974 -0.31585,0 -0.57438,-0.86777 -0.57438,-1.92838 z m 78.78022,-210.3169 c 13.03933,-6.32586 32.1032,-20.21583 59.0517,-43.02528 15.12384,-12.80091 20.74503,-18.34888 20.74503,-20.47481 0,-2.95695 -14.23802,5.18149 -42.41779,24.24596 -14.10489,9.54238 -29.65763,19.27547 -34.56165,21.62909 -4.904,2.35361 -10.05996,4.83147 -11.45771,5.50633 -3.07688,1.48565 -5.69738,8.33078 -4.71258,12.31008 0.56673,2.29036 1.25309,2.76901 3.96955,2.76833 1.80639,-4.3e-4 6.02894,-1.33231 9.38345,-2.9597 z M 346.78789,658.09568 c -3.40348,-6.44981 3.37107,-19.81102 11.87568,-23.42196 5.9423,-2.52301 13.50153,-1.60616 13.50153,1.63758 0,4.07947 -10.98328,17.67637 -17.56758,21.74803 -4.13721,2.5584 -6.47304,2.56928 -7.80963,0.0364 z m 87.70342,-11.91664 c -2.90595,-2.06431 -6.41768,-7.94525 -6.41768,-10.74738 0,-3.15277 2.68198,-8.06047 5.13151,-9.39004 4.81135,-2.61153 8.09319,1.71736 8.06826,10.64239 -0.015,5.332 -1.58215,10.04092 -3.56178,10.70155 -0.56949,0.19006 -2.01864,-0.35287 -3.22031,-1.20652 z m -23.6578,-3.65692 c -0.0695,-6.23369 3.01585,-26.76543 5.72039,-38.06675 5.33513,-22.29358 13.48271,-41.46315 21.64247,-50.92022 2.69877,-3.12786 5.59025,-7.68862 6.42553,-10.13503 5.48505,-16.06515 9.10733,-25.11814 16.47624,-41.17839 10.23542,-22.30765 14.06862,-29.32482 21.7839,-39.87823 12.68514,-17.3515 29.48304,-33.31973 57.18952,-54.36478 36.20897,-27.5033 76.07937,-53.05288 82.78961,-53.05288 2.9214,0 1.21706,4.11294 -3.42786,8.27233 -5.82034,5.21196 -23.94936,17.48966 -35.8323,24.26716 -18.71858,10.67622 -26.72322,16.8198 -50.72697,38.9328 -43.06715,39.67487 -57.75783,64.98494 -106.3253,183.18447 -7.10393,17.28897 -13.53685,32.59431 -14.29539,34.01188 l -1.37915,2.5774 -0.0407,-3.64976 z m -27.4867,-16.99207 c 0,-6.45769 9.97187,-25.35186 17.85284,-33.82663 3.72492,-4.00557 5.03362,-2.33736 4.9606,6.32327 -0.0435,5.16396 -0.72594,8.38319 -2.70436,12.75766 -4.1292,9.1301 -13.45486,18.3767 -18.53382,18.3767 -1.12449,0 -1.57526,-1.03904 -1.57526,-3.631 z m 563.20951,-3.1789 c -8.49533,-7.24991 -11.65784,-18.49717 -11.70981,-41.6452 -0.0406,-17.97901 0.72758,-21.65015 4.52904,-21.65015 6.10131,0 16.27138,33.16805 16.27138,53.06641 0,13.12524 -2.45705,15.88998 -9.09061,10.22894 z M 339.10031,608.28412 c 0.89698,-18.5883 2.61101,-27.18451 8.37693,-42.0116 7.8783,-20.25914 15.87091,-35.35093 27.18547,-51.3321 7.90165,-11.16062 10.43694,-16.70725 11.66866,-25.52836 1.44667,-10.36045 4.25465,-14.95177 13.79135,-22.55022 7.00565,-5.58181 9.6426,-8.8834 9.64853,-12.08037 0.0195,-10.49144 -19.84014,4.28382 -33.40664,24.8541 -7.02444,10.65083 -8.73663,15.19212 -7.84943,20.81917 0.56459,3.58095 0.27922,4.44453 -2.34986,7.11096 -2.09604,2.12582 -4.00561,3.04179 -6.37439,3.05765 -4.38952,0.0294 -11.55542,3.35201 -12.95679,6.00769 -0.60419,1.14498 -1.09853,3.07585 -1.09853,4.29079 0,3.08521 -5.35487,8.23615 -8.56222,8.23615 -2.23767,0 -2.61949,-0.45457 -2.61949,-3.11861 0,-6.48087 11.09228,-25.19428 29.31735,-49.46032 16.83855,-22.41993 29.7231,-37.67143 59.66075,-70.62072 23.80805,-26.20305 31.82503,-35.725 37.28572,-44.28514 6.17231,-9.67568 6.12419,-12.90252 -0.21548,-14.44783 -1.90806,-0.46509 -3.49085,0.17867 -6.35195,2.58353 -5.48911,4.61377 -25.22317,27.28876 -52.05883,59.81703 -33.96721,41.17261 -52.05934,58.88509 -61.6331,60.33975 -2.4179,0.36738 -4.46029,-0.10642 -6.76685,-1.56985 -4.89238,-3.10403 -4.59258,-3.82147 4.32021,-10.33862 8.49344,-6.21052 36.1159,-34.61277 65.70828,-67.56326 31.60103,-35.1871 41.55554,-44.84575 51.40502,-49.87722 5.44878,-2.78344 6.5066,-2.74604 11.06479,0.39117 7.17667,4.93941 11.60637,2.94589 25.26851,-11.37167 10.94514,-11.47027 15.7462,-12.67217 15.78825,-3.95247 0.0406,8.39243 -28.19386,41.85298 -69.4472,82.30219 -22.13889,21.70735 -28.41103,29.63671 -26.80346,33.88548 2.17897,5.75898 16.97086,-4.34373 43.39974,-29.64156 24.5713,-23.51975 42.49371,-45.25204 45.3262,-54.96152 2.39064,-8.19488 6.82015,-10.83183 21.24983,-12.65041 10.23529,-1.28994 22.65813,-5.54893 36.4209,-12.48631 22.61584,-11.39997 35.23409,-22.10055 33.58822,-28.48371 -1.67709,-6.50436 34.91792,-21.35727 81.97388,-33.27097 13.68169,-3.46395 27.446,-9.42412 27.446,-11.88456 0,-2.32744 -8.98879,-1.91268 -23.18247,1.06971 -17.96564,3.77493 -22.46955,3.36357 -21.15897,-1.93251 1.54877,-6.25838 11.86212,-8.3103 41.29189,-8.21534 60.3839,0.19485 159.10399,15.84518 214.20566,33.95853 12.90857,4.24339 35.48692,15.30084 57.64475,28.23076 24.42028,14.25019 27.00614,15.38329 27.00614,11.83388 0,-4.5792 -20.93931,-22.05912 -40.6122,-33.90264 -40.99564,-24.68026 -86.02132,-40.20487 -131.68775,-45.40523 -15.92901,-1.81394 -29.84247,-4.41723 -47.48883,-8.88538 -20.56589,-5.20738 -22.21802,-7.12693 -6.13254,-7.12509 18.81983,0.002 43.58272,3.4227 89.7078,12.39151 14.8158,2.88087 32.64579,6.13082 39.62228,7.22214 13.96379,2.18434 17.20218,3.76654 18.55626,9.06615 1.16656,4.56584 4.60768,6.45642 13.61672,7.48109 6.38903,0.72668 10.14396,2.02459 21.10147,7.29375 9.47265,4.5551 14.8672,6.54039 18.64385,6.86123 4.98477,0.42346 5.53637,0.22627 8.89454,-3.17958 4.13764,-4.19638 4.25336,-4.7631 1.65099,-8.07978 -2.1399,-2.72724 -3.20578,-3.32304 -21.60802,-12.07794 -14.22875,-6.7694 -23.70904,-12.70833 -25.39923,-15.91135 -1.068,-2.02385 -0.89705,-2.07825 4.85497,-1.5447 15.25641,1.41517 63.47271,24.3574 74.87691,35.62789 3.0426,3.00697 3.7943,4.46652 3.5578,6.90854 -0.3256,3.36122 -1.3465,3.56113 -10.2024,1.99762 -3.4182,-0.60348 -4.1716,-0.29795 -7.4402,3.01708 -3.86355,3.91838 -4.53754,8.49146 -1.46285,9.92486 9.77535,4.55717 14.27035,7.60195 23.37995,15.83665 16.0021,14.46529 37.6112,40.21915 37.6112,44.82532 0,1.28474 -1.6805,1.41425 -10.9276,0.84224 -24.7138,-1.52878 -39.9941,-5.42572 -51.7226,-13.19094 -36.15806,-23.93954 -86.48518,-45.71649 -138.81923,-60.06815 -36.31705,-9.95928 -61.61992,-14.46429 -95.86237,-17.06769 -19.2919,-1.46672 -35.38868,-3.91969 -41.87619,-6.38148 -7.64577,-2.90128 -9.6401,-2.35813 -10.93839,2.97898 -1.51372,6.22299 -4.24499,8.48182 -12.33525,10.20178 -8.86641,1.88496 -11.59734,4.31588 -11.59734,10.3233 0,8.38187 2.0967,8.37567 38.62771,-0.11434 30.60665,-7.11316 34.6824,-7.63878 37.45197,-4.82993 1.72133,1.74581 1.92155,2.67894 1.15583,5.38688 -1.45705,5.15261 -3.73445,7.97393 -8.37458,10.37477 -3.94271,2.04 -5.68811,2.20861 -21.07788,2.03613 -25.70313,-0.28807 -44.16856,2.27479 -55.47477,7.69947 -6.32274,3.0336 -7.63707,4.94663 -8.68733,12.64413 -0.41312,3.02756 -1.54202,6.39106 -2.50877,7.47445 -3.93312,4.40783 -12.94419,0.82963 -21.34763,-8.47687 -9.75468,-10.80302 -13.46904,-11.64824 -20.3812,-4.63788 -6.90908,7.00729 -5.73301,11.95138 4.34574,18.26887 3.97003,2.48849 4.40006,5.39014 1.12174,7.56871 -1.25958,0.83705 -7.71057,3.41747 -14.33544,5.73428 -13.84539,4.84191 -21.09211,8.40092 -36.74162,18.04454 -60.104,37.03756 -147.7261,120.13988 -165.19944,156.67805 -6.05441,12.66031 -11.19234,37.28191 -8.17453,39.17351 2.0377,1.27725 5.5646,-3.07674 11.70297,-14.44739 6.54086,-12.11623 9.14971,-15.79517 10.34451,-14.58752 1.89681,1.91719 -8.36948,32.29227 -13.56713,40.14132 -4.11806,6.21874 -5.91802,6.17778 -11.48636,-0.26143 -5.7978,-6.70456 -7.50063,-6.43502 -13.20938,2.09091 -4.68137,6.99154 -7.46454,9.26578 -11.3393,9.26578 -3.39966,0 -4.15207,-1.14131 -4.08332,-6.19384 0.056,-4.11508 1.61312,-7.74362 7.71282,-17.97305 3.82217,-6.40996 4.51584,-9.36594 2.38167,-10.14941 -1.95833,-0.71891 4.45202,-12.68253 12.999,-24.25999 16.68473,-22.60055 64.00591,-78.20468 89.91507,-105.65351 10.23389,-10.84207 11.77459,-12.09791 14.18369,-11.56126 3.0407,0.67734 4.2658,-0.15744 19.53986,-13.3142 16.62212,-14.31798 40.22446,-31.1798 58.78813,-41.99909 10.53837,-6.14198 15.79028,-8.46441 21.52336,-9.51786 7.10116,-1.30483 12.85905,-11.73228 8.7689,-15.88049 -5.02379,-5.09518 -25.19844,4.34458 -62.59324,29.28749 -45.3583,30.25464 -86.36459,63.80758 -107.30674,87.80248 -23.05431,26.41496 -43.28845,56.99116 -59.49002,89.89651 -14.07416,28.58463 -19.48793,48.14006 -16.41191,59.28259 1.27579,4.62143 1.23786,4.78032 -2.50665,10.50009 -4.67397,7.13951 -20.60393,24.0648 -22.64963,24.0648 -1.27778,0 -1.39149,-2.12741 -0.78522,-14.69117 z M 653.27314,299.72586 c 6.75058,-1.77172 15.37855,-6.65845 19.54676,-11.0709 4.04298,-4.27992 2.00474,-5.03304 -12.50269,-4.61969 -10.54846,0.30054 -12.91557,0.69728 -17.22251,2.88654 -2.74631,1.39596 -5.43,3.27817 -5.96372,4.1827 -1.68091,2.84891 0.13126,7.12257 3.68468,8.68951 4.1966,1.85061 5.16676,1.84531 12.45748,-0.0681 z m 458.51406,264.42657 c -11.7665,-12.5488 -17.8922,-20.53129 -17.8931,-23.31674 -4e-4,-1.54897 -4.4543,-6.47984 -14.4341,-15.97987 -7.9385,-7.55679 -30.467,-29.77383 -50.0636,-49.37119 -35.53397,-35.53552 -45.08729,-43.97101 -70.19165,-61.97838 -19.41649,-13.92747 -29.11083,-20.32478 -51.33421,-33.87562 -26.70419,-16.28303 -33.73517,-20.84554 -40.91489,-26.55042 -5.66826,-4.50392 -7.39171,-7.43301 -4.3733,-7.43301 4.1931,0 22.85899,8.33903 53.42034,23.86568 35.58687,18.07987 48.44705,25.6461 51.42513,30.25576 1.69351,2.62137 1.69026,2.89366 -0.0708,5.91734 -1.7811,3.05808 -1.78135,3.2175 -0.008,4.53388 3.14007,2.32869 9.30367,-0.006 16.81356,-6.36979 4.08103,-3.45806 4.8814,-3.73956 9.38434,-3.30074 9.20839,0.89738 34.06479,15.48707 55.76089,32.72943 11.2867,8.96968 28.8099,26.73738 34.7726,35.25768 5.3725,7.67679 7.3625,8.83064 11.5396,6.69074 6.4038,-3.28062 8.6841,1.49844 9.2537,19.39366 l 0.4266,13.40247 -2.4005,-2.14156 c -1.3205,-1.17786 -7.6612,-6.78753 -14.0908,-12.46593 -6.4294,-5.67841 -20.7003,-20.05134 -31.713,-31.93984 -21.1596,-22.84237 -30.3206,-31.62771 -39.4297,-37.81273 -6.1604,-4.18295 -11.9503,-5.04457 -14.3328,-2.13295 -4.36879,5.3388 25.3281,44.33995 38.6394,50.74539 4.3488,2.09266 10.7961,8.00388 30.4998,27.96377 25.3829,25.71298 35.7269,34.75898 40.9603,35.82054 1.7537,0.35573 3.464,1.67598 4.3032,3.32195 2.0036,3.92962 3.7831,17.90073 3.4119,26.7871 l -0.3187,7.6287 -9.044,-9.64531 z M 710.58773,444.69861 c -3.31142,-3.35844 -3.68996,-5.98913 -1.4842,-10.31516 4.89287,-9.59624 18.01344,-1.57934 14.14563,8.64323 -0.71107,1.87939 -5.52417,4.68551 -8.03668,4.68551 -0.90933,0 -2.99051,-1.35611 -4.62475,-3.01358 z m 361.89907,-15.83486 c -3.042,-1.86122 -11.7064,-7.81946 -19.2541,-13.24053 -16.6958,-11.99177 -30.6347,-21.45067 -67.0902,-45.52766 -39.59171,-26.14825 -59.22695,-41.09325 -57.5675,-43.81644 1.03221,-1.69388 5.33315,-0.1754 19.70404,6.95673 16.81249,8.34389 31.70384,17.21551 54.12776,32.24715 18.749,12.5682 33.0393,20.22245 39.36,21.08228 3.6347,0.49444 4.5567,0.20067 6.6869,-2.13049 2.9696,-3.24974 4.0937,-3.33937 7.8509,-0.626 8.0058,5.78158 27.0752,41.46882 25.0372,46.85537 -0.8833,2.33458 -2.7004,1.96513 -8.855,-1.8004 z m -729.2889,-0.7339 c -0.8493,-1.39373 3.70269,-10.35561 9.41308,-18.53234 17.08689,-24.46677 51.98062,-63.74785 75.06092,-84.49869 25.51563,-22.94036 36.96198,-36.40808 36.98688,-43.51854 0.01,-2.83507 -1.55916,-3.9764 -5.46668,-3.9764 -3.69054,0 -14.35627,9.76096 -52.97362,48.47993 -33.85901,33.9481 -51.39594,50.49218 -53.52236,50.49218 -1.83737,0 -0.70158,-3.93007 2.95055,-10.20944 6.63845,-11.41399 24.48381,-33.03865 41.36605,-50.12659 15.41417,-15.60197 19.97925,-19.20993 25.97832,-20.53165 5.19767,-1.14515 5.87933,-2.55477 4.52458,-9.35649 -0.92325,-4.63527 2.52933,-8.2831 12.33238,-13.02981 8.70318,-4.21415 15.67164,-10.50127 15.67164,-14.13934 0,-4.22987 3.74848,-7.07415 11.68235,-8.86433 17.1419,-3.86789 73.25561,-36.32404 77.84824,-45.02742 1.13321,-2.14757 1.03473,-2.19509 -3.14478,-1.51726 -11.52018,1.86833 -43.53568,16.50119 -64.53065,29.49412 -29.77466,18.42633 -45.6359,31.33949 -77.25543,62.89617 -26.25993,26.20772 -32.39639,31.95694 -34.10942,31.95694 -1.95538,0 3.49986,-9.01573 17.09088,-28.24563 10.90362,-15.42749 13.55711,-19.82635 12.74892,-21.13467 -1.57065,-2.54262 -4.96537,-2.54011 -9.43385,0.007 -4.77436,2.72145 -5.85421,2.15576 -4.09718,-2.14636 2.71979,-6.65942 12.58454,-12.97355 22.73172,-14.5499 10.30067,-1.60019 14.71936,-3.70437 16.70846,-7.95658 2.42509,-5.18422 13.11162,-12.12974 39.78683,-25.85875 25.18678,-12.96296 53.39659,-25.89959 76.8202,-35.2287 18.60319,-7.40923 23.46459,-11.14693 25.8804,-19.89796 1.27651,-4.62398 0.9326,-14.57772 -0.55323,-16.00978 -0.36139,-0.34838 -1.86226,0.98894 -3.33524,2.9718 -5.29378,7.12642 -13.97558,15.02108 -20.17562,18.34634 -3.47365,1.86306 -11.70745,5.16663 -18.29734,7.34126 -15.85599,5.23244 -33.76075,13.375 -66.39188,30.19309 -25.23757,13.00703 -42.21166,20.41303 -46.78637,20.41303 -2.8867,0 -2.5035,-3.55648 0.65466,-6.07598 1.5345,-1.22419 3.99607,-2.04988 5.8952,-1.97748 4.33974,0.16547 8.22456,-2.57552 12.25662,-8.64786 5.65119,-8.51075 19.54071,-18.1559 44.13512,-30.64827 23.76773,-12.07246 46.46626,-20.69068 60.1103,-22.82279 4.19319,-0.65525 8.9204,-1.8682 10.50503,-2.69545 2.72728,-1.42378 2.84544,-1.76727 2.21284,-6.43237 -0.63349,-4.67101 -0.49199,-5.07943 2.70971,-7.82383 6.532,-5.59905 18.68981,-9.7534 28.60371,-9.77393 3.25148,-0.007 6.77864,0.45827 7.83809,1.03332 1.05946,0.57506 4.05917,4.4025 6.66609,8.50542 6.9673,10.9656 28.6107,32.44394 36.92558,36.64393 3.58351,1.81013 7.12864,3.29116 7.87802,3.29116 2.57732,0 5.42846,-4.02242 5.42846,-7.65856 0,-3.45141 1.99132,-6.60098 4.39282,-6.94799 0.65895,-0.0952 10.57546,-0.22253 22.03666,-0.28294 15.8085,-0.0833 22.67895,-0.53965 28.46254,-1.89043 8.78369,-2.05145 46.84801,-13.37213 46.42042,-13.80584 -0.15719,-0.15943 -11.46665,0.89628 -25.132,2.34604 -29.39773,3.11876 -51.94858,3.14847 -57.62897,0.076 -5.39406,-2.91767 -4.17302,-5.30057 5.33672,-10.41494 4.91824,-2.64502 4.96752,-2.71547 1.52478,-2.17807 -9.0567,1.4137 -21.32868,1.75517 -26.06387,0.72522 -12.40909,-2.69914 -22.72904,-8.42885 -22.72904,-12.61941 0,-2.92437 2.18235,-3.2469 58.44983,-8.63806 20.68616,-1.98201 39.69263,-3.81579 42.23653,-4.07506 6.85451,-0.69859 12.48375,2.20149 15.97049,8.22775 3.58961,6.2039 8.31414,11.45079 11.01069,12.22799 2.94253,0.84812 7.52947,-2.96367 7.52947,-6.25712 0,-2.36358 -5.33135,-8.63022 -7.34219,-8.63022 -0.4345,0 -0.78996,-0.69589 -0.78996,-1.54643 0,-1.17895 1.26821,-1.54512 5.33672,-1.54085 17.45177,0.0183 82.81791,13.6128 128.33551,26.69057 21.38691,6.14472 66.68421,25.50789 74.61867,31.8971 3.39517,2.73393 2.23781,5.32622 -2.37784,5.32622 -11.59889,0 -36.61046,-7.21618 -73.26011,-21.13656 -40.75964,-15.48148 -49.45365,-17.57457 -69.52005,-16.73714 -14.27982,0.59594 -22.9891,2.75508 -41.786,10.35924 l -10.67345,4.31787 28.46253,0.65434 c 17.25561,0.3967 33.26546,1.32695 40.66075,2.36257 29.07049,4.07101 54.49233,11.55547 82.34633,24.24364 20.19506,9.19937 37.71683,15.31436 46.29528,16.15678 7.78491,0.76447 11.12974,2.5779 11.12974,6.03404 0,3.27124 -3.54911,5.70496 -8.31959,5.70496 -4.76065,0 -15.73157,-3.64017 -28.27509,-9.38174 -8.59341,-3.93348 -10.5152,-4.42665 -17.45029,-4.47824 -6.95145,-0.0517 -8.08743,0.22046 -10.51585,2.51943 -1.49746,1.41757 -3.35321,3.80655 -4.12398,5.30883 -1.89967,3.70242 -0.61031,4.56558 7.97447,5.3388 11.13747,1.00312 19.6119,6.04808 20.27728,12.07141 0.43141,3.90498 -2.74192,3.70654 -23.68587,-1.48124 -31.54266,-7.81306 -60.40732,-12.75638 -98.01585,-16.78603 -26.98613,-2.8915 -96.15325,-2.66458 -129.09789,0.42353 -45.13897,4.23117 -56.4168,4.30593 -56.4168,0.37397 0,-1.01262 3.43079,-5.17 7.6239,-9.23862 4.19317,-4.06863 7.62389,-7.89975 7.62389,-8.51361 0,-1.30872 -3.26588,-1.00566 -18.4987,1.71658 -12.7874,2.28521 -16.74963,1.61649 -16.30504,-2.75187 0.47638,-4.68049 -2.93246,-6.56887 -11.8087,-6.54157 -11.75047,0.036 -19.59662,4.9753 -18.0206,11.34397 0.81402,3.28935 3.74071,3.99152 8.01692,1.9234 5.37405,-2.59913 6.80669,-1.51335 6.80669,5.15883 0,4.84627 0.3705,5.92337 2.66791,7.7562 2.08826,1.66593 3.52269,1.98977 6.60185,1.4904 4.21367,-0.68337 6.99454,0.72209 6.99454,3.53505 0,0.87832 -1.96017,3.5018 -4.35599,5.82998 -4.22855,4.10928 -10.11965,6.75002 -15.07579,6.75791 -3.7973,0.006 -8.89933,3.69229 -9.58211,6.92314 -1.57284,7.44285 -1.93285,7.72796 -8.86583,7.02162 -5.68365,-0.57904 -6.99829,-0.32417 -12.71844,2.46577 -7.7776,3.79341 -13.34478,7.60707 -24.62423,16.86808 -11.09893,9.11282 -20.37967,14.69312 -27.58511,16.58636 -8.03458,2.11108 -11.66773,4.23647 -17.62629,10.31139 -5.11599,5.21589 -10.08785,13.57748 -9.0682,15.25073 2.1312,3.49737 14.82512,-2.93594 42.08136,-21.32698 11.4613,-7.73343 25.03581,-16.1744 30.16573,-18.75773 13.53117,-6.81405 15.95349,-4.73731 8.23885,7.06336 -5.57004,8.52021 -22.51915,25.76702 -27.73113,28.21822 -2.36507,1.11229 -7.69643,2.18329 -12.74389,2.56008 -4.77276,0.35627 -9.34709,1.05641 -10.16516,1.55585 -0.81806,0.49944 -5.06186,4.18305 -9.43068,8.18578 -12.15237,11.13414 -15.08421,12.11299 -20.06935,6.70058 l -2.90707,-3.15624 -7.36147,2.69315 c -15.5168,5.67674 -20.67762,9.24268 -36.53313,25.24309 -8.16184,8.23642 -22.06938,23.32608 -30.90565,33.53258 -18.25153,21.08176 -33.29242,37.01292 -40.49591,42.89285 -5.17003,4.22011 -6.25415,4.66579 -7.27489,2.99073 z M 482.41156,275.56043 c 33.21175,-13.38055 92.02289,-50.96599 87.27803,-55.77826 -2.47974,-2.51498 -22.60145,4.85736 -43.01363,15.75968 -31.01439,16.56505 -57.94157,35.93757 -57.94157,41.68558 0,2.31358 5.4439,1.65006 13.67717,-1.667 z m 403.09557,-59.68644 c 3.74867,-2.71596 6.55394,-8.45908 5.73943,-11.75037 -1.49364,-6.03565 -12.38373,-9.97079 -47.92496,-17.31776 l -25.41298,-5.25327 -25.41297,0.009 c -52.57013,0.0201 -128.49125,7.17171 -140.02548,13.19011 -3.18333,1.66103 -3.63556,3.9103 -1.01651,5.0564 3.5004,1.5318 28.80618,1.7445 64.80307,0.54468 77.77459,-2.59234 145.51029,3.49614 155.07768,13.93927 4.4896,4.90054 8.91048,5.39376 14.17272,1.58122 z M 610.08068,397.77195 c -0.95837,-1.17113 -0.79394,-2.45117 0.77752,-6.0542 5.04218,-11.56065 21.91395,-23.80791 24.2591,-17.60976 1.61391,4.26563 -7.96422,17.23921 -16.31277,22.09552 -5.9333,3.45137 -7.02277,3.64724 -8.72385,1.56844 z m 366.5616,-7.33089 c -6.5899,-2.45102 -17.35865,-8.33167 -37.13523,-20.27899 -32.51535,-19.64297 -50.60118,-32.42936 -48.65783,-34.40029 2.63189,-2.66932 48.2396,17.85033 76.99594,34.64172 19.81878,11.57255 23.94845,15.75818 19.74949,20.0168 -1.93488,1.96241 -5.71275,1.96957 -10.95237,0.0207 z M 691.86027,359.34549 c -4.26295,-1.03994 -3.83357,-2.34378 1.60334,-4.8682 8.36392,-3.88353 22.86143,-7.09407 28.83084,-6.38472 11.60255,1.37872 8.97025,7.99882 -4.30883,10.83681 -5.27808,1.12803 -22.10823,1.39609 -26.12535,0.41611 z m 204.55866,-39.54077 c -7.50695,-1.83744 -14.97788,-6.71208 -14.97788,-9.77279 0,-1.80073 5.15644,-4.59215 8.48289,-4.59215 5.19075,0 16.0919,4.26186 19.81529,7.74687 3.1038,2.90515 3.53578,3.7928 2.60042,5.34299 -1.30213,2.15802 -9.59871,2.8225 -15.92072,1.27508 z m -340.51806,-7.2308 c -2.59196,-1.53113 -2.19388,-5.72563 1.24268,-13.09301 5.40324,-11.58361 18.36825,-23.28492 34.24376,-30.90584 7.23306,-3.4722 8.76849,-3.82736 16.61016,-3.84202 4.75226,-0.009 9.15908,-0.3582 9.79306,-0.77625 2.10981,-1.39128 5.17172,-9.43563 7.41587,-19.48326 1.22031,-5.46357 2.76493,-10.66188 3.4325,-11.55181 1.28155,-1.70854 39.32595,-7.64983 64.23789,-10.03188 20.45131,-1.95554 35.83522,0.58368 37.59437,6.20522 1.39987,4.47312 -1.04685,5.53255 -11.14129,4.8243 -5.04478,-0.35395 -13.5258,-0.93775 -18.84683,-1.29732 -22.25257,-1.50377 -51.40259,5.11865 -60.90916,13.8376 -3.24229,2.97372 -4.3568,4.88586 -5.01298,8.6011 -0.46411,2.62752 -1.85812,6.2219 -3.0977,7.98754 -6.11815,8.71416 -24.36873,16.80036 -49.1604,21.7812 -7.89063,1.58531 -9.28757,3.72599 -8.33269,12.76928 0.623,5.90013 0.44401,7.06167 -1.51892,9.85757 -3.85407,5.48945 -11.77471,7.93862 -16.55032,5.11758 z m 416.01036,-78.11853 c -5.61777,-1.68062 -0.95878,-6.29334 6.38594,-6.32237 4.26491,-0.0168 10.89488,2.4091 10.89488,3.98657 0,0.55775 -0.80053,1.24974 -1.7789,1.53779 -3.57189,1.05155 -13.02731,1.5383 -15.50192,0.79801 z M 486.01521,158.46994 c 0,-2.75135 5.92855,-7.27008 17.62416,-13.43314 12.16431,-6.41001 19.47291,-12.37958 21.68112,-17.70878 1.20193,-2.90084 1.18128,-3.78117 -0.15012,-6.3923 -2.77046,-5.43361 -2.36686,-5.74257 6.98755,-5.34895 15.08847,0.63489 30.15784,-4.43099 70.2487,-23.615526 28.85319,-13.807005 35.80643,-16.435415 43.47887,-16.435415 4.79967,0 5.78317,0.385372 8.55046,3.350618 1.71987,1.842844 3.65541,4.394468 4.30126,5.670277 3.42348,6.762887 -5.52693,11.523825 -64.46698,34.291306 -39.99725,15.45019 -46.57396,18.11828 -75.94542,30.80972 -17.21907,7.44037 -25.27907,10.41675 -28.20841,10.41675 -3.03384,0 -4.10119,-0.41759 -4.10119,-1.60456 z m 413.72318,-11.13667 c -3.63401,-1.31348 -10.03808,-4.15164 -14.23126,-6.30701 -15.56185,-7.99916 -32.36003,-12.84222 -44.72684,-12.89516 -15.29178,-0.0655 -24.97351,-3.3782 -26.90855,-9.20715 -2.10533,-6.34155 -8.36539,-7.61459 -23.24446,-4.72697 -11.19471,2.1726 -16.74059,1.98718 -21.55076,-0.72051 -3.70184,-2.08382 -5.70227,-2.29813 -24.78582,-2.65542 -12.3033,-0.23034 -30.31471,0.25916 -44.21858,1.20175 -12.90279,0.87473 -28.57093,1.88611 -34.81797,2.24749 -12.12243,0.70129 -22.5019,-0.16624 -20.9402,-1.75018 1.24072,-1.25834 17.6327,-4.41345 36.36462,-6.99943 43.52002,-6.008009 102.15633,-10.394808 138.95894,-10.396028 19.00078,-6.27e-4 27.99583,1.198742 29.0056,3.867508 0.33399,0.882691 -0.64163,3.85806 -2.16795,6.61196 -3.3541,6.05164 -2.87073,8.42397 2.25708,11.07604 6.49287,3.35808 35.25003,8.72629 52.78035,9.8527 8.9874,0.57749 10.69011,1.43969 13.85027,7.0134 3.5226,6.21286 4.23489,10.58141 2.23105,13.68315 -1.36205,2.10824 -2.44778,2.53183 -6.4431,2.51375 -2.64279,-0.012 -7.77832,-1.09641 -11.41242,-2.40989 z M 669.72432,93.835359 c -2.86943,-2.193305 -4.90239,-8.881996 -5.11065,-16.814528 -0.34326,-13.072368 1.63554,-13.517074 36.90354,-8.293657 32.19413,4.768155 52.45083,6.320648 62.28308,4.77345 9.41533,-1.481596 11.9228,-3.105547 11.9228,-7.721837 0,-1.938055 -0.45744,-3.810467 -1.01652,-4.160911 -1.75972,-1.102994 -1.17339,-9.369236 0.84379,-11.895663 l 1.86023,-2.329985 6.18946,3.345793 c 10.01019,5.411193 17.63148,12.253555 20.9263,18.787693 3.4369,6.81569 3.01777,9.67906 -1.70929,11.677356 -4.46114,1.885873 -18.75649,3.380854 -44.37479,4.640654 -37.65488,1.85171 -63.796,4.517375 -76.38562,7.78922 -7.03903,1.829326 -10.13746,1.880181 -12.33233,0.202415 z"
       id="path3398"
       inkscape:connector-curvature="0" />
  </g>
  <g
     inkscape:groupmode="layer"
     id="layer4"
     inkscape:label="PowerShell Logo">
    <g
       id="g3344"
       style="fill:#012456;fill-opacity:1">
      <text
         transform="scale(0.93746068,1.0667114)"
         sodipodi:linespacing="76.999998%"
         id="text4145"
         y="984.99554"
         x="549.30811"
         style="font-style:normal;font-variant:normal;font-weight:normal;font-stretch:normal;font-size:868.82904053px;line-height:76.99999809%;font-family:'Comic Sans MS';-inkscape-font-specification:'Comic Sans MS';letter-spacing:0px;word-spacing:0px;fill:#012456;fill-opacity:1;stroke:none;stroke-width:1px;stroke-linecap:butt;stroke-linejoin:miter;stroke-opacity:1"
         xml:space="preserve"><tspan
           style="font-style:normal;font-variant:normal;font-weight:normal;font-stretch:normal;font-size:1050.46289063px;line-height:76.99999809%;font-family:'Comic Sans MS';-inkscape-font-specification:'Comic Sans MS';letter-spacing:-61.61736679px;fill:#012456;fill-opacity:1"
           y="984.99554"
           x="549.30811"
           id="tspan4147"
           sodipodi:role="line">&gt;</tspan></text>
      <text
         transform="scale(0.71381887,1.4009156)"
         sodipodi:linespacing="125%"
         id="text4156"
         y="585.19946"
         x="994.81171"
         style="font-style:normal;font-weight:normal;font-size:701.53466797px;line-height:125%;font-family:sans-serif;letter-spacing:0px;word-spacing:0px;fill:#012456;fill-opacity:1;stroke:none;stroke-width:1px;stroke-linecap:butt;stroke-linejoin:miter;stroke-opacity:1"
         xml:space="preserve"><tspan
           style="font-style:normal;font-variant:normal;font-weight:normal;font-stretch:normal;font-size:601.31536865px;font-family:'Comic Sans MS';-inkscape-font-specification:'Comic Sans MS';fill:#012456;fill-opacity:1"
           y="585.19946"
           x="994.81171"
           id="tspan4158"
           sodipodi:role="line">_</tspan></text>
    </g>
  </g>
  <g
     inkscape:groupmode="layer"
     id="layer3"
     inkscape:label="Title">
    <text
       xml:space="preserve"
       style="font-style:normal;font-weight:normal;font-size:218.75px;line-height:125%;font-family:sans-serif;letter-spacing:0px;word-spacing:0px;fill:#ffffff;fill-opacity:1;stroke:none;stroke-width:1px;stroke-linecap:butt;stroke-linejoin:miter;stroke-opacity:1;"
       x="74.434639"
       y="1449.7487"
       id="text3345"
       sodipodi:linespacing="125%"
       inkscape:export-xdpi="179.47813"
       inkscape:export-ydpi="179.47813"><tspan
         sodipodi:role="line"
         id="tspan3347"
         x="74.434639"
         y="1449.7487"
         style="font-style:normal;font-variant:normal;font-weight:bold;font-stretch:normal;font-size:180px;font-family:Consolas;-inkscape-font-specification:'Consolas Bold';fill:#ffffff;fill-opacity:1;stroke:none;stroke-opacity:1;">PowerForensics</tspan></text>
  </g>
</svg>
