<?xml version="1.0" encoding="UTF-8" standalone="no"?>
<!-- Created with Inkscape (http://www.inkscape.org/) -->

<svg
   xmlns:dc="http://purl.org/dc/elements/1.1/"
   xmlns:cc="http://creativecommons.org/ns#"
   xmlns:rdf="http://www.w3.org/1999/02/22-rdf-syntax-ns#"
   xmlns:svg="http://www.w3.org/2000/svg"
   xmlns="http://www.w3.org/2000/svg"
   xmlns:sodipodi="http://sodipodi.sourceforge.net/DTD/sodipodi-0.dtd"
   xmlns:inkscape="http://www.inkscape.org/namespaces/inkscape"
   width="1500"
   height="1500"
   viewBox="0 0 1500 1500"
   id="svg3347"
   version="1.1"
   inkscape:version="0.91 r13725"
   inkscape:export-filename="/Users/jaredatkinson/Desktop/Graphics/PowerForensics/powerforensic_square_white_lowres.png"
   inkscape:export-xdpi="200"
   inkscape:export-ydpi="200"
   sodipodi:docname="powerforensics_square_white.svg">
  <defs
     id="defs3349" />
  <sodipodi:namedview
     id="base"
     pagecolor="#ffffff"
     bordercolor="#666666"
     borderopacity="1.0"
     inkscape:pageopacity="1"
     inkscape:pageshadow="2"
     inkscape:zoom="0.24748737"
     inkscape:cx="-564.99363"
     inkscape:cy="569.28656"
     inkscape:document-units="px"
     inkscape:current-layer="layer3"
     showgrid="false"
     units="px"
     inkscape:window-width="1368"
     inkscape:window-height="849"
     inkscape:window-x="-8"
     inkscape:window-y="-8"
     inkscape:window-maximized="1" />
  <metadata
     id="metadata3352">
    <rdf:RDF>
      <cc:Work
         rdf:about="">
        <dc:format>image/svg+xml</dc:format>
        <dc:type
           rdf:resource="http://purl.org/dc/dcmitype/StillImage" />
        <dc:title />
      </cc:Work>
    </rdf:RDF>
  </metadata>
  <g
     inkscape:label="Background"
     inkscape:groupmode="layer"
     id="layer1"
     transform="translate(0,447.63805)"
     style="display:inline">
    <rect
       style="fill:#ffffff;fill-opacity:1;stroke:none;stroke-opacity:1"
       id="rect4149"
       width="1502.8572"
       height="1500"
       x="0.31600952"
       y="-447.7135"
       inkscape:export-xdpi="179.47813"
       inkscape:export-ydpi="179.47813" />
    <rect
       style="opacity:1;fill:#ffffff;fill-opacity:0"
       id="rect3356"
       width="1729.3812"
       height="1709.1781"
       x="-105.05586"
       y="-523.47601" />
  </g>
  <g
     inkscape:groupmode="layer"
     id="layer2"
     inkscape:label="Fingerprint" />
  <g
     inkscape:groupmode="layer"
     id="layer3"
     inkscape:label="Title">
    <text
       xml:space="preserve"
       style="font-style:normal;font-weight:normal;font-size:218.75px;line-height:125%;font-family:sans-serif;letter-spacing:0px;word-spacing:0px;fill:#012456;fill-opacity:1;stroke:none;stroke-width:1px;stroke-linecap:butt;stroke-linejoin:miter;stroke-opacity:1;"
       x="74.434639"
       y="1449.7487"
       id="text3345"
       sodipodi:linespacing="125%"
       inkscape:export-xdpi="179.47813"
       inkscape:export-ydpi="179.47813"><tspan
         sodipodi:role="line"
         id="tspan3347"
         x="74.434639"
         y="1449.7487"
         style="font-style:normal;font-variant:normal;font-weight:bold;font-stretch:normal;font-size:180px;font-family:Consolas;-inkscape-font-specification:'Consolas Bold';fill:#012456;fill-opacity:1;stroke:none;stroke-opacity:1;">PowerForensics</tspan></text>
    <g
       id="g3377"
       transform="matrix(0.81641243,0,0,0.80875061,343.34232,60.644528)">
      <g
         transform="translate(0,457.63805)"
         id="layer1-8"
         inkscape:label="Fingerprint">
        <path
           inkscape:connector-curvature="0"
           id="path3398"
           d="m 568.06728,1050.0634 c -7.53848,-1.4634 -5.37036,-7.2118 4.62495,-12.2625 7.83692,-3.96 25.193,-8.9758 34.81545,-10.0614 7.24154,-0.817 16.56435,0.9127 16.56435,3.0731 0,2.0609 -6.12549,6.4629 -13.81449,9.9275 -17.91144,8.071 -32.2817,11.2466 -42.19026,9.3233 z m -112.4001,-6.7954 c -5.60813,-3.2508 -7.84504,-18.3345 -3.51051,-23.6723 2.16381,-2.6646 2.61337,-2.7461 6.43586,-1.1672 4.89702,2.0226 11.29437,11.4007 11.29437,16.5566 0,6.986 -8.20836,11.7672 -14.21972,8.2829 z m 69.8068,-2.3607 c -3.73575,-1.4599 -4.88439,-7.5127 -2.35224,-12.3955 2.49514,-4.8116 12.83311,-11.755 22.65323,-15.2147 9.19244,-3.2386 21.16152,-4.5468 22.45818,-2.4545 3.19682,5.1579 -23.99362,27.5647 -36.9229,30.4271 -1.72357,0.3816 -4.34988,0.2185 -5.83627,-0.3624 z m 194.70286,-24.7432 c -1.13289,-1.2482 -2.4115,-4.0235 -2.84141,-6.1671 -0.62467,-3.1142 -0.15263,-4.525 2.34802,-7.0187 5.41298,-5.39755 16.84344,-6.94675 21.90773,-2.9692 3.16262,2.4841 1.68445,7.3862 -3.90903,12.964 -4.62957,4.6165 -6.24653,5.4605 -10.46082,5.4605 -3.2241,0 -5.71233,-0.8016 -7.04449,-2.2695 z m -53.23022,-1.8 c -0.71852,-0.8632 -1.67873,-3.0494 -2.13402,-4.8583 -1.21954,-4.845 1.7361,-6.9885 28.31551,-20.53655 35.13696,-17.91 58.01212,-33.8641 71.46207,-49.8407 7.38434,-8.7715 15.29998,-15.4285 19.63612,-16.5138 2.13212,-0.5336 3.81587,0.021 5.66559,1.8651 2.17453,2.1685 2.72429,4.5534 3.16413,13.7273 0.66768,13.925 -0.23637,15.7474 -8.81839,17.7777 -16.42866,3.8868 -40.13847,16.309 -65.52351,34.3298 -20.31794,14.42355 -29.18156,20.05365 -36.48507,23.17555 -6.522,2.7878 -13.36401,3.179 -15.28243,0.8739 z m -188.03023,-4.7631 c -7.17475,-1.2574 -14.04364,-4.2682 -14.04364,-6.1555 0,-5.86445 35.44864,-5.72595 59.85642,0.234 5.53272,1.351 6.92485,3.777 3.13385,5.4612 -3.2587,1.4477 -41.27238,1.8051 -48.94663,0.4603 z m 128.44177,-3.2508 c -1.90337,-1.898 -0.49179,-4.6786 5.67662,-11.18255 8.47111,-8.9316 21.79912,-17.6958 31.48004,-20.7002 14.60381,-4.5324 44.46539,-22.0403 77.16918,-45.2444 20.16791,-14.3095 30.52935,-23.2873 33.08627,-28.6678 3.71328,-7.8135 24.89395,-21.7082 37.34319,-24.4975 10.53603,-2.3606 11.26298,0.9864 2.87461,13.2344 -13.98918,20.4258 -31.7486,38.9636 -43.05521,44.9424 -3.7919,2.0051 -17.18499,11.3726 -29.76229,20.8166 -39.79119,29.8784 -49.48224,34.9239 -67.38687,35.0835 -5.51557,0.049 -12.17516,-0.3921 -14.79916,-0.9806 -4.69275,-1.0526 -4.8874,-0.9454 -11.90861,6.5672 -8.16344,8.73495 -17.70707,13.63125 -20.71777,10.62895 z m -176.52627,-8.52275 c -16.34373,-4.3821 -23.62186,-8.6535 -23.62186,-13.8633 0,-8.9285 26.40932,-6.1771 37.08575,3.8635 4.01935,3.7801 4.498,4.8365 3.7904,8.3646 -0.44546,2.221 -1.22245,4.37905 -1.72657,4.79555 -0.50422,0.4164 -7.49164,-1.00575 -15.52772,-3.16035 z m 123.61184,-2.4619 c -6.21714,-6.1996 -2.02301,-18.1819 6.36406,-18.1819 4.01212,0 10.61566,6.212 10.61566,9.986 0,9.597 -10.49472,14.66265 -16.97972,8.1959 z m 30.43118,-12.399 c -1.76588,-1.6319 -4.32661,-5.1475 -5.69056,-7.8125 -3.11358,-6.0834 -5.86796,-8.4988 -11.89116,-10.4278 -5.65746,-1.8118 -23.5649,-1.8512 -34.10264,-0.075 -4.13667,0.6973 -10.03953,1.271 -13.11742,1.275 -4.87154,0.013 -5.35842,-0.224 -3.76061,-1.7792 1.00955,-0.9826 6.20732,-4.1253 11.5505,-6.9836 9.62155,-5.1472 11.02251,-6.5265 8.31998,-8.192 -3.18389,-1.9623 -19.75826,-5.4965 -25.86951,-5.5165 -8.12583,-0.026 -10.91741,2.3645 -12.12331,10.3832 -1.01346,6.7389 -5.77259,11.5193 -12.77164,12.8286 -7.62432,1.4263 -21.96138,-0.1522 -28.99663,-3.1926 -6.54147,-2.8268 -15.36637,-11.0095 -15.36637,-14.248 0,-0.9352 -2.67946,-4.1887 -5.9543,-7.2301 -22.44123,-20.8411 -93.53045,-54.9213 -103.48314,-49.6098 -2.5875,1.3809 -2.55381,1.4883 1.53694,4.8937 2.30029,1.915 16.98533,9.1732 32.63339,16.1293 15.64806,6.9562 32.82082,15.4394 38.1619,18.8518 16.58721,10.5974 28.33045,23.4686 28.33045,31.052 0,2.9056 -4.44986,6.3706 -8.18149,6.3706 -3.97512,0 -12.96158,-6.3226 -20.81805,-14.647 -7.89719,-8.3675 -12.85608,-10.353 -25.85687,-10.353 -15.36266,0 -27.13899,-5.5109 -49.18721,-23.0176 -22.40252,-17.7881 -29.61167,-23.296 -45.12736,-34.4778 -7.92857,-5.7138 -19.07934,-14.2765 -24.77933,-19.0278 -10.93626,-9.1163 -22.85509,-22.3709 -22.85509,-25.4167 0,-5.7418 14.53241,1.8473 34.95534,18.2543 22.90685,18.4025 37.54857,27.4356 44.4699,27.4356 4.10248,0 4.84056,-2.6384 2.14967,-7.6844 -2.41572,-4.53 -7.73413,-9.04 -27.79033,-23.5656 -14.78673,-10.7092 -39.29369,-34.2577 -48.13233,-46.25 -5.77651,-7.8375 -14.42702,-24.0263 -14.42702,-26.9992 0,-0.7946 0.8126,-2.1172 1.8058,-2.9391 1.42552,-1.1798 3.02905,-0.9548 7.61579,1.0684 5.96473,2.631 15.62038,11.837 39.96178,38.1008 22.56016,24.3417 42.523,38.342 88.8732,62.3277 17.37875,8.9934 35.51834,18.7821 40.31006,21.7529 13.25441,8.2171 20.20633,9.9076 55.8449,13.5799 37.37127,3.8508 51.67493,6.464 71.61821,13.0842 22.97364,7.6261 36.66688,15.2274 47.74264,26.5023 6.74664,6.868 11.2701,7.7582 18.15403,3.5727 7.55171,-4.5915 9.24319,-11.3064 5.27499,-20.9404 -2.07115,-5.0285 -1.11395,-6.0573 3.44713,-3.7053 9.83284,5.0703 11.12579,13.3272 4.34847,27.7692 -4.92621,10.4974 -9.20097,16.2613 -14.40846,19.4276 -5.21452,3.1708 -8.53228,3.0187 -12.41424,-0.5688 z m -209.63009,-0.6453 c -2.06834,-1.2942 -5.62026,-4.3652 -7.89328,-6.8247 -4.93051,-5.3349 -11.02571,-6.8806 -18.38047,-4.6609 -11.04808,3.3343 -11.95915,3.2721 -11.95915,-0.8164 0,-2.034 -1.01567,-4.6147 -2.25697,-5.735 -3.00939,-2.7157 -16.89428,-8.3492 -32.47455,-13.1761 -14.40655,-4.4631 -22.16073,-9.7029 -30.334,-20.4977 -5.07262,-6.6998 -11.84232,-20.0072 -13.34837,-26.2393 -0.76185,-3.1525 -0.52819,-3.4375 2.81865,-3.4375 7.44351,0 34.67466,15.1205 54.77749,30.4161 13.14339,10.0004 26.31918,17.2578 50.23838,27.6717 24.32785,10.592 29.49564,13.6737 29.49564,17.59 0,7.5686 -12.29029,10.9615 -20.68337,5.7098 z m 260.10905,-22.4235 c 0,-0.7187 3.1178,-6.2585 6.92845,-12.3106 3.81055,-6.0521 6.76469,-11.8531 6.56473,-12.8911 -0.26094,-1.3542 -2.83851,-2.1545 -9.12215,-2.8328 -19.22345,-2.0747 -35.54732,-15.1928 -32.74761,-26.3164 2.17243,-8.6313 16.18056,-20.8271 34.27853,-29.8438 18.11071,-9.023 28.40747,-7.4134 30.03627,4.6955 0.64813,4.8189 0.37596,5.3564 -5.18303,10.2359 -5.69136,4.9955 -16.56324,9.9713 -28.09268,12.8573 l -5.48548,1.373 0.79113,5.7556 c 2.24855,16.3584 12.26141,13.6463 36.77268,-9.9603 22.4647,-21.6355 31.69665,-27.5997 31.69665,-20.477 0,5.3365 -8.49437,15.9972 -27.00652,33.8944 -16.84814,16.2882 -20.97278,21.8562 -16.19059,21.8562 6.7677,0 29.7649,-17.9899 51.52531,-40.3064 15.57606,-15.9741 20.54859,-22.3053 15.94821,-20.3059 -1.28673,0.5593 -4.38688,1.2597 -6.88924,1.5566 -6.41059,0.7603 -12.87444,-4.9163 -12.87444,-11.3064 0,-3.7451 1.28894,-5.7913 8.34846,-13.2538 16.91935,-17.8847 28.44769,-52.2713 34.07457,-101.63684 2.28234,-20.0241 2.42895,-26.5233 0.67219,-29.7967 -1.21222,-2.2587 -1.50494,-2.278 -5.52699,-0.3655 -9.0705,4.3133 -10.45401,-0.7331 -7.59694,-27.7101 3.3331,-31.47351 4.15873,-41.69724 5.04694,-62.5 0.91588,-21.45216 2.82517,-29.05811 7.98554,-31.81208 6.60774,-3.52635 10.4203,4.98385 7.8316,17.48139 -2.72349,13.14886 -1.64705,15.78636 5.65576,13.85758 6.11445,-1.6149 7.31384,-6.01579 7.1953,-26.40189 -0.11803,-20.31014 -2.76059,-40.63004 -8.06586,-62.02221 -4.01874,-16.20439 -7.91413,-25.41448 -14.24761,-33.6857 -5.82734,-7.61037 -9.14902,-16.77548 -10.75736,-29.68232 -2.39455,-19.21511 -12.08951,-48.93947 -31.67378,-97.10977 -22.1465,-54.47272 -53.43199,-119.97226 -69.1314,-144.73419 -16.75458,-26.42619 -41.34568,-56.48597 -59.89813,-73.21861 -28.30268,-25.52645 -43.85527,-31.94291 -73.7034,-30.40759 -39.88005,2.05135 -79.45884,21.7481 -111.73663,55.60674 -15.15276,15.89485 -26.59646,31.96125 -36.68503,51.50365 -13.67038,26.48071 -19.03733,45.63826 -22.1815,79.17727 -1.84069,19.6347 -0.85872,65.84265 1.79908,84.66126 3.98314,28.20179 11.02451,52.35693 18.87928,64.7646 4.38277,6.92322 20.36647,41.49511 23.45479,50.73145 3.3651,10.06447 5.1749,12.98022 20.86899,33.62313 17.15923,22.56996 31.05665,36.63124 41.00974,41.49323 6.64615,3.2466 8.68801,3.64299 17.54952,3.40692 5.51557,-0.14694 21.51512,-0.42818 35.55444,-0.625 l 25.52614,-0.35786 4.79342,-5.38475 c 5.94237,-6.67558 11.17675,-15.82978 16.73754,-29.27199 5.41348,-13.08601 9.30897,-30.43215 7.28706,-32.44834 -2.32355,-2.31702 -9.82944,3.58484 -23.54745,18.51522 -16.63264,18.1028 -21.14407,22.34661 -29.8352,28.06583 -16.82608,11.07249 -25.6195,6.54859 -21.41062,-11.0149 3.38385,-14.12013 1.6285,-18.08676 -8.62404,-19.48806 -7.22769,-0.98787 -17.86792,-6.2637 -28.09799,-13.93202 -10.42653,-7.81568 -12.12452,-7.37029 -12.59705,3.30417 l -0.36824,8.31931 8.47732,4.16162 c 9.78692,4.8045 25.4779,18.99043 25.4779,23.03416 0,4.13334 -5.63831,8.52801 -10.75585,8.38336 -14.54856,-0.41124 -49.23705,-42.33311 -59.60551,-72.0347 -4.41015,-12.63327 -4.465,-15.8639 -0.3521,-20.738 4.18421,-4.95856 9.42711,-5.17605 13.70919,-0.56869 4.04462,4.35192 5.00192,10.29598 3.09855,19.23984 -2.51911,11.837 -0.93514,13.02845 12.24205,9.20855 11.71265,-3.39536 24.16399,-0.38382 31.63537,7.65148 12.66996,13.62618 48.81025,17.44058 67.98326,7.17522 9.37325,-5.01852 9.58234,-5.68186 10.2077,-32.38519 0.32743,-13.97736 1.67333,-31.92171 3.31275,-44.16712 2.18176,-16.29544 2.59733,-23.82418 1.97959,-35.86515 -3.33601,-65.0319 -34.62161,-126.8383 -66.40259,-131.18208 -4.80256,-0.65641 -5.89043,-0.41927 -6.60595,1.44004 -0.47113,1.22421 -0.12154,3.97103 0.7768,6.10401 0.89833,2.133 1.69568,5.55288 1.772,7.59974 0.11292,3.03044 -0.61745,4.08064 -3.9324,5.65506 -2.23902,1.06342 -4.89662,3.10904 -5.90587,4.54582 -3.55423,5.0601 -8.06947,21.28662 -11.25646,40.45256 -4.98297,29.96737 -10.25103,42.76086 -16.7596,40.70094 -3.10607,-0.98304 -3.50469,-4.05919 -1.3101,-10.11099 2.03264,-5.60545 0.4613,-10.19571 -5.23618,-15.29605 -7.09672,-6.35285 -7.39246,-9.962 -1.90076,-23.19124 5.74742,-13.84506 7.38023,-22.13017 5.6352,-28.59269 -2.26048,-8.37085 -9.74209,-8.71333 -13.03819,-0.59686 -0.885,2.17904 -1.97126,8.91773 -2.41411,14.97485 -0.89623,12.25901 -4.00451,20.1275 -8.51463,21.55494 -6.53615,2.06865 -9.55086,-9.72749 -7.37492,-28.85715 2.55702,-22.47964 8.0425,-38.06698 15.17994,-43.13498 4.81449,-3.4185 6.15658,-6.81742 4.64411,-11.76135 -0.89994,-2.94187 -0.55838,-5.43157 1.49301,-10.8839 2.90701,-7.72625 14.15375,-26.27191 20.2684,-33.42217 16.68348,-19.50921 43.30281,-31.3192 66.91374,-29.68715 13.64912,0.94346 21.66183,3.53224 35.97532,11.6231 14.82494,8.37991 23.25974,11.6807 29.84884,11.6807 4.74589,0 5.00071,-0.1955 5.00071,-3.83728 0,-5.11277 -5.88621,-13.42968 -17.31546,-24.46596 -15.56894,-15.0336 -26.08442,-18.79576 -45.88459,-16.41634 -33.20722,3.99057 -62.87364,17.1351 -83.92916,37.18709 -11.73582,11.17658 -18.71401,20.62528 -27.98106,37.88735 -7.26802,13.53834 -12.28086,20.89514 -14.23768,20.89514 -2.17504,0 -1.22998,-9.44435 1.84821,-18.46895 11.86418,-34.78375 41.55527,-69.97704 75.81345,-89.86285 l 11.12339,-6.4568 25.55573,-0.4182 25.55572,-0.4182 9.36994,4.63939 c 5.15344,2.55166 14.25031,8.31338 20.21535,12.80385 11.53154,8.68102 46.31591,38.81935 60.11906,52.08927 13.52647,13.00396 33.49412,45.32019 53.9673,87.34249 15.71174,32.24901 30.17335,67.62415 28.37748,69.415 -1.74482,1.73985 -6.56262,-1.223 -13.97955,-8.59706 -8.67348,-8.62347 -12.93941,-16.26719 -14.54645,-26.06461 -1.50605,-9.18144 -4.85671,-17.21559 -16.84012,-40.37833 -16.74135,-32.35951 -40.47653,-69.44932 -52.28586,-81.70464 -5.94849,-6.17316 -9.53782,-6.57755 -15.02089,-1.69231 -2.99445,2.668 -4.05685,4.83415 -4.56177,9.30061 -0.36192,3.2024 -0.29835,7.25196 0.1414,8.99903 1.21924,4.84417 7.90631,11.69085 12.37402,12.66935 2.50246,0.54809 6.88071,3.76076 11.77142,8.63767 20.11506,20.05835 47.23831,72.33969 66.87512,128.90539 8.91647,25.68479 8.77035,25.36709 14.66238,31.87049 5.18554,5.72349 7.07998,6.04737 9.93735,1.69886 1.95381,-2.97347 1.95582,-3.69509 0.0291,-10.60613 -3.45295,-12.38443 -2.4104,-18.70332 3.08581,-18.70332 4.86753,0 13.0045,13.71756 19.64905,33.125 4.43271,12.94702 7.63334,25.16073 12.03847,45.9402 1.71294,8.07961 6.00605,25.37611 9.54043,38.43667 3.53437,13.06057 6.24943,25.57038 6.03332,27.79957 -0.97244,10.03262 -10.76909,2.22005 -17.09675,-13.6342 -3.9329,-9.85412 -6.44147,-18.63695 -11.50797,-40.29093 -4.55365,-19.46147 -9.72344,-28.87631 -15.85655,-28.87631 -9.16988,0 -3.19512,27.23941 13.29763,60.625 9.64371,19.52139 11.60124,26.86571 13.82702,51.875 0.76486,8.59375 2.55611,21.17314 3.98063,27.9542 1.44598,6.8835 2.27703,14.25225 1.88141,16.68302 -0.3897,2.3946 -2.96106,7.26534 -5.71423,10.82387 -8.3991,10.85602 -12.69382,21.54981 -13.92931,34.6833 -1.60322,17.04277 -3.10235,17.98854 -24.63121,15.5388 -8.63005,-0.982 -9.10058,-0.8967 -12.22199,2.21592 -2.86137,2.85328 -3.24646,4.2535 -3.24646,11.80516 0,10.56795 1.84481,13.90097 6.36697,11.50328 1.66901,-0.88494 7.14225,-5.17491 12.16282,-9.53326 5.02047,-4.35836 9.6742,-7.92429 10.34169,-7.92429 3.56797,0 -0.9552,14.66887 -5.86325,19.01483 -3.51983,3.11674 -11.02772,5.98104 -15.76008,6.01262 -10.8076,0.0721 -24.24863,11.35405 -34.2677,28.76305 -11.24764,19.5438 -26.16915,31.081 -50.69978,39.2004 -17.75992,5.87844 -35.256,8.25914 -60.69689,8.25914 -30.27564,0 -47.64967,-4.106 -74.0584,-17.50244 -45.66688,-23.1655 -88.74465,-62.82084 -121.53408,-111.87846 -10.26577,-15.35889 -25.54499,-46.02682 -30.66915,-61.55785 -4.58855,-13.90771 -8.89551,-34.28609 -8.82541,-41.75764 l 0.0512,-5.42865 3.76171,4.375 c 7.41222,8.62072 10.76217,17.98367 13.10468,36.62619 0.59899,4.76747 1.35523,6.22911 3.67828,7.10986 4.20437,1.59398 7.55362,6.44026 23.28101,33.68724 24.28172,42.06666 35.21487,57.56186 55.05797,78.03174 28.54115,29.44257 61.04387,46.96647 99.99881,53.91437 12.87563,2.2964 65.97779,4.8035 78.67422,3.7144 20.71145,-1.7767 31.73416,-8.6279 51.3067,-31.8899 19.23277,-22.85834 32.12295,-45.71527 33.05909,-58.6206 0.59508,-8.2035 -1.44167,-11.26645 -5.90717,-8.88336 -3.27023,1.74522 -13.20787,14.16397 -26.55524,33.18506 -23.75795,33.8572 -35.646,41.7598 -69.59811,46.2656 -15.74794,2.0899 -54.64271,2.4499 -64.55428,0.5975 -35.78709,-6.6883 -108.42659,-70.42498 -148.14488,-129.9881 -8.75591,-13.13079 -15.0592,-25.1005 -16.6208,-31.5625 -1.83969,-7.61264 8.3284,-2.00605 20.49323,11.29971 16.89709,18.48206 29.75206,35.9328 31.65172,42.96748 3.69995,13.70188 51.18405,62.44253 70.63444,72.50371 4.23014,2.18811 5.28893,2.30505 7.96067,0.87922 2.71035,-1.44643 3.29289,-1.35634 4.83584,0.74782 0.96483,1.31581 1.75436,3.59307 1.75436,5.06058 0,9.22968 24.79367,17.39828 52.64857,17.34578 18.01234,-0.034 24.45331,-1.4653 33.21875,-7.3821 7.39657,-4.9928 19.39724,-8.4347 25.66393,-7.3605 2.43156,0.4168 7.43879,1.6 11.1273,2.6293 8.77466,2.4487 10.62077,0.991 7.06714,-5.5806 -1.77511,-3.28266 -4.58283,-5.67195 -9.76305,-8.30811 -6.22757,-3.16919 -8.65663,-3.69484 -16.92276,-3.66219 -11.72248,0.0464 -17.45756,2.25349 -22.29772,8.58136 l -3.57529,4.67424 -11.94582,-0.7299 c -20.50667,-1.2528 -52.07415,-11.02824 -77.82051,-24.09846 -13.64481,-6.92685 -21.68149,-12.8427 -26.37393,-19.414 -6.11987,-8.57033 1.4166,-7.46847 26.96821,3.94285 22.97955,10.26258 35.78428,13.79665 53.00969,14.63046 22.84618,1.10587 36.88088,-2.93396 49.38868,-14.21636 9.22052,-8.3171 14.19326,-11.69779 17.20666,-11.69779 2.4784,0 2.93328,0.78505 4.47814,7.72919 1.1687,5.25332 4.93834,5.55366 12.10967,0.96481 7.10074,-4.54365 9.22684,-7.63016 8.16414,-11.85211 -0.97936,-3.89114 -4.76304,-4.9122 -9.38027,-2.5313 -5.4562,2.81357 -8.72402,2.44147 -10.37959,-1.1819 -2.98873,-6.54109 5.00894,-20.63917 11.69781,-20.62045 7.0493,0.0197 14.52158,8.5457 18.02667,20.56875 2.52533,8.66231 1.95953,13.31562 -3.17325,26.09792 -6.89075,17.16033 -3.98043,23.68374 5.80548,13.01259 5.05717,-5.51467 9.03089,-11.4776 17.91265,-26.87956 10.14824,-17.59823 20.48973,-27.73889 30.12321,-29.5382 5.19948,-0.97115 10.08406,-5.22696 10.10031,-8.80013 0.0321,-6.98006 17.39338,-28.94036 22.11882,-27.97752 3.26672,0.66559 2.56333,6.99032 -2.76771,24.88679 -5.87829,19.7338 -5.67562,32.37112 0.51926,32.37112 5.05357,0 11.16902,-10.43464 15.08177,-25.73337 9.04352,-35.35984 8.40742,-101.52395 -1.15857,-120.52518 -2.83179,-5.62485 -15.3783,-17.49145 -18.49359,-17.49145 -5.72737,0 -8.1148,-6.99984 -10.23238,-30 -1.46594,-15.92314 -3.77074,-27.18326 -9.56138,-46.71339 -12.44432,-41.97085 -38.0899,-100.64719 -55.86436,-127.81615 -5.45961,-8.34521 -26.97532,-35.47046 -28.1351,-35.47046 -0.83987,0 9.60772,21.62831 30.1906,62.5 25.76371,51.15916 30.98936,65.6467 40.57922,112.5 8.25811,40.34684 11.28013,66.86943 8.91416,78.23435 -1.6655,7.99974 -4.52246,11.39074 -15.64646,18.57094 -4.56939,2.94937 -7.20643,5.87787 -9.73216,10.80765 -5.69989,11.12511 -7.23673,21.4169 -8.38316,56.13706 -0.57893,17.53125 -1.65607,33.77214 -2.39366,36.09086 -3.07969,9.68075 -8.81678,13.30999 -11.55771,7.31128 -1.01005,-2.21049 -0.71642,-4.20841 1.3119,-8.92693 1.43726,-3.34347 2.27161,-6.41963 1.85413,-6.83591 -0.41748,-0.41628 -3.53437,0.78834 -6.92655,2.67691 -3.39227,1.88859 -6.73149,3.43379 -7.42054,3.43379 -2.05189,0 -1.43525,-7.04841 1.56763,-17.91674 2.66211,-9.6352 2.81614,-12.45376 2.74354,-50.20826 -0.0792,-41.38207 -1.58397,-63.18693 -6.89997,-100 -4.46069,-30.89015 -9.01434,-46.23245 -13.4656,-45.36901 -1.79567,0.3483 -2.09953,1.94312 -1.97989,10.39022 0.0782,5.48834 0.57512,15.89527 1.10532,23.12653 0.82773,11.28928 0.68152,13.38156 -1.03492,14.80201 -6.18887,5.12179 -17.09053,-23.23263 -17.15622,-44.62221 -0.013,-3.89265 -0.89874,-11.01504 -1.97056,-15.82754 -6.12308,-27.49276 -8.01101,-38.43259 -8.02284,-46.48873 -0.0231,-15.84322 4.27677,-13.26096 14.98549,8.99919 3.97452,8.26178 8.83363,16.92609 10.79797,19.25404 5.57604,6.60809 12.91455,11.3605 17.54231,11.3605 6.31863,0 11.07706,4.79535 13.57802,13.68357 1.16849,4.15278 2.92094,18.59284 3.92317,32.32563 2.0218,27.70564 5.47756,44.29386 11.98151,57.51373 6.28594,12.77678 9.85963,11.86592 9.89262,-2.5214 0.0562,-24.27558 -14.15886,-99.93563 -23.43744,-124.75153 -11.26088,-30.11759 -35.37734,-72.19796 -62.32499,-108.75 -19.06601,-25.86129 -20.69841,-29.61144 -12.30763,-28.27454 16.89337,2.69164 17.70897,2.52534 14.93504,-3.04525 -6.62429,-13.30285 -62.80233,-20.6802 -89.2626,-11.72203 -6.29727,2.13192 -15.61377,7.69742 -15.61377,9.32731 0,0.5243 8.88438,0.87142 19.74322,0.77138 17.90182,-0.16491 20.40318,0.0842 26.82039,2.67172 26.76614,10.79225 50.34949,37.82528 81.16395,93.03625 13.88238,24.87337 24.05519,46.24 24.85846,52.21207 0.59126,4.39554 0.31067,5.09252 -2.57798,6.40499 -2.65349,1.20558 -3.81045,1.101 -6.3779,-0.57652 -4.3223,-2.82409 -11.52763,-13.78428 -20.16952,-30.68046 -12.45174,-24.34469 -17.17727,-27.44816 -24.57575,-16.13988 -7.53517,11.51722 -8.5385,10.01155 -9.73618,-14.61004 l -0.8512,-17.5 -5.5271,-10.3061 c -7.51631,-14.01526 -23.72175,-35.51086 -29.41802,-39.02144 -5.26025,-3.24182 -9.39592,-3.19257 -40.81699,0.48604 -24.52281,2.871 -25.28295,3.15825 -28.92292,10.92943 -1.67333,3.57232 -5.15184,9.50246 -7.73012,13.17808 -4.75722,6.78209 -8.47431,13.28934 -8.47431,14.83546 0,2.73799 11.83409,-2.12704 31.00439,-12.74595 30.72632,-17.0201 34.03184,-17.099 48.97592,-1.16891 26.684,28.44484 43.56695,71.21789 50.88711,128.9232 3.2245,25.41869 5.92913,56.48924 5.99682,68.89058 0.0722,13.22352 -0.79033,15.03795 -7.8309,16.47383 -5.56029,1.13399 -5.78834,2.84261 -1.09118,8.17717 9.85832,11.19637 16.192,12.37631 26.91245,5.0137 5.32262,-3.65547 8.39469,-4.837 13.72213,-5.27755 6.45431,-0.53373 6.93747,-0.3754 8.09153,2.65143 2.4813,6.50792 -4.92289,25.12907 -18.72254,47.08603 -3.3311,5.30011 -8.43069,14.35897 -11.33238,20.13079 -2.90179,5.77181 -8.60949,15.63777 -12.68389,21.92436 -6.79859,10.48988 -8.10056,11.79265 -15.82647,15.83684 -27.40193,14.34363 -94.28578,24.16458 -94.28578,13.84451 0,-11.96094 -44.31486,-59.15216 -62.66374,-66.73106 -3.25388,-1.34399 -4.55576,-1.36983 -6.54678,-0.12992 -3.37221,2.10002 -4.00229,1.07065 -2.36768,-3.86815 0.85672,-2.5887 0.96954,-5.5714 0.29854,-7.89625 -0.59307,-2.05487 -7.54419,-16.39237 -15.44699,-31.86112 -7.9027,-15.46875 -15.85946,-32.68952 -17.6815,-38.26837 -12.0856,-37.00322 -19.21462,-115.39779 -14.12215,-155.29467 5.94407,-46.56843 23.21461,-90.69094 49.24577,-125.81196 12.58763,-16.98302 34.81927,-38.43299 51.10824,-49.31118 16.36468,-10.92876 29.05479,-17.01451 47.86287,-22.95333 36.49178,-11.52266 52.16501,-9.49584 104.44194,13.5062 12.06525,5.30877 23.55147,9.73242 25.52484,9.83032 4.35479,0.21603 7.09953,-3.13463 5.12486,-6.25625 -1.99643,-3.15617 -41.86074,-24.57042 -56.74454,-30.48205 -21.47631,-8.53 -32.84198,-10.316377 -61.02602,-9.59167 -43.38554,1.11559 -53.11199,5.762 -94.64209,45.21103 -22.10277,20.99514 -39.32628,34.8001 -46.27629,37.09132 -3.65863,1.20612 -4.51464,1.09563 -5.87398,-0.7581 -3.38746,-4.61962 3.26582,-14.19183 23.51326,-33.82892 22.89942,-22.20914 58.15662,-48.692347 78.15175,-58.703017 19.67051,-9.84825 28.18935,-10.77548 82.10671,-8.93696 43.68308,1.48954 54.01273,-0.64518 61.39687,-12.6882 6.23158,-10.16318 8.74247,-12.7551 12.34373,-12.74198 4.17809,0.0153 12.44452,3.88122 27.79594,12.99952 14.11213,8.38222 26.44594,12.68026 30.37332,10.58435 7.33891,-3.91658 26.20455,4.32552 47.0939,20.57453 10.37308,8.068797 14.04654,13.519967 14.02177,20.807047 -0.01,3.10604 -0.54744,6.4805 -1.19316,7.4988 -1.00143,1.57923 -1.68987,1.43717 -4.68161,-0.96603 -15.80711,-12.69743 -18.08304,-14.01043 -24.28524,-14.01043 -5.03401,0 -6.86036,0.6779 -10.56501,3.92144 -6.85004,5.99739 -11.0891,13.98196 -10.12989,19.08027 1.32444,7.04002 9.51124,17.943 29.06372,38.70648 44.24637,46.98652 57.24013,68.30699 79.71115,130.79181 13.54783,37.67224 32.30898,100.50364 36.86734,123.4693 0.7438,3.74754 4.88709,7.7807 7.99306,7.7807 4.90514,0 6.92625,-5.66766 6.89075,-19.32289 -0.0391,-14.96282 -2.98172,-25.0026 -10.89335,-37.16516 -8.59114,-13.20702 -10.29675,-17.97342 -10.42692,-29.13695 -0.10891,-9.34365 -0.59047,-11.06658 -7.33681,-26.25 -18.31729,-41.22515 -22.65252,-56.40828 -17.67287,-61.89521 1.74502,-1.92272 3.862,-2.47979 9.42399,-2.47979 9.77278,0 10.95061,-1.52201 8.88728,-11.48376 -0.85972,-4.15059 -4.88318,-17.04595 -8.94103,-28.65638 -4.05785,-11.61042 -6.89285,-21.10986 -6.29998,-21.10986 1.84351,0 16.75669,18.37251 21.05161,25.93485 8.09164,14.24754 11.198,31.21697 7.63194,41.69112 -0.79564,2.33697 -3.6161,6.62709 -6.26769,9.53361 -3.21738,3.52667 -4.821,6.46581 -4.821,8.83562 0,5.82024 3.64869,16.32789 10.16849,29.2834 20.29919,40.33682 39.17055,106.55674 43.7598,153.55446 2.77062,28.37322 8.77596,45.38962 14.13328,40.04743 2.06914,-2.06335 2.49906,-17.6966 0.93294,-33.92975 -3.83412,-39.74115 -13.34988,-82.60634 -25.04248,-112.80744 -9.95118,-25.70327 -12.66383,-35.18066 -12.42005,-43.3933 0.12857,-4.3302 -0.89221,-10.23446 -2.75778,-15.95087 -2.75929,-8.45507 -2.84713,-9.5666 -1.28493,-16.25 2.83009,-12.1073 2.96477,-17.46452 0.65355,-25.97903 -1.21022,-4.4583 -1.83488,-8.47055 -1.38802,-8.9161 4.26755,-4.25547 26.19483,24.10795 48.48854,62.721 17.15542,29.71346 40.47543,79.09014 46.83628,99.16881 5.00121,15.78698 4.10669,18.9725 -3.12903,11.14369 -9.83406,-10.64002 -24.69219,-36.00929 -46.24541,-78.961 -9.30757,-18.5482 -17.71048,-33.96762 -18.6732,-34.2654 -4.17157,-1.29029 2.60595,25.37489 12.33722,48.5389 11.7657,28.00652 14.9561,41.08999 16.30772,66.875 0.54052,10.3125 1.61024,20.30653 2.37711,22.20895 0.76686,1.90241 5.11383,6.96491 9.65996,11.25 11.05349,10.41882 17.09123,19.76504 21.77345,33.70476 5.31289,15.81721 6.79146,17.58674 5.50343,6.58629 -0.56349,-4.8125 -1.02449,-14.68256 -1.02449,-21.93348 0,-10.64963 0.43883,-13.85078 2.28354,-16.65541 2.10554,-3.20107 2.49544,-3.33174 4.9979,-1.67482 12.67608,8.39282 34.61549,83.64231 42.21363,144.7877 3.15019,25.35032 3.1513,31.68313 0.01,53.21995 -6.72096,46.06491 -14.63329,73.45406 -23.14963,80.13406 -2.7645,2.1685 -4.47091,2.5681 -8.33432,1.9521 -5.80097,-0.925 -5.73679,-1.3179 -2.96396,18.1355 1.76678,12.3951 1.73891,13.2116 -0.63249,18.5575 -1.36435,3.07564 -7.5118,11.87634 -13.66095,19.55724 -15.76609,19.6928 -30.17285,43.4703 -30.20855,49.8572 -0.0271,4.7944 11.64326,0.3521 20.52713,-7.8136 6.93176,-6.3715 12.06334,-14.2476 16.45042,-25.2488 4.36272,-10.9403 8.37123,-14.9977 14.32453,-14.4992 4.1828,0.3502 4.45597,0.6359 4.27907,4.475 -0.76124,16.5147 -77.12996,104.0322 -125.13785,143.4062 -7.31975,6.0034 -13.55184,10.6729 -13.84898,10.3765 -0.29714,-0.2962 3.17988,-5.5662 7.72651,-11.7111 21.54891,-29.1232 20.79789,-36.189 -2.90109,-27.2939 -4.45317,1.6714 -8.62233,2.7149 -9.26485,2.3189 -4.0051,-2.4682 1.78173,-13.7392 18.90586,-36.8225 17.49066,-23.5774 21.97912,-32.7994 18.82482,-38.6766 -3.22139,-6.0023 -12.56716,-0.5005 -24.29456,14.3016 -6.61958,8.3553 -9.03058,10.6521 -9.36994,8.9264 -0.53581,-2.7255 1.37448,-8.16 16.09963,-45.8014 20.02562,-51.19104 22.30264,-60.99584 23.80478,-102.50004 0.68905,-19.03785 1.72367,-31.80082 2.9401,-36.26844 3.13174,-11.50162 6.99083,-20.76667 9.64893,-23.16548 2.27652,-2.0544 2.70754,-2.0868 4.4638,-0.33549 5.63169,5.61571 4.93643,41.89057 -1.53534,80.11631 -4.33724,25.6179 -8.1519,39.64404 -15.67393,57.63054 -7.30642,17.471 -8.87695,26.7531 -5.59679,33.0784 1.14693,2.2117 6.85665,9.0417 12.6883,15.1777 8.01994,8.4388 10.60283,11.9941 10.60283,14.5948 0,2.7303 -2.69591,6.0227 -13.09566,15.9925 -17.46379,16.7418 -19.67573,22.9383 -9.19274,25.7531 5.17169,1.3887 12.14657,0.7436 16.37812,-1.5146 3.53858,-1.8885 7.15268,-8.7218 7.17143,-13.5593 0.0291,-7.4775 5.25102,-16.6932 12.08882,-21.3337 3.34394,-2.2695 6.47066,-4.707 6.94831,-5.4169 1.20971,-1.7977 -1.11976,-4.2576 -6.73882,-7.1161 -4.71902,-2.4007 -5.43173,-3.944 -4.85289,-10.5083 0.36332,-4.1207 8.17707,-19.1254 17.5753,-33.75 9.79925,-15.2485 15.8756,-29.3838 17.10116,-39.78174 0.61644,-5.2308 0.15844,-8.9863 -1.93406,-15.856 -1.50806,-4.9509 -2.481,-9.2619 -2.1621,-9.5799 0.3189,-0.3181 3.80142,3.3977 7.73874,8.2572 3.93741,4.8595 7.94151,8.8354 8.89801,8.8354 1.33386,0 1.7391,-2.2622 1.7391,-9.707 0,-12.9449 -2.4471,-17.706 -10.43003,-20.293 -10.22275,-3.3128 -13.08573,-9.379 -6.69931,-14.195 2.99576,-2.25902 5.06319,-2.64468 13.16215,-2.45511 8.51754,0.19937 9.32361,0.0285 7.10104,-1.50504 -5.02348,-3.46637 -6.9805,-6.20831 -8.85128,-12.40139 -7.68479,-25.44083 -8.98556,-90.15096 -2.43507,-121.14621 2.72338,-12.88661 5.25463,-17.06417 11.77132,-19.42776 3.95877,-1.43579 6.15336,-3.21455 7.83461,-6.34999 3.20444,-5.97587 3.07578,-14.99387 -0.27438,-19.24089 -2.28916,-2.90207 -3.40781,-3.27525 -9.10489,-3.03752 -11.11577,0.46384 -17.79111,-6.61656 -28.9492,-30.70615 -9.07962,-19.60214 -9.39251,-20.0631 -9.43934,-13.90844 -0.0211,2.75083 1.64755,16.81333 3.70777,31.25 2.06031,14.43668 3.75259,29.2888 3.76061,33.00474 0.014,6.68574 -0.011,6.73254 -2.50176,4.48532 -1.38401,-1.249 -5.2786,-6.53931 -8.65473,-11.75623 -9.33374,-14.42319 -13.72944,-18.11293 -15.64575,-13.13309 -1.39273,3.61901 -0.78552,27.90192 1.14744,45.88925 4.28319,39.85737 7.81084,58.38351 11.11717,58.38351 2.69039,0 7.21797,-17.62081 10.75967,-41.875 2.64877,-18.14022 4.06948,-24.35195 5.38399,-23.54181 1.35332,0.83405 0.96753,31.44236 -1.58066,125.41681 -2.40168,88.56644 -4.76264,99.20594 -27.67721,124.72394 -6.34591,7.0669 -11.72378,12.6636 -11.95072,12.4372 -0.22704,-0.2263 2.91833,-10.5082 6.98962,-22.8488 13.393,-40.59554 19.39153,-77.22424 19.43675,-118.68734 0.0321,-29.31235 -1.15877,-35.29574 -8.03317,-40.36389 -7.14606,-5.2684 -12.41132,-26.53247 -15.69509,-63.38611 -3.23703,-36.32835 -5.40936,-49.69022 -12.70134,-78.125 -10.03382,-39.1264 -15.22447,-53.43072 -21.40932,-58.99926 -7.04849,-6.34608 -7.09041,7.86344 -0.0852,28.99926 5.7768,17.43041 8.89741,35.22079 8.98957,51.25 0.21791,37.8852 -6.4463,23.55396 -29.35414,-63.125 -7.4395,-28.14932 -7.5824,-28.9981 -6.84301,-40.625 1.12728,-17.72529 -3.42186,-36.25 -8.90203,-36.25 -5.02438,0 -9.79103,-15.67037 -11.21665,-36.875 -1.56702,-23.30678 -5.39372,-36.39184 -12.58361,-43.02905 -4.36292,-4.02751 -8.83905,-13.05558 -13.90906,-28.05375 -5.20549,-15.39866 -13.69043,-31.40001 -28.59048,-53.9172 -27.77238,-41.96999 -64.62037,-86.8696 -88.39937,-107.71554 -12.11579,-10.62131 -26.81367,-18.51505 -38.29828,-20.568687 -10.18645,-1.82153 -14.41569,-0.24333 -14.41569,5.379467 0,3.26963 1.36305,5.34615 7.20785,10.98108 3.96428,3.82194 11.22187,9.31424 16.12801,12.2051 18.62175,10.97279 27.33213,19.90615 25.98042,26.6456 -0.90596,4.51713 3.27815,7.42479 10.81913,7.51853 9.59418,0.11925 14.04985,2.34861 17.34736,8.67945 4.35669,8.3644 14.43483,20.98492 32.94016,41.25 17.30664,18.95236 31.83123,36.90187 36.84909,45.53826 1.62549,2.7977 9.25622,25.89924 16.95705,51.33674 7.70094,25.4375 18.68363,58.90625 24.40608,74.375 5.72255,15.46875 10.78303,29.90879 11.24564,32.08899 0.50522,2.3812 0.0592,6.58948 -1.11716,10.53937 -3.22831,10.84028 -2.69841,14.0887 3.18258,19.50875 6.30369,5.80968 8.64811,10.12703 8.64811,15.92581 0,3.79902 -0.41537,4.43708 -2.88845,4.43708 -1.58858,0 -5.4222,-1.60239 -8.51914,-3.56085 -9.48698,-5.99949 -17.87926,-18.61056 -19.38962,-29.13694 -1.415,-9.86178 -5.71282,-23.94257 -12.7209,-41.67721 -9.28841,-23.50533 -12.09754,-28.77655 -19.72146,-37.0067 -10.83698,-11.69881 -20.9443,-33.83728 -25.85988,-56.64195 -3.80343,-17.64495 -3.78799,-17.63221 18.8516,15.57792 15.56122,22.82696 19.26598,27.31288 20.67686,25.03657 1.07403,-1.73293 -3.46809,-17.81879 -9.02618,-31.96584 -8.17447,-20.8067 -19.58106,-41.19385 -26.52886,-47.41549 -4.12986,-3.69812 -8.44243,-1.48215 -13.08032,6.72125 -3.25819,5.76284 -3.83301,8.06145 -3.75118,15 0.14039,11.9128 5.88882,26.0247 30.64207,75.22408 23.2105,46.13286 25.29729,52.00373 29.21415,82.18638 1.27058,9.79167 2.83099,16.21087 5.01334,20.625 4.20016,8.4953 13.87717,19.9528 23.36053,27.65878 13.55636,11.01559 22.53098,25.0627 28.62789,44.8087 6.00485,19.44784 10.67984,59.6854 8.07058,69.46336 -2.20593,8.2667 -7.39517,8.32303 -12.20635,0.13249 -1.93807,-3.29931 -2.59833,-7.94538 -3.44542,-24.24302 -1.8402,-35.40632 -6.15588,-56.83657 -13.90003,-69.02212 -3.40692,-5.36083 -13.82201,-15.52327 -18.42901,-17.98186 -5.30668,-2.83207 -10.41519,-3.81892 -12.18539,-2.35395 -3.03406,2.511 -1.86326,7.07914 2.90951,11.35175 9.45659,8.46554 11.9045,11.5434 16.10194,20.24553 9.56219,19.82451 14.91339,49.97112 14.99452,84.47412 0.0602,25.50863 -2.01368,38.72818 -7.29057,46.47543 -2.53917,3.72783 -3.45606,4.15925 -9.02207,4.24475 -8.65773,0.133 -9.02607,0.22728 -11.8366,3.02982 -5.01415,4.99999 -1.76097,12.9372 6.42182,15.66835 6.19077,2.06631 7.59514,8.48638 7.78287,35.58165 0.16085,23.2133 -0.40224,28.0637 -7.41934,63.9141 -7.21366,36.85424 -15.59551,64.45334 -23.13088,76.16294 -2.04106,3.1718 -3.71107,6.9298 -3.71107,8.351 0,2.2956 0.56289,2.5089 5.04233,1.9098 7.92476,-1.06 11.07215,3.0518 13.07349,17.0798 l 0.79073,5.5427 -11.02019,10.7298 c -13.06508,12.7208 -29.63905,25.4729 -56.19058,43.2334 -25.02211,16.7375 -51.97869,30.1127 -51.97869,25.7906 z M 948.17016,691.68637 c 0.43944,-2.33598 0.11473,-7.53455 -0.72173,-11.55237 -1.89846,-9.11863 -0.82614,-21.70526 2.71927,-31.92134 3.81075,-10.98025 2.80893,-23.55795 -3.31766,-41.65405 -6.12318,-18.08626 -6.92625,-26.36826 -3.14789,-32.46464 3.44141,-5.5526 2.57637,-6.74196 -2.98161,-4.09905 -9.64642,4.58708 -19.5601,17.65799 -19.5601,25.78947 0,5.66022 4.95017,13.63943 11.38272,18.34808 3.4001,2.48886 7.02473,5.72495 8.05473,7.1913 2.67234,3.80449 2.31353,9.96385 -0.81119,13.92501 -2.39676,3.03839 -3.30181,3.33662 -8.46138,2.78798 -3.17756,-0.3379 -7.32878,-1.01491 -9.22473,-1.50448 -4.9973,-1.29037 -4.58514,1.19805 3.22029,19.44208 3.66705,8.57134 8.27094,19.4459 10.23067,24.1657 3.46167,8.33689 8.52967,15.79355 10.73429,15.79355 0.59689,0 1.44488,-1.91126 1.88432,-4.24724 z M 677.23055,256.99697 c 2.00415,-2.82329 6.65789,-8.676 10.34168,-13.00603 3.6839,-4.33003 6.6979,-8.19555 6.6979,-8.59005 0,-1.44668 -5.15605,-0.6533 -11.58178,1.7821 -3.62694,1.37465 -8.47592,2.49965 -10.77541,2.5 l -4.181,6.2e-4 0.885,-9.41721 c 0.83465,-8.88228 0.66608,-9.8586 -2.96738,-17.1875 -7.83932,-15.81209 -30.89047,-40.12495 -49.60649,-52.32153 -8.06626,-5.2565 -10.45741,-5.85116 -11.59903,-2.88457 -1.15276,2.9955 7.32948,18.66432 17.22059,31.81081 14.59068,19.39269 28.57384,40.99633 35.69925,55.15434 3.67577,7.30362 7.60075,14.19425 8.72212,15.3125 3.47651,3.46669 7.19149,2.4155 11.14455,-3.15348 z M 658.15963,109.58362 c 6.41661,-2.1175 12.37161,-4.75625 13.23344,-5.86391 2.82518,-3.63113 1.91661,-9.828697 -1.8803,-12.825347 -3.11259,-2.45658 -4.42078,-2.64703 -13.47553,-1.9619 -5.51557,0.41734 -12.4382,1.09859 -15.38352,1.5139 -8.97713,1.26581 -13.80445,-0.36643 -20.91432,-7.07168 -12.42105,-11.71418 -26.19402,-13.89161 -19.49441,-3.08195 5.2107,8.40734 38.53214,32.706367 45.37926,33.091947 0.47785,0.0269 6.11877,-1.68357 12.53538,-3.80106 z m -90.20146,823.92993 c -5.64272,-1.4086 -13.7126,-6.9431 -14.71483,-10.0918 -3.23763,-10.1722 24.4828,-13.8168 33.8727,-4.4535 7.8671,7.8449 -5.46152,17.9644 -19.15787,14.5453 z m 299.94417,-5.052 c -1.20029,-1.9368 9.54193,-16.1801 15.40217,-20.422 8.10397,-5.8659 10.47125,-6.97 17.99187,-8.3923 8.15361,-1.542 11.0893,-4.0786 11.0893,-9.5821 0,-5.6377 3.405,-11.9885 12.41674,-23.1591 12.64578,-15.6754 33.1676,-33.4724 38.59692,-33.4724 7.53105,0 -11.5518,25.3505 -44.0454,58.512 -17.78529,18.1508 -30.86641,29.6301 -37.67994,33.0659 -5.40274,2.7244 -13.03619,4.6366 -13.77166,3.45 z m -362.65926,-20.3744 c -3.70575,-2.1596 -7.77835,-8.8509 -7.77835,-12.7799 0,-4.402 4.29452,-6.6738 17.76514,-9.398 18.76876,-3.7957 57.98614,-8.7911 75.43949,-9.6092 15.38061,-0.721 16.09131,-0.6473 15.65358,1.6266 -0.61925,3.2171 -9.33555,7.7844 -31.76565,16.6449 -27.45377,10.8449 -39.0852,14.0059 -53.90211,14.6484 -9.05776,0.3928 -13.33343,0.079 -15.4121,-1.1328 z m -52.8702,-2.2536 c -9.34858,-1.6479 -23.47244,-5.9199 -29.22939,-8.8408 -5.07442,-2.5746 -9.65344,-8.7611 -9.66106,-13.0528 -0.01,-5.1449 4.42699,-7.3963 14.23156,-7.2228 17.20104,0.3044 39.14738,8.5655 47.63112,17.9295 2.51359,2.7743 4.5701,5.5179 4.5701,6.0969 0,4.8237 -14.18313,7.4449 -27.54233,5.09 z m -71.5791,-36.1218 c -8.90604,-4.6949 -16.45223,-15.5726 -14.43675,-20.8102 2.39226,-6.2164 32.07823,8.5087 32.07823,15.9116 0,6.7263 -9.2843,9.3043 -17.64148,4.8986 z m 249.54594,-1.3602 c 0,-4.5169 2.45904,-7.6417 20.59301,-26.1679 20.03203,-20.4654 26.77476,-30.2014 28.20751,-40.7295 1.51266,-11.1157 3.30432,-11.9233 22.02435,-9.9278 7.94803,0.8472 9.10289,0.6756 12.25699,-1.8218 4.90524,-3.884 7.63324,-9.8367 13.57311,-29.61814 6.13441,-20.4293 7.04869,-22.4927 9.0717,-20.4723 0.95208,0.9508 1.39844,6.475 1.29846,16.0717 -0.18733,17.9738 -4.06597,34.10904 -12.28427,51.10294 -12.80824,26.4852 -38.01658,57.136 -49.31657,59.9642 -3.38205,0.8463 -5.26015,-1.0193 -5.29194,-5.2568 -0.0501,-6.7536 -5.80688,-7.17 -14.88089,-1.0764 -14.20088,9.5364 -25.25146,13.0075 -25.25146,7.9318 z m 64.50383,-35.4289 c 6.47869,-9.9061 12.70085,-19.788 13.82702,-21.9596 1.99744,-3.8518 1.98611,-3.9156 -0.4635,-2.6084 -1.3811,0.737 -6.70312,5.4157 -11.82668,10.397 -9.42821,9.1664 -15.89917,19.4079 -15.89917,25.1633 0,3.1727 1.12457,7.0187 2.05229,7.0187 0.29183,0 5.83136,-8.105 12.31004,-18.011 z m -243.75971,31.7181 c -18.30385,-4.6827 -51.32986,-23.2695 -79.59964,-44.7981 -5.51556,-4.2002 -13.20978,-9.3294 -17.09825,-11.398 -7.17916,-3.8191 -15.49864,-4.9964 -16.39326,-2.3199 -0.26505,0.7927 0.01,5.4333 0.60049,10.3125 0.59538,4.8793 0.90616,15.4623 0.69075,23.5177 -0.47033,17.5856 -1.54145,19.6241 -8.5397,16.2517 -2.41301,-1.1627 -7.34884,-4.9661 -10.96845,-8.4519 -8.16224,-7.8602 -8.62504,-11.48 -2.19369,-17.1577 8.64148,-7.629 4.80285,-15.8918 -16.56104,-35.6479 -17.63787,-16.3106 -23.04403,-23.11144 -22.10278,-27.80454 0.87106,-4.3432 -2.4805,-10.1209 -16.73883,-28.8553 -5.43364,-7.1394 -13.47704,-18.8869 -17.87435,-26.1057 -11.46445,-18.82076 -30.7388,-56.96192 -33.83236,-66.94946 -3.02169,-9.75545 -2.36762,-11.38276 5.05806,-12.58438 3.59675,-0.58202 4.9249,-0.1025 7.88064,2.8448 4.24097,4.22903 8.94986,13.18225 12.32478,23.43367 5.90757,17.94463 25.5823,52.19763 49.40543,86.01287 30.54871,43.36194 38.45823,53.49254 41.76446,53.49254 2.93599,0 6.34521,-3.9208 6.34521,-7.2974 0,-4.9427 -14.32062,-30.40514 -32.26546,-57.36894 -20.59462,-30.94514 -32.09397,-50.61315 -44.152,-75.51592 -11.40198,-23.54774 -17.85479,-42.67222 -17.34866,-51.41745 0.31208,-5.39283 0.78211,-6.52533 2.70865,-6.52533 4.70969,0 22.67469,34.37888 35.21608,67.39149 6.30339,16.59245 10.97357,24.95871 25.17986,45.10851 14.68394,20.8273 20.5168,30.5792 22.66807,37.8992 2.60445,8.8617 12.0468,18.3219 24.48389,24.5301 8.84988,4.41764 9.55768,4.56334 18.24339,3.75384 8.37253,-0.7803 9.6371,-0.5617 17.21608,2.9749 4.4989,2.0993 13.48356,7.5043 19.96585,12.011 20.92555,14.5484 37.9862,20.7131 43.86288,15.8496 1.14203,-0.945 2.42134,-3.8693 2.84293,-6.4985 1.28332,-8.003 3.83051,-9.2762 18.46551,-9.2298 11.23942,0.036 13.60981,0.4498 20.47899,3.5785 15.70964,7.1553 15.25355,11.5946 -1.1336,11.0342 -16.32627,-0.5584 -23.28651,3.197 -20.95443,11.3055 2.06091,7.1658 6.28193,8.1416 41.43443,9.5793 27.64191,1.1303 33.06321,1.8016 31.74398,3.9301 -0.36844,0.5945 -5.46893,3.6895 -11.33438,6.8777 -5.86546,3.1883 -10.4512,6.4398 -10.19046,7.2257 0.31328,0.9438 7.03325,1.6876 19.80298,2.1915 20.53766,0.8106 24.19458,1.3913 31.39631,4.9863 5.7404,2.8655 6.97528,5.8175 3.77044,9.0134 -5.21492,5.2001 -30.32809,3.9553 -50.90717,-2.5235 -8.33101,-2.6227 -11.07365,-4.1949 -15.97337,-9.1555 -3.25339,-3.294 -8.04822,-6.7415 -10.65507,-7.6612 -6.88724,-2.4299 -27.37275,-2.1388 -29.94441,0.4256 -1.80259,1.7975 -1.54987,2.2864 2.83821,5.4916 7.87222,5.7503 11.71145,9.6246 11.71145,11.8188 0,5.2957 -15.44378,6.4902 -31.33844,2.4238 z m 3.66936,-15.8668 c 2.19068,-2.6503 3.85187,-6.1123 3.85187,-8.0277 0,-4.9708 -8.05383,-11.1914 -25.69752,-19.8477 -22.22352,-10.9034 -58.85159,-26.2375 -59.34749,-24.8454 -1.06069,2.9776 14.96915,21.808 27.00431,31.7223 11.11086,9.1528 18.59237,12.6778 23.21492,10.938 5.50844,-2.0733 10.14783,0.2312 15.98461,7.9401 6.3458,8.3813 9.45077,8.8206 14.9893,2.1204 z m 325.74006,12.7168 c -8.49567,-4.5979 -15.25374,-24.9416 -15.34149,-46.1821 -0.0552,-13.4271 0.0361,-13.8829 3.88606,-19.4101 5.3138,-7.6282 7.96579,-17.2091 7.96579,-28.77804 0,-18.9808 5.69256,-41.6137 11.93799,-47.4645 4.15823,-3.8954 5.84529,-2.1493 6.96746,7.2113 2.13211,17.7855 -3.62573,51.92704 -12.42958,73.70154 -9.05836,22.4039 -8.19081,29.4735 4.85661,39.5772 4.2886,3.3208 7.74696,7.0755 8.20926,8.9122 1.11325,4.423 -1.67873,10.3995 -5.86715,12.5594 -4.33684,2.2362 -5.85352,2.2174 -10.18495,-0.1269 z m -190.80777,-4.5643 c -1.08135,-1.5395 -1.96605,-4.3183 -1.96605,-6.175 0,-5.7054 -5.49451,-10.8794 -12.5436,-11.8119 -3.84956,-0.5091 -7.04609,-1.8048 -8.64791,-3.5049 -8.01481,-8.5074 -8.57479,-31.7772 -0.91718,-38.1101 1.15335,-0.9537 8.71088,-3.0741 16.79469,-4.7118 21.48233,-4.3522 36.78411,-12.1979 51.00083,-26.14984 8.72512,-8.5626 12.0836,-15.1206 13.27196,-25.9155 1.26035,-11.449 4.10638,-14.6138 13.14188,-14.6138 7.2261,0 15.45281,2.5665 29.43587,9.183 15.61637,7.3892 18.43122,7.354 14.5639,-0.1826 -2.87631,-5.6054 -3.45645,-12.7655 -2.04055,-25.18549 2.64285,-23.18356 8.57319,-45.84202 16.20944,-61.93304 4.52196,-9.52856 10.4542,-16.97209 12.16603,-15.26518 0.43744,0.43626 -0.0923,4.32911 -1.17832,8.65076 -1.08547,4.32165 -4.0048,22.48255 -6.48731,40.35755 -5.79064,41.6939 -8.87565,60.0598 -12.17817,72.5 -3.05191,11.4956 -6.78394,20.8053 -8.85118,22.0793 -0.82192,0.5066 -3.13855,-1.0731 -5.46281,-3.7249 -4.6761,-5.335 -6.5191,-4.9134 -11.75518,2.6894 -5.29273,7.68494 -8.09625,8.94634 -20.08799,9.03774 -9.35841,0.071 -11.52893,0.5374 -17.46458,3.75 -3.72792,2.0177 -11.78336,8.0696 -17.90102,13.4488 -17.89871,15.7381 -24.15306,16.5982 -32.85612,4.5183 -5.26827,-7.3123 -9.16447,-8.1338 -12.97703,-2.7361 -5.30447,7.5101 -4.94365,13.3139 0.90024,14.4794 4.63809,0.925 8.59576,8.8086 10.2761,20.4702 1.24271,8.624 0.48006,19.8305 -1.42953,21.0074 -0.57763,0.356 -1.93506,-0.6122 -3.01641,-2.1517 z m 79.92565,-87.89864 c 7.14637,-5.4413 12.12362,-13.59 12.12362,-19.8487 0,-8.1835 -3.64689,-11.8826 -9.21892,-9.351 -5.30407,2.4098 -14.5983,20.5895 -14.5983,28.5543 0,6.5672 3.65141,6.7688 11.6936,0.6454 z m -61.21525,74.39474 c -1.60944,-2.5968 1.04465,-6.3546 11.3744,-16.105 13.55676,-12.7964 35.92328,-27.9187 40.50832,-27.3883 2.82507,0.3268 3.33511,1.0516 3.67848,5.2277 0.56158,6.8293 -1.65196,11.2329 -8.92369,17.7523 -14.26255,12.7871 -43.46516,25.6316 -46.63751,20.5133 z m -393.21328,-13.6559 c -6.54451,-5.1334 -26.53894,-38.6598 -39.26878,-65.84554 -0.67926,-1.4506 -3.40511,-5.7723 -6.05748,-9.6037 -8.29927,-11.9887 -6.25813,-20.19 4.82246,-19.3768 4.83102,0.3546 5.32496,0.8246 13.52361,12.868 15.38613,22.6016 46.63846,76.07194 47.48906,81.25004 0.37386,2.2756 -0.38418,2.5325 -8.44463,2.8626 -7.33119,0.3001 -9.40755,-0.07 -12.06424,-2.1546 z m 311.62904,-13.6966 c -12.2954,-7.4766 -12.02303,-20.3466 0.3524,-16.6493 8.40582,2.5114 15.79778,11.7418 13.72222,17.1352 -1.03081,2.6786 -9.34216,2.3917 -14.07462,-0.4859 z m -239.31446,-1.2493 c -6.31653,-3.9532 -15.73401,-14.6809 -34.68619,-39.51214 -59.00146,-77.30405 -82.0036,-112.47994 -81.02961,-123.91415 0.52286,-6.1383 3.09392,-7.60962 9.79758,-5.60682 6.51086,1.94518 15.23037,9.7653 21.33688,19.13603 3.60668,5.53463 5.10051,9.64365 6.72513,18.49859 1.66351,9.06696 3.38721,13.71578 8.47019,22.84419 8.98747,16.14026 9.39752,16.72466 19.05799,27.16176 20.44158,22.0847 55.96894,73.85524 55.96894,81.55794 0,2.7849 -0.97244,2.7564 -5.64091,-0.1654 z m 512.50052,-2.0717 c -2.52413,-6.5593 4.13777,-19.8253 11.22006,-22.3429 9.77729,-3.4757 9.30346,12.8451 -0.61453,21.167 -4.17318,3.5016 -9.48397,4.0905 -10.60553,1.1759 z m 179.67064,-8.8893 c -0.41697,-0.4157 -1.134,-4.0693 -1.59349,-8.119 -0.4595,-4.0497 -1.43365,-7.7318 -2.16491,-8.1824 -0.73127,-0.4507 -4.6057,2.7324 -8.6097,7.0736 -6.27742,6.8058 -7.27724,7.4822 -7.25909,4.9099 0.0582,-8.2029 18.95409,-44.17884 29.07225,-55.35004 4.61542,-5.0957 4.64972,-5.1087 4.70076,-1.7782 0.0742,4.861 -7.13934,46.73974 -9.36964,54.39394 -1.87008,6.4177 -3.29801,8.5262 -4.77618,7.0522 z m -554.7331,-15.7503 c -3.00589,-1.5342 -9.51666,-6.4722 -14.46843,-10.97334 -11.02712,-10.0236 -15.64405,-12.2101 -21.4,-10.1346 -5.27238,1.9011 -7.68228,0.9073 -9.34697,-3.8546 -2.92917,-8.3788 -0.29454,-19.9359 4.92108,-21.5866 8.35278,-2.6436 27.59739,7.5074 44.94043,23.7048 7.96097,7.4352 10.22064,11.383 10.22064,17.85644 0,8.3519 -4.99359,10.0273 -14.86675,4.9879 z m 517.66178,-8.1902 c -0.93293,-1.7383 -0.0431,-4.42504 3.82771,-11.56254 6.32805,-11.6671 17.4013,-28.369 22.21639,-33.5089 8.01673,-8.5578 8.39078,-3.4405 1.2386,16.9413 -5.80709,16.5485 -9.45669,22.4921 -16.69161,27.18364 -5.83637,3.7845 -8.91997,4.0601 -10.59109,0.9465 z m -129.24082,-6.48564 c -3.49938,-3.4895 -3.25148,-10.5149 1.16849,-33.125 9.59999,-49.10735 11.60716,-94.31736 4.12354,-92.88021 -5.5288,1.06173 -10.30619,17.3374 -10.30619,35.11128 0,10.48635 -1.59429,15.43658 -5.35501,16.62682 -3.61299,1.14349 -8.80204,-3.28765 -10.52841,-8.99071 -3.81005,-12.58607 -0.55336,-46.19017 5.94448,-61.33739 2.6227,-6.11395 6.91471,-11.65479 9.02787,-11.65479 0.6374,0 3.05262,-0.89604 5.36695,-1.99121 5.8464,-2.76644 8.88919,-9.86095 9.79855,-22.84609 0.76005,-10.85273 3.65492,-18.2877 7.1205,-18.2877 8.67578,0 10.10933,78.01904 2.43908,132.7426 -1.36786,9.7584 -2.82206,25.2272 -3.23172,34.375 -0.88139,19.6804 -2.9761,28.5482 -7.60025,32.1754 -4.07751,3.1983 -4.83494,3.2061 -7.96788,0.082 z m -601.69804,-7.8309 c -6.45856,-3.1822 -12.9637,-22.0284 -8.2289,-23.8402 2.55493,-0.9776 9.29308,3.8959 14.13035,10.22 4.7488,6.2086 5.44647,11.9089 1.7022,13.9071 -3.05984,1.633 -3.76071,1.6065 -7.60365,-0.2869 z m 150.32562,-29.5506 c -2.35865,-1.9331 -7.39116,-4.9749 -11.18326,-6.7596 -19.90477,-9.3682 -42.12006,-35.89624 -60.38571,-72.1089 -6.79417,-13.46985 -9.02387,-20.27725 -12.35928,-37.7349 -0.74711,-3.91045 -2.71426,-8.97295 -4.37144,-11.25 -5.44155,-7.47689 -9.37816,-15.86339 -11.27532,-24.02086 -5.19656,-22.34386 8.01041,-12.2806 27.59267,21.02461 4.00791,6.81663 13.40403,25.09788 20.88023,40.625 23.2101,48.20424 26.67518,54.20638 38.66883,66.98115 12.00347,12.7853 20.09059,24.682 17.7562,26.1206 -0.5689,0.3506 -2.96426,-0.9441 -5.32292,-2.8771 z M 180.3709,715.15971 c -7.68404,-6.44744 -9.83618,-14.67971 -4.37859,-16.74884 4.82697,-1.83002 11.15883,1.25105 12.91915,6.28645 1.43445,4.10324 0.83222,9.35175 -1.39683,12.17379 -1.75362,2.2201 -2.73973,1.9839 -7.14373,-1.7114 z m 800.49593,-3.2886 c -0.41577,-1.54687 -0.76355,-13.59114 -0.77298,-26.76504 -0.0231,-31.92034 2.90149,-47.92246 8.75762,-47.92246 5.5277,0 6.30238,9.53899 3.04559,37.5 -3.63195,31.18181 -8.36019,47.1227 -11.03023,37.1875 z M 149.94575,697.09705 c -1.19315,-0.69329 -3.66776,-3.81012 -5.49912,-6.92628 -3.01119,-5.12372 -3.19256,-6.12234 -1.89575,-10.43848 1.83964,-6.12282 6.78039,-9.61049 10.93833,-7.72136 3.70818,1.68479 4.69306,5.57184 4.03257,15.91538 -0.61147,9.57586 -2.64417,12.03644 -7.57603,9.17074 z m 359.23294,-19.24892 c -3.55423,-0.99146 -15.68216,-4.99118 -26.95106,-8.88827 -11.2688,-3.89709 -25.28345,-8.13836 -31.14379,-9.42505 -25.12831,-5.51719 -39.46838,-11.59333 -54.8517,-23.24165 -16.81655,-12.73359 -31.76855,-32.84119 -54.5343,-73.33796 -12.85919,-22.87459 -19.50915,-31.60257 -28.32744,-37.1792 -7.95064,-5.0279 -10.15405,-4.66975 -16.35004,2.65761 -4.40433,5.20852 -5.98509,6.25 -9.48637,6.25 -3.12442,0 -5.00823,-0.95625 -7.34924,-3.7305 -7.11257,-8.42895 -12.49617,-31.93393 -9.68403,-42.28111 1.37428,-5.05689 1.70912,-5.36295 5.46954,-5 l 4.0057,0.38661 0,8.65376 0,8.65375 4.11812,1.08088 c 2.84503,0.74675 5.17009,0.56831 7.52123,-0.57724 5.44456,-2.65277 4.42729,-9.36141 -5.07412,-33.46271 -4.46631,-11.32914 -9.15835,-23.5714 -10.42683,-27.20501 -2.90058,-8.30883 -5.22484,-10.39922 -12.46768,-11.21328 -8.30163,-0.93308 -9.92732,-3.87606 -8.9993,-16.2908 1.43525,-19.19815 9.89743,-42.13373 16.87262,-45.73053 1.89625,-0.97783 4.44775,-2.87981 5.6701,-4.22662 2.92014,-3.21761 0.87928,-5.01595 -6.89887,-6.07906 -7.59875,-1.03858 -13.76214,1.18436 -18.6381,6.72217 -8.51002,9.66501 -12.14497,23.52494 -13.52056,51.55366 -0.79283,16.15373 -1.40476,20.3919 -3.44773,23.88014 -1.92372,3.28453 -3.30773,4.24089 -6.13712,4.24089 -8.15351,0 -8.55955,-10.83151 -1.87428,-50 7.10384,-41.62069 12.45284,-58.46526 19.5965,-61.71091 1.89224,-0.85974 6.52241,-1.08483 12.29901,-0.5979 8.80103,0.74186 9.4268,0.6188 12.51522,-2.46082 1.78794,-1.78296 3.25087,-4.41602 3.25087,-5.85125 0,-15.73848 20.5877,-74.13827 38.41652,-108.97332 8.61882,-16.84006 10.91169,-19.7808 15.42312,-19.7808 10.29546,0 8.70206,14.16667 -3.06354,27.23668 -6.44479,7.15932 -10.80781,15.53623 -15.60775,29.96696 -8.53479,25.6589 -13.80135,60.89531 -10.12538,67.74455 1.46734,2.73404 0.96102,3.47904 -8.15511,11.99845 -6.7668,6.32392 -9.48748,9.68643 -8.95567,11.06838 0.42018,1.09174 1.81141,1.98498 3.09182,1.98498 3.72501,0 7.50899,5.09394 9.52909,12.82804 1.10402,4.22633 2.17243,16.03081 2.60084,28.73501 0.87116,25.82978 3.17566,44.04693 8.1133,64.13493 11.18376,45.49906 31.92128,86.97853 62.76934,125.55202 13.84267,17.30931 48.35366,51.24345 59.74561,58.74696 13.13105,8.64894 19.1717,9.80862 54.30505,10.42539 32.26435,0.5664 37.80439,-0.15255 49.31537,-6.39998 8.27987,-4.49373 18.79404,-14.97988 29.46195,-29.38333 4.7841,-6.45935 10.25845,-12.96799 12.16523,-14.46364 3.03196,-2.37816 3.78739,-2.50717 6.02119,-1.02819 1.40487,0.93015 3.14949,2.63339 3.87694,3.78498 2.00125,3.16807 -3.59324,12.74486 -17.46769,29.90132 -16.48162,20.38051 -22.33483,30.99679 -17.90212,32.47018 2.80311,0.93175 -2.15208,6.49302 -11.39948,12.79362 -10.11755,6.89352 -16.5141,8.08014 -27.31498,5.06721 z M 278.72433,404.67001 c 0.83094,-6.02488 -0.87587,-17.649 -3.1168,-21.22595 -0.88339,-1.41006 -1.52109,-1.51256 -2.61618,-0.42053 -1.69047,1.68564 -1.16318,27.46585 0.61945,30.28694 1.70491,2.69818 4.1102,-1.36612 5.11353,-8.64046 z m -142.81715,245.8648 c -7.24675,-9.47416 -15.35479,-31.59484 -23.23932,-63.40246 -11.1062,-44.80443 -14.179484,-78.69874 -7.13583,-78.69874 7.19686,0 34.21926,99.36061 36.77077,135.20511 0.68442,9.61474 0.52671,11.04489 -1.218,11.04489 -1.10231,0 -3.43225,-1.86696 -5.17762,-4.1488 z m 27.50554,-23.84686 c -4.43693,-4.42442 -7.25341,-15.72018 -7.40557,-29.70086 -0.0723,-6.63934 0.33828,-12.5452 0.91234,-13.12414 1.16458,-1.17445 5.62493,3.56021 11.89352,12.62495 2.4246,3.50611 4.6272,5.55582 5.27551,4.90935 0.86243,-0.86 9.99182,-37.36047 9.99182,-39.94857 0,-0.31878 4.20335,4.07553 9.34076,9.76516 10.5494,11.68332 21.46226,31.38597 22.76945,41.10902 0.68423,5.08995 0.43182,6.00385 -2.15765,7.8125 -4.03604,2.81898 -7.91991,2.56475 -11.67564,-0.76425 -2.87628,-2.54949 -4.14731,-6.03469 -6.35022,-17.41259 -0.74932,-3.87022 -3.75966,-7.27491 -6.43229,-7.27491 -2.68244,0 -7.76008,5.48069 -8.76065,9.45605 -0.47363,1.88175 -0.21453,5.20451 0.57578,7.3839 2.3714,6.5395 1.75843,10.53175 -2.22726,14.5062 -4.75405,4.74065 -11.37827,5.01747 -15.7499,0.65819 z m 477.23479,-3.58264 c -4.26043,-4.52224 -5.9513,-18.11769 -4.28409,-34.44668 2.43637,-23.86182 6.97628,-41.2223 13.18591,-50.42154 2.49534,-3.69673 3.68229,-4.28497 10.29515,-5.10207 10.96916,-1.3554 20.06854,-0.069 24.12488,3.41073 6.97198,5.9808 4.1079,14.9615 -14.55447,45.63786 -9.11242,14.97859 -9.51525,15.96685 -9.73698,23.88802 -0.26234,9.37092 -1.33968,11.98498 -6.84241,16.60215 -4.77598,4.00737 -8.68862,4.14589 -12.18799,0.43153 z m 348.79583,-2.95234 c -4.36241,-4.69385 -7.25929,-13.32945 -14.96012,-44.5953 -6.15808,-25.00225 -10.25103,-44.61046 -18.05555,-86.49906 -4.16546,-22.35663 -13.91237,-51.85805 -33.45181,-101.25 -20.15648,-50.95183 -33.27069,-78.14572 -50.19204,-104.07912 -12.87765,-19.73614 -35.07258,-49.05478 -50.18303,-66.28976 -36.51535,-41.64943 -54.37866,-64.81872 -56.33548,-73.06862 -2.35023,-9.90886 12.23864,1.5357 48.9712,38.4164 26.19302,26.29866 39.69141,38.1461 43.46196,38.1461 1.88622,0 1.08054,-6.26771 -1.43866,-11.19176 -1.36245,-2.6632 -5.11935,-7.00017 -8.34847,-9.63771 -8.42256,-6.87948 -13.47873,-19.35319 -8.60127,-21.21957 3.51733,-1.34593 7.92216,0.7799 15.02079,7.24934 7.76963,7.081 13.5702,17.1462 14.92251,25.89375 1.34039,8.6711 2.81435,10.55721 7.64006,9.77631 8.21248,-1.32892 16.9715,8.12368 37.4169,40.37964 12.9341,20.40556 23.2814,33.14489 28.78333,35.43725 5.73869,2.39104 14.97205,13.08469 22.90815,26.53116 3.71648,6.29693 8.91646,14.05467 11.55561,17.23941 5.56851,6.71967 18.142,27.47893 26.09298,43.08083 9.5263,18.69254 10.3023,27.42241 2.3854,26.83342 -5.6259,-0.41855 -9.17912,-3.72823 -13.7774,-12.83342 -11.59191,-22.95346 -59.67691,-88.90747 -100.73087,-138.16365 -10.37096,-12.44299 -26.54401,-29.375 -28.05828,-29.375 -2.22678,0 -0.69265,6.60192 3.31656,14.27195 2.35846,4.51199 10.46273,17.06849 18.00942,27.90332 7.5467,10.83485 19.75666,28.79399 27.13328,39.90921 15.6277,23.54786 24.52471,32.91552 31.26202,32.91552 3.42828,0 4.95488,0.80923 7.04298,3.73344 4.19895,5.88019 11.68056,22.7984 18.80196,42.51656 8.83954,24.4757 17.72492,41.56531 25.47108,48.98945 3.3654,3.22544 5.74985,6.45981 5.29895,7.1875 -1.28222,2.06855 -9.29382,1.55281 -13.42899,-0.86445 -7.63836,-4.46514 -17.34716,-22.40649 -28.51508,-52.69426 -5.92742,-16.07533 -9.06207,-22.68403 -11.85696,-24.99698 -10.03432,-8.30426 -2.1625,28.85448 27.61233,130.34259 19.56962,66.70354 23.08184,81.15124 23.91278,98.36738 1.01426,21.01422 -2.30952,28.92962 -9.08624,21.63813 z m 22.96726,-17.96936 c -4.5128,-6.87199 -17.63943,-51.70343 -23.42385,-80 -7.476,-36.57149 -5.52409,-53.2087 5.09157,-43.39819 6.26578,5.79045 15.52938,33.64258 19.21568,57.77319 2.3726,15.53136 3.7305,52.65704 2.2632,61.875 l -1.0943,6.875 -2.0523,-3.125 z M 230.91751,588.79 c -3.50579,-0.44014 -4.21088,-1.26375 -6.51729,-7.61246 -6.28153,-17.29147 -12.93612,-40.14575 -15.2821,-52.48446 -3.23605,-17.02007 -5.82983,-25.92716 -8.25403,-28.34452 -2.82813,-2.82016 -4.03724,-8.0082 -6.70967,-28.78995 -4.69608,-36.51871 -6.74028,-66.80045 -6.83495,-101.25 -0.0917,-33.37824 0.83988,-42.1214 4.26329,-40.0116 3.52161,2.17034 8.08066,27.42873 10.67849,59.16171 2.76437,33.76715 4.15451,46.39827 7.04086,63.97489 5.22845,31.83882 14.59218,67.18421 26.16103,98.75 2.89758,7.90625 6.3421,17.31408 7.6545,20.90627 1.31231,3.5922 2.38604,7.41464 2.38604,8.49432 0,2.77 -5.71192,8.13868 -8.40442,7.89936 -1.2379,-0.11 -4.01965,-0.42213 -6.18175,-0.69356 z m -88.41339,-20.9917 c -1.45778,-2.2476 -4.58837,-19.58485 -6.65664,-36.86469 -1.11091,-9.28125 -3.13485,-24.5286 -4.49765,-33.88299 -2.77401,-19.04121 -3.32481,-31.96989 -1.44197,-33.84741 2.00093,-1.99528 7.35762,2.29224 10.17797,8.14644 5.04676,10.47563 5.65079,16.21366 5.2854,50.20896 -0.35042,32.601 -1.3419,48.59126 -2.86711,46.23969 z m 32.35192,-18.13263 c -1.80923,-2.14407 -4.28152,-7.09528 -5.49398,-11.00268 -4.30149,-13.86247 -2.0948,-62.59734 3.49864,-77.2674 1.93272,-5.069 3.02203,-2.38408 4.88401,12.03802 0.84323,6.53125 3.45985,21.52698 5.8147,33.32384 4.82922,24.19246 5.37562,35.10947 2.08592,41.67616 -2.92305,5.83477 -6.55539,6.24956 -10.78929,1.23206 z m 79.90376,-6.66992 c -5.3859,-6.51557 -14.99693,-26.42228 -16.8649,-34.93098 -1.39995,-6.37707 -1.3477,-7.48566 0.43654,-9.26484 1.86656,-1.86132 2.32887,-1.69843 5.85141,2.06187 8.05744,8.60116 18.3552,37.72654 15.55299,43.98881 -1.17311,2.62164 -1.32133,2.5664 -4.97604,-1.85486 z m 207.53839,-25.33968 c -7.22168,-7.56881 -16.28757,-14.22246 -19.37869,-14.22246 -1.60884,0 -4.67078,1.46471 -6.8043,3.2549 -2.96728,2.48975 -4.66637,3.05791 -7.2276,2.4169 -9.74209,-2.43822 -15.5217,-11.82909 -15.54096,-25.25134 -0.015,-10.59046 2.53797,-17.99832 8.45366,-24.52777 l 4.55756,-5.0304 -0.82112,-15.11864 c -0.7093,-13.06041 -0.51946,-15.70216 1.39454,-19.4048 4.43883,-8.5869 12.45806,-11.14606 26.3638,-8.41352 l 5.34509,1.05033 3.14106,-6.84156 c 4.05113,-8.82396 2.97219,-12.1346 -5.32152,-16.32849 -8.55885,-4.32802 -10.71784,-7.19145 -11.3744,-15.08572 -0.68463,-8.23273 2.52192,-18.86603 10.63883,-35.27995 6.20992,-12.55775 11.5192,-19.78589 15.24733,-20.75806 3.76763,-0.98248 9.533,2.48533 13.65383,8.21266 5.78302,8.03755 23.63811,41.67217 27.32852,51.48046 10.04375,26.69335 11.06172,56.22738 2.85827,82.92491 -4.21931,13.73143 -13.16506,29.6295 -21.64679,38.47017 -8.38246,8.73708 -11.57366,10.16016 -10.18645,4.54242 2.04237,-8.27029 2.07777,-10.19121 0.25322,-13.7096 -4.80115,-9.2582 -22.63468,-22.489 -32.00101,-23.74175 -10.26868,-1.37342 -13.98196,1.61803 -10.96023,8.82959 2.11216,5.04092 7.79901,9.8871 17.09093,14.56441 8.81116,4.43529 10.85543,8.21951 12.03045,22.27014 1.00514,12.01742 -0.16617,12.95802 -7.09402,5.69717 z m 31.06737,-68.32476 c 3.38586,-3.39065 3.46849,-3.81118 3.31406,-16.875 -0.26966,-22.81637 -7.54861,-69.82173 -13.10569,-84.6324 -5.15826,-13.74768 -9.61483,-15.11345 -15.26187,-4.6772 -4.15964,7.68727 -9.54724,25.2412 -10.53383,34.32142 -0.92531,8.51517 0.6361,9.80832 8.85339,7.3324 13.47362,-4.05968 16.02623,-2.88586 18.39782,8.46038 1.70591,8.16177 0.90786,27.15294 -1.47436,35.0815 -3.86451,12.86245 -12.35577,15.87496 -23.15846,8.2162 -4.87806,-3.45844 -7.36669,-4.375 -11.87852,-4.375 -10.07704,0 -11.58088,5.16955 -3.68329,12.66114 7.1251,6.75887 13.95869,8.57663 30.98123,8.24123 13.55886,-0.26716 14.20499,-0.40538 17.54952,-3.75467 z m -260.42033,31.57925 c -4.75592,-4.74247 -4.48455,-21.22465 0.39873,-24.21876 1.89344,-1.16098 3.05141,-0.53751 7.20784,3.88091 4.01964,4.27313 4.95188,6.18273 4.95188,10.14393 0,8.73866 -7.72751,15.01123 -12.55845,10.19392 z M 98.845323,475.32311 c -3.160744,-8.28992 -4.044899,-22.22082 -3.412284,-53.7645 0.774536,-38.6203 2.652861,-48.03907 7.656081,-38.39121 5.5136,10.63205 8.81001,52.49906 5.87689,74.64121 -2.17812,16.44269 -7.20952,25.14984 -10.120687,17.5145 z m -36.240929,-7.202 c -2.516552,-14.001 -4.286507,-37.65068 -3.363011,-44.93554 1.044378,-8.23831 4.531729,-13.50196 8.945535,-13.50196 7.496546,0 8.824354,15.31366 3.697676,42.64549 -3.166366,16.88079 -5.13423,23.60451 -6.908457,23.60451 -0.532131,0 -1.599413,-3.51563 -2.371743,-7.8125 z m 309.058616,-1.72279 c -3.70165,-1.99991 -3.78859,-2.74849 -1.32203,-11.38025 0.63679,-2.22869 -0.46842,-4.00704 -5.48919,-8.83265 -7.2984,-7.01458 -10.03934,-14.25507 -14.02438,-37.04663 -5.84901,-33.45229 -6.93858,-62.62322 -3.27133,-87.58018 4.02265,-27.37492 11.34,-40.36549 15.94991,-28.31607 3.06906,8.02167 3.79842,17.2586 4.80265,60.81607 1.42904,61.98154 3.34524,72.45786 17.48755,95.60854 7.19541,11.77857 7.85116,16.21296 2.61077,17.65492 -5.44837,1.49923 -13.03388,1.08074 -16.74395,-0.92375 z M 148.50897,452.75921 c -1.56207,-4.05919 -0.85451,-21.45884 0.93277,-22.93796 2.5686,-2.12573 4.82642,1.31747 5.46969,8.34134 0.85465,9.332 -4.09016,20.60538 -6.40246,14.59662 z m 19.53001,-20.2484 c -10.33383,-14.5958 -15.89831,-36.21476 -19.06663,-74.0772 -3.13114,-37.4181 -8.83078,-53.16277 -22.24135,-61.43951 -6.91282,-4.26645 -4.51496,-7.21464 5.9543,-7.32088 2.41306,-0.0245 6.80912,-1.14052 9.76901,-2.4801 4.28736,-1.94033 5.91483,-3.63757 8.00395,-8.34705 2.24842,-5.06859 2.52065,-7.47632 1.90928,-16.8864 -0.694,-10.68181 -0.62706,-11.04236 2.50678,-13.50049 3.90571,-3.06356 8.25062,-3.24327 11.04495,-0.45683 2.9866,2.97819 2.0017,11.07288 -4.20118,34.5283 -2.86856,10.84712 -5.21557,20.52322 -5.21557,21.50245 0,0.97922 2.67944,3.57647 5.9543,5.77167 15.40909,10.32894 17.54271,15.18383 12.48872,28.41699 -5.11793,13.40056 -5.84588,16.44635 -7.12153,29.79693 -1.25152,13.09801 -0.44146,24.76528 3.14286,45.26616 2.09044,11.9564 2.36553,20.92219 0.67396,21.96469 -0.63674,0.39241 -2.25756,-0.84003 -3.60185,-2.73873 z M 394.869,430.54217 c -0.75132,-0.90279 -2.52593,-8.91841 -3.94353,-17.8125 -2.91473,-18.2871 -5.26927,-26.42875 -9.01735,-31.18022 -3.38796,-4.29497 -2.60254,-13.1525 1.558,-17.56868 5.32763,-5.65499 18.08985,-2.72187 22.70919,5.21922 4.44093,7.63436 8.57138,38.93798 6.74252,51.09958 -1.18414,7.87399 -5.15404,11.88404 -11.765,11.88404 -2.70473,0 -5.53241,-0.73865 -6.28383,-1.64144 z M 25.80388,394.37111 c -1.134903,-0.85938 -2.557919,-2.96875 -3.162274,-4.6875 -2.163646,-6.1533 2.738037,-52.35584 6.352246,-59.87534 2.243301,-4.6673 6.053845,-4.18191 8.834552,1.12534 2.019088,3.85361 2.205895,6.46056 1.567494,21.875 -0.763956,18.44638 -2.398018,32.30096 -4.607172,39.0625 -1.440736,4.40966 -5.113401,5.43156 -8.984846,2.5 z m 38.083906,-5.466 c -2.442493,-9.1835 -4.190035,-38.04982 -3.604944,-59.54738 0.629828,-23.14107 3.213419,-35.55356 8.368607,-40.20577 2.355177,-2.12539 2.471766,-2.04471 3.767001,2.60669 2.759347,9.90922 1.056823,59.6719 -3.002202,87.75107 -1.973189,13.64993 -3.642419,16.48671 -5.528462,9.39539 z m 59.996744,-6.409 c -7.22565,-19.14118 -11.03736,-44.36238 -7.18622,-47.54951 4.79234,-3.96607 10.76278,5.40976 14.19226,22.28715 2.03206,10.0004 1.94012,24.86016 -0.18806,30.39046 -1.52371,3.95952 -4.12648,2.00186 -6.81798,-5.1281 z m 90.69261,-17.20945 c -3.89072,-4.04911 -5.42604,-6.68938 -5.42604,-9.33103 0,-6.63442 8.18579,-8.10933 13.82079,-2.49022 4.01262,4.00132 2.82206,17.4682 -1.54436,17.4682 -0.78341,0 -3.86611,-2.54113 -6.85039,-5.64695 z M 94.657441,352.89065 c -1.876526,-4.87635 -3.559265,-24.75687 -3.112274,-36.76952 0.511644,-13.75001 2.56162,-20.81252 6.041093,-20.81252 4.20994,0 5.64386,6.76246 5.56603,26.25 -0.0609,15.25621 -0.52808,20.01561 -2.50708,25.54209 -2.503121,6.99021 -4.706133,9.12042 -5.987769,5.78995 z m 98.903629,-34.32928 c -1.85544,-2.99369 -3.42189,-22.2178 -2.8114,-34.50276 1.11278,-22.39282 5.2316,-38.28239 16.201,-62.5 12.88547,-28.44793 15.59211,-37.26026 12.76533,-41.5625 -5.59703,-8.51849 -15.57499,1.48024 -28.75382,28.81369 -9.3423,19.37632 -15.65025,25.68965 -17.66598,17.68102 -2.56232,-10.18031 4.15623,-27.39942 16.95926,-43.46522 11.4065,-14.31338 21.89242,-19.95221 28.22335,-15.17724 6.663,5.0254 12.82208,0.32098 22.02255,-16.82105 7.52534,-14.02116 13.90374,-22.95249 19.16208,-26.83181 3.23131,-2.38386 3.76913,-2.43823 6.89445,-0.69695 2.54809,1.41965 3.48454,3.01227 3.77145,6.41392 0.55035,6.52453 -2.09201,11.75317 -11.27713,22.31528 -10.43023,11.99375 -14.37767,17.89466 -21.67768,32.40507 -13.4678,26.77045 -24.15545,60.0805 -27.65932,86.20533 -4.43579,33.07315 -11.78242,54.77686 -16.15414,47.72322 z m 51.10324,-7.10447 c -2.60315,-6.76453 3.16713,-29.57379 13.53479,-53.50179 8.95147,-20.6595 13.03579,-25.37755 17.41445,-20.1165 2.61789,3.14548 0.59367,16.0804 -5.07994,32.46076 -10.54445,30.44297 -22.6072,49.63452 -25.8693,41.15753 z m -25.48492,-4.11138 c 0,-5.50771 5.28682,-32.00331 8.87945,-44.50041 21.1174,-73.45769 83.72659,-167.721207 138.41121,-208.390117 9.59709,-7.13735 15.83349,-10.48283 41.6693,-22.3532 6.37148,-2.92738 12.49075,-6.32109 13.59837,-7.54158 4.94847,-5.45257 -2.85505,-6.27702 -22.20145,-2.3456 -17.73746,3.60446 -24.08317,6.31139 -40.81779,17.41189 -17.12874,11.36191 -29.14194,21.86886 -45.08504,39.43211 -16.36558,18.02871 -28.29164,28.859117 -33.76067,30.658947 -4.37766,1.4407 -4.90755,1.34623 -7.0168,-1.25127 -1.25484,-1.54531 -2.28154,-4.66607 -2.28154,-6.93504 0,-5.138597 5.47234,-10.158287 12.25889,-11.244907 9.29784,-1.48874 10.68726,-2.04187 14.38059,-5.72473 3.18799,-3.17904 3.64589,-4.41221 3.03386,-8.17253 -0.9572,-5.88181 -2.88264,-7.95547 -7.38705,-7.95547 -5.57573,0 -11.74274,3.40621 -20.04637,11.07229 -12.38957,11.43816 -21.09273,25.035267 -26.87464,41.986967 -5.29775,15.5319 -12.78809,23.19074 -22.68081,23.19074 -6.39986,0 -8.40583,-2.28894 -7.4038,-8.44808 1.86076,-11.43813 15.18355,-30.89195 44.4695,-64.933947 22.41325,-26.05316 25.82237,-31.43831 21.05703,-33.26181 -2.41652,-0.92466 -10.25815,0.99756 -13.97414,3.4255 -22.79563,14.89417 -75.83693,94.221137 -99.52271,148.843337 -13.4083,30.92111 -21.88957,45.56403 -24.74292,42.71872 -1.64267,-1.63804 -0.3734,-11.81628 2.53378,-20.31828 1.62686,-4.75774 6.1041,-15.98899 9.9494,-24.95833 3.8453,-8.96934 8.49626,-20.77796 10.33546,-26.24136 4.46335,-13.25859 7.49792,-18.99465 18.92687,-35.77635 22.47422,-32.999987 25.52228,-37.871797 29.18752,-46.651287 2.11807,-5.07337 3.85096,-10.53782 3.85096,-12.14321 0,-7.15265 8.23253,-16.80366 22.4313,-26.29619 5.2437,-3.50562 17.43119,-12.84105 27.08343,-20.74541 17.01131,-13.9308201 44.18399,-32.90115 49.56719,-34.60491 6.00735,-1.90127 4.4298,1.02527 -10.4531,19.3916099 -10.2051,12.5936901 -12.91415,17.2509501 -11.0918,19.0682201 5.8132,5.79678 120.52192,-70.22513 120.52192,-79.87455 0,-1.17855 -1.74743,-1.69367 -5.74542,-1.69367 -7.44791,0 -6.95191,-1.3409 3.64178,-9.84558 4.6042,-3.69631 8.37133,-7.42757 8.37133,-8.2917 0,-2.14248 -4.11401,-3.0718 -13.78892,-3.1148 -4.48134,-0.0199 -8.99408,-0.60078 -10.0283,-1.29082 -2.48832,-1.66031 -0.6399,-3.06085 16.05732,-12.1665 16.47168,-8.982653 26.38827,-19.183093 21.54881,-22.165603 -2.39556,-1.47638 -1.23328,-3.12492 2.19369,-3.11148 1.89595,0.008 6.26458,0.86569 9.708,1.9072 10.12397,3.06213 15.67614,0.4873 15.67614,-7.26981 0,-1.6574 0.98718,-3.87326 2.19369,-4.92415 5.62848,-4.90235 10.61164,-5.35176 59.34277,-5.35176 38.26188,0 47.51489,-0.32494 49.21689,-1.72835 3.02955,-2.49819 1.3104,-4.01504 -13.5733,-11.97605 -20.02963,-10.71344 -21.78869,-12.96389 -12.20755,-15.61735 10.62067,-2.94136 17.52024,-1.75266 47.49152,8.18219 34.02202,11.27756 58.17728,20.63116 67.11651,25.98945 5.91138,3.54331 6.73049,4.60093 8.95287,11.56062 4.34797,13.61634 2.516,14.1498 -22.8189,6.64496 -26.46067,-7.83833 -35.12854,-7.17871 -41.53692,3.161 -5.7043,9.203823 -14.73188,10.936243 -35.19803,6.7547 -12.55263,-2.56468 -17.69243,-2.91738 -41.28852,-2.83328 -28.26316,0.10075 -44.94334,1.73735 -75.83903,7.441153 -22.61632,4.17532 -25.56103,5.12957 -27.25251,8.83157 -2.21936,4.85728 0.57172,17.82044 6.48099,30.10106 6.37911,13.25688 6.50566,16.87329 0.7791,22.25892 -2.37771,2.23617 -3.97602,4.41197 -3.55162,4.8351 1.45571,1.45166 22.01733,0.76826 38.12228,-1.26708 17.97774,-2.27201 19.46614,-1.90965 20.13503,4.90208 0.98397,10.02163 24.0975,14.4832 38.53795,7.43892 4.3561,-2.12499 4.45949,-2.34282 4.12204,-8.69196 -0.30787,-5.79508 0.01,-6.74286 2.85726,-8.60529 2.46456,-1.61027 4.75512,-1.91107 9.93213,-1.30434 26.35477,3.08875 122.84177,40.3310399 146.45772,56.53014 6.74523,4.62676 10.60222,5.38354 11.78425,2.31213 1.38892,-3.60945 -1.90146,-7.85183 -11.11125,-14.3259001 -12.05432,-8.47368 -50.13038,-27.0992399 -83.91953,-41.0506999 -14.92462,-6.16233 -28.74492,-12.07372 -30.71167,-13.13642 l -3.5761,-1.93217 6.26769,-0.0256 c 7.89308,-0.0323 30.03145,2.87993 40.73997,5.35918 16.86139,3.90379 29.63895,9.47367 40.84557,17.80505 7.41703,5.51406 12.97572,8.60656 17.86602,9.93955 3.90452,1.06426 9.07351,2.81045 11.48652,3.88041 6.5217,2.8917399 23.04844,13.8782099 39.08069,25.97953 7.80703,5.89288 22.28419,16.83016 32.17129,24.30506 17.046,12.88714 32.5282,22.67631 38.74594,24.49862 5.47656,1.60508 3.02835,-3.86661 -6.08306,-13.59553 -15.52101,-16.57277 -48.60858,-44.3390901 -72.78992,-61.08354 -13.73908,-9.51373 -19.90859,-12.74581 -26.66836,-13.97109 -6.66281,-1.20771 -15.05188,-5.66612 -22.63288,-12.02836 -13.15432,-11.03958 -44.35437,-23.11824 -77.71933,-30.08795 -13.32851,-2.78423 -23.27809,-3.94316 -41.36674,-4.81843 -30.972,-1.49865 -43.1608,-4.86787 -44.26321,-12.23528 -0.63319,-4.23072 4.06246,-5.79547 17.31215,-5.76904 44.24747,0.0882 137.53133,26.32859 175.63195,49.40457 48.71067,29.502 155.27049,130.4286 171.78028,162.699227 2.8699,5.60957 2.69601,12.55984 -0.32853,13.13039 -3.19983,0.60362 -8.61491,-4.70654 -29.52582,-28.95378 -10.74723,-12.461917 -20.97449,-23.881207 -22.72734,-25.376207 -5.15866,-4.39984 -13.22111,-5.8401 -22.45126,-4.01061 -11.99054,2.3766 -14.53141,0.85822 -44.84505,-26.7978 -17.01051,-15.51926 -34.08459,-28.34844 -37.72828,-28.34844 -0.97645,0 -1.77531,1.01487 -1.77531,2.25527 0,4.61624 8.25019,15.08157 24.33568,30.86973 22.61372,22.19575 27.81379,29.3534 32.67782,44.98009 3.52575,11.326867 6.01668,12.310847 20.88133,8.248627 20.15047,-5.50673 27.3928,-1.73218 64.3515,33.53858 26.84958,25.62331 40.0388,35.36437 45.20558,33.38727 3.5805,-1.37008 1.57304,-10.07143 -4.21008,-18.24886 -8.56878,-12.11617 -11.28194,-24.44376 -6.63834,-30.16215 l 2.36177,-2.9084 4.2866,4.33241 c 2.35765,2.38284 7.86078,10.75844 12.22921,18.61245 7.82448,14.0678 16.40971,25.09498 19.53763,25.09498 4.91778,0 43.83461,47.29405 59.85422,72.7384 10.73921,17.05727 12.06801,21.98892 4.97745,18.47418 -5.98931,-2.96896 -35.56337,-33.71459 -47.94812,-49.8476 -20.18657,-26.29622 -21.2627,-27.56665 -26.6457,-31.45502 -3.64779,-2.63503 -6.3814,-3.66576 -9.03449,-3.40658 -3.29741,0.32212 -3.85709,0.92216 -4.20216,4.50531 -0.44766,4.64846 4.69425,16.64999 11.12981,25.97732 2.1961,3.18292 11.67966,15.71869 21.07457,27.85727 18.40785,23.78357 30.81146,41.59076 32.11132,46.10038 1.05278,3.65235 -1.89214,4.86722 -6.8422,2.82262 -5.78633,-2.39002 -24.23339,-22.36664 -43.25257,-46.83888 -39.39437,-50.6894 -68.38298,-80.41126 -110.97197,-113.77921 -8.61802,-6.75215 -16.51531,-12.8946 -17.54953,-13.64992 -1.03411,-0.7553 1.78634,2.70755 6.26769,7.69523 26.80766,29.8362 35.09905,41.50281 35.09905,49.38694 0,4.44332 -2.83279,4.47811 -9.42389,0.11575 -10.42472,-6.89964 -21.30793,-17.08334 -63.28129,-59.2139 -23.78582,-23.874987 -48.88796,-48.178667 -55.78242,-54.008147 -24.52702,-20.73839 -44.70677,-34.28249 -58.30093,-39.12999 -7.63234,-2.72156 -17.86331,-2.73824 -21.99928,-0.0359 -6.32716,4.134 -10.57485,19.56608 -6.34832,23.06387 1.22185,1.01122 6.81554,1.18601 19.15556,0.59861 15.88042,-0.75594 17.94324,-0.6032 23.20599,1.7182 22.79693,10.05567 72.52266,54.68865 90.35449,81.100597 7.25427,10.74471 6.81122,12.16114 -7.42255,23.731 -7.15359,5.81481 -13.09816,11.7468 -14.50152,14.47081 l -2.37832,4.6164 5.78493,16.5815 c 3.18168,9.11983 5.61765,17.92722 5.41338,19.57198 l -0.37145,2.99051 -3.52655,-2.77883 c -5.94568,-4.68501 -36.08113,-37.71417 -40.46259,-44.34792 -5.18604,-7.85181 -6.17804,-11.76206 -3.80564,-15 1.67282,-2.28299 3.67938,-2.55425 23.11633,-3.125 18.9914,-0.55766 21.58201,-0.89359 24.04556,-3.11809 6.11947,-5.52547 1.10181,-15.78622 -18.30786,-37.438827 -13.04,-14.54681 -36.41918,-32.59459 -53.50209,-41.30143 -15.40618,-7.85227 -20.24333,-7.30021 -21.79491,2.48745 -1.37398,8.66715 -3.70024,8.53474 -22.34125,-1.27169 -20.4823,-10.77507 -44.73956,-17.34064 -78.36064,-21.20946 -21.32388,-2.45375 -30.67998,-4.25039 -33.49492,-6.43198 -2.09441,-1.62316 -2.06042,-1.84957 0.61854,-4.11631 6.63152,-5.61115 34.94622,-6.94126 54.76435,-2.57261 14.29595,3.15137 27.20367,3.19497 33.909,0.1145 8.31687,-3.82076 19.41298,-16.1706001 19.42512,-21.6198501 0.01,-3.28669 -4.54603,-3.95485 -9.71723,-1.42594004 -4.4298,2.16630004 -7.0156,5.22656004 -11.84332,14.01631014 -2.72599,4.96334 -7.41202,5.11663 -17.92118,0.58623 C 558.48263,6.0407329 546.32943,3.7029929 513.044,2.3349829 c -25.85106,-1.06247 -32.38851,-2.66896004 -34.99787,-8.6003 -1.66981,-3.7954999 -2.82206,-4.0372099 -20.13272,-4.2233399 -15.71003,-0.16892 -25.06644,2.0113399 -30.78748,7.1741799 -4.65785,4.20339996 -2.72278,6.13959 7.02603,7.0303 3.44943,0.31517 3.81908,0.81809 4.59216,6.24774 0.84558,5.9389201 3.55042,10.8164501 8.44383,15.2262601 3.45886,3.11701 3.37723,7.70785 -0.17811,10.02176 -1.55127,1.00959 -8.17928,3.33338 -14.72906,5.16398 -22.2518,6.21916 -47.66732,19.96747 -75.21226,40.68536 -18.63098,14.01332 -31.33262,26.604987 -39.51592,39.173717 -3.60738,5.54067 -11.31633,16.40215 -17.13094,24.13663 -16.29519,21.67549 -36.11492,58.39531 -36.11492,66.90985 0,4.06834 2.66271,6.11891 8.14679,6.27392 6.734,0.19034 10.50966,-4.24337 11.88675,-13.95877 0.67781,-4.78175 2.64366,-10.52446 5.1033,-14.90779 22.05825,-39.3109 89.7201,-107.690447 122.12996,-123.425377 23.3524,-11.33755 63.91898,-18.12253 107.8281,-18.03483 38.21033,0.0764 54.29723,5.41106 45.12023,14.96273 -6.68576,6.9588 -20.34912,7.88993 -45.747,3.11762 -35.56938,-6.68359 -66.33129,-1.99196 -101.13631,15.42473 -47.2319,23.635197 -84.48423,62.141327 -111.39377,115.143017 -12.89649,25.40148 -18.89703,30.23579 -35.16293,28.32944 -8.44594,-0.98985 -13.75933,1.02551 -18.77749,7.12222 -3.87534,4.70835 -4.78912,6.94128 -16.20794,39.60559 -7.08801,20.27578 -14.81561,38.75 -16.20874,38.75 -0.3895,0 -0.7083,-1.05214 -0.7083,-2.33809 z M 316.32855,52.344093 c 16.07968,-7.66987 39.58862,-24.51094 72.82061,-52.16655014 18.65023,-15.52062986 25.58209,-22.24733986 25.58209,-24.82494986 0,-3.58519 -17.55785,6.28237 -52.30822,29.3973299 -17.39368,11.5697801 -36.57281,23.3707901 -42.62028,26.2244701 -6.04746,2.85366 -12.40561,5.85797 -14.12927,6.67622 -3.79431,1.80129 -7.02583,10.10076 -5.8114,14.92551 0.69887,2.77698 1.54526,3.35732 4.89511,3.3565 2.22759,-5.3e-4 7.43469,-1.61538 11.57136,-3.58853 z M 23.671642,291.01578 c -4.197064,-7.82016 4.157092,-24.02013 14.644699,-28.39826 7.32784,-3.05906 16.649637,-1.94741 16.649637,1.98551 0,4.9462 -13.544223,21.43194 -21.663757,26.36868 -5.101868,3.10196 -7.982337,3.11515 -9.630579,0.0441 z M 131.82461,276.5673 c -3.58352,-2.50291 -7.91407,-9.63332 -7.91407,-13.0308 0,-3.82262 3.30733,-9.77303 6.32801,-11.38508 5.93319,-3.16638 9.98025,2.08224 9.94951,12.9035 -0.0185,6.46486 -1.95106,12.17424 -4.39227,12.97524 -0.70228,0.23044 -2.48932,-0.42785 -3.97118,-1.46286 z m -29.17402,-4.43389 c -0.0857,-7.55811 3.71904,-32.45209 7.0542,-46.15451 6.5791,-27.03014 16.62643,-50.27253 26.68877,-61.73888 3.32804,-3.79241 6.89372,-9.32216 7.92376,-12.28835 6.76398,-19.47839 11.23085,-30.45481 20.31795,-49.92726 12.62199,-27.047197 17.34896,-35.555257 26.86319,-48.350877 15.6429,-21.03805 36.35751,-40.39893 70.52423,-65.91527 44.65171,-33.34673 93.81857,-64.32465 102.09342,-64.32465 3.60257,0 1.50084,4.98679 -4.22713,10.0299 -7.17745,6.3193 -29.53355,21.20556 -44.1872,29.42302 -23.08314,12.94452 -32.9542,20.39339 -62.55483,47.20458 -53.10899,48.1043 -71.22505,78.79182 -131.11686,222.104357 -8.76033,20.96223 -16.6932,39.51939 -17.6286,41.23814 l -1.70072,3.125 -0.0502,-4.4252 z M 68.754891,251.53116 c 0,-7.82971 12.296983,-30.73819 22.01554,-41.01353 4.593443,-4.8566 6.207288,-2.83396 6.117243,7.66673 -0.05365,6.26111 -0.895206,10.16431 -3.334921,15.46819 -5.092,11.06991 -16.592094,22.28106 -22.8553,22.28106 -1.386683,0 -1.942562,-1.25979 -1.942562,-4.40245 z m 694.531409,-3.8543 c -10.47616,-8.79024 -14.37607,-22.42713 -14.44015,-50.49325 -0.0501,-21.79889 0.89723,-26.25 5.58506,-26.25 7.52394,0 20.06533,40.21502 20.06533,64.34104 0,15.91387 -3.02995,19.26602 -11.21024,12.40221 z M 14.191569,230.62111 c 1.106121,-22.53762 3.219816,-32.9602 10.330152,-50.9375 9.715268,-24.56346 19.571483,-42.86169 33.524229,-62.23826 9.744048,-13.53184 12.870491,-20.256927 14.389408,-30.952197 1.783984,-12.56166 5.246687,-18.12846 17.007035,-27.3413 8.639135,-6.76774 11.890937,-10.77079 11.898247,-14.647 0.024,-12.72048 -24.466205,5.19398 -41.195967,30.13467 -8.662306,12.91374 -10.773725,18.41988 -9.679657,25.24248 0.696235,4.341767 0.344331,5.388817 -2.897768,8.621767 -2.584764,2.57748 -4.93959,3.68806 -7.860684,3.70729 -5.413016,0.0356 -14.249764,4.06419 -15.977891,7.2841 -0.745072,1.38825 -1.354673,3.72935 -1.354673,5.20242 0,3.7407 -6.603445,9.98603 -10.558647,9.98603 -2.7594173,0 -3.2302661,-0.55115 -3.2302661,-3.7812 0,-7.85781 13.6786321,-30.54713 36.1531871,-59.968797 20.76475,-27.18334 36.65355,-45.67521 73.571676,-85.625 29.3593,-31.77023 39.24557,-43.31524 45.97952,-53.69409 7.61149,-11.7314 7.55215,-15.64382 -0.26573,-17.51746 -2.35295,-0.5639 -4.30479,0.21664 -7.83301,3.13244 -6.76899,5.59403 -31.10438,33.08661 -64.197237,72.52593 -41.88724,49.92025 -64.197862,71.39598 -76.0039,73.1597 -2.981675,0.44544 -5.500282,-0.12903 -8.3446593,-1.90338 -6.0331262,-3.76352 -5.6634229,-4.6334 5.3275343,-12.5352 10.473839,-7.53002 44.536948,-41.9667001 81.029292,-81.91794 38.96935,-42.66305 51.24492,-54.3738 63.39097,-60.47427 6.71926,-3.37482 8.02373,-3.32948 13.64474,0.47427 8.85003,5.98885 14.31259,3.57179 31.16029,-13.787723 13.49719,-13.90727 19.4177,-15.36453 19.46955,-4.79222 0.0501,10.17551 -34.76774,50.745183 -85.64,99.788343 -27.30095,26.31936 -35.03554,35.93341 -33.05314,41.08489 2.68704,6.98255 20.92791,-5.26662 53.51913,-35.9392901 30.30052,-28.5168299 52.40184,-54.8664199 55.89478,-66.6388099 2.94806,-9.93598 8.41038,-13.13319 26.20459,-15.33814 12.62182,-1.56401 27.94126,-6.72788 44.91305,-15.139193 27.88911,-13.82204 43.44952,-26.7961 41.41989,-34.53544 -2.06814,-7.8863 43.05962,-25.8949 101.08748,-40.33982 16.87181,-4.1999 33.84551,-11.42639 33.84551,-14.40958 0,-2.82194 -11.08468,-2.31905 -28.58787,1.29698 -22.15463,4.57697 -27.7087,4.07821 -26.09254,-2.3431 1.90989,-7.58805 14.62798,-10.07593 50.9198,-9.96079 74.46344,0.23625 196.2018,19.21169 264.15136,41.17346 15.91842,5.14495 43.7613,18.5517 71.08561,34.22875 30.11428,17.27782 33.30308,18.65166 33.30308,14.34813 0,-5.55211 -25.82167,-26.74586 -50.08163,-41.10569 -50.55447,-29.92389 -106.07866,-48.74691 -162.39299,-55.05215 -19.64313,-2.19934 -36.80075,-5.35573 -58.56166,-10.77319 -25.36118,-6.31376 -27.39853,-8.64114 -7.56245,-8.63891 23.208,0.002 53.74478,4.1499 110.6247,15.02425 18.27036,3.49294 40.25771,7.43339 48.86089,8.75657 17.21969,2.64843 21.21316,4.56679 22.88297,10.99237 1.43856,5.53591 5.68204,7.82817 16.79169,9.07055 7.87874,0.88107 12.5092,2.45474 26.02164,8.84339 11.68136,5.5229 18.33374,7.92999 22.99098,8.31899 6.14705,0.51343 6.82727,0.27435 10.96845,-3.85512 5.1024,-5.08796 5.24511,-5.77508 2.03595,-9.79643 -2.63885,-3.30668 -3.95326,-4.02907 -26.6463,-14.64406 -17.54642,-8.20764 -29.23721,-15.40837 -31.32149,-19.29192 -1.31702,-2.45384 -1.10622,-2.5198 5.98699,-1.87289 18.8137,1.71584 78.2724,29.53244 92.33568,43.19749 3.75209,3.64584 4.67901,5.41549 4.38739,8.37635 -0.40144,4.07536 -1.66039,4.31774 -12.58121,2.42204 -4.2152,-0.7317 -5.14432,-0.36125 -9.17509,3.6581 -4.76435,4.75089 -5.59549,10.29558 -1.80389,12.03352 12.05462,5.5254 17.59776,9.21709 28.83136,19.20135 19.73329,17.53863 46.38089,48.764223 46.38089,54.349033 0,1.5577 -2.07225,1.71473 -13.47553,1.02119 -30.4763,-1.85359 -49.31938,-6.57849 -63.7826,-15.99353 -44.58893,-29.025793 -106.65067,-55.429543 -171.1873,-72.830393 -44.78499,-12.07526 -75.98765,-17.53742 -118.21431,-20.69394 -23.79014,-1.77835 -43.64016,-4.75248 -51.64034,-7.73731 -9.42851,-3.51769 -11.88785,-2.85915 -13.48886,3.6119 -1.86667,7.54515 -5.23478,10.28389 -15.21143,12.36928 -10.93376,2.28545 -14.30146,5.23284 -14.30146,12.51662 0,10.16271 2.58559,10.15519 47.63443,-0.13863 37.74311,-8.62444 42.76919,-9.26174 46.18453,-5.85612 2.12269,2.11674 2.36959,3.24812 1.42533,6.5314 -1.79678,6.24734 -4.6052,9.66809 -10.32725,12.57902 -4.86202,2.47342 -7.01439,2.67786 -25.99255,2.46873 -31.69625,-0.34927 -54.46721,2.7581 -68.40966,9.33532 -7.797,3.67813 -9.41778,5.99761 -10.71293,15.33054 -0.50944,3.6708 -1.90157,7.74893 -3.09373,9.0625 -4.85019,5.34432 -15.96235,1.00589 -26.3252,-10.2779 -12.02914,-13.09826 -16.60957,-14.12305 -25.13342,-5.62325 -8.52005,8.49607 -7.06976,14.4906 5.35902,22.15032 4.89572,3.0172 5.42601,6.53535 1.3833,9.176783 -1.55328,1.01489 -9.50843,4.14355 -17.67799,6.9526 -17.07368,5.87064 -26.0101,10.1858 -45.30856,21.87833 -74.11827,44.90667 -182.17096,145.66515 -203.7185,189.966317 -7.4661,15.35015 -13.802026,45.20293 -10.08057,47.49642 2.51283,1.54862 6.86209,-3.73043 14.43172,-17.51692 8.06597,-14.69048 11.28312,-19.15105 12.75651,-17.68682 2.33908,2.32452 -10.32097,39.15317 -16.73054,48.66986 -5.07825,7.53999 -7.2979,7.49032 -14.164595,-0.31698 -7.149657,-8.12903 -9.249533,-7.80222 -16.28938,2.53515 -5.772902,8.47698 -9.205018,11.23442 -13.983242,11.23442 -4.192352,0 -5.1202,-1.3838 -5.035421,-7.5098 0.06909,-4.98939 1.989254,-9.38886 9.511192,-21.79166 4.713381,-7.77184 5.568785,-11.35585 2.937008,-12.30578 -2.414955,-0.87166 5.490074,-15.3771 16.029938,-29.41434 20.57505,-27.402327 78.92997,-94.820267 110.88029,-128.1009571 12.6201,-13.1455999 14.52004,-14.6682599 17.49087,-14.0175999 3.74968,0.82125 5.26044,-0.19089 24.0959,-16.14297 20.49785,-17.36002 49.60348,-37.80435 72.49559,-50.92233 12.99557,-7.44692 19.47205,-10.26279 26.5419,-11.54006 8.75691,-1.58205 15.85735,-14.224953 10.81352,-19.254503 -6.19518,-6.17771 -31.07389,5.26765 -77.18793,35.509993 -55.93435,36.68263 -106.50196,77.3643299 -132.32713,106.45725 -28.42982,32.02715 -53.381894,69.09966 -73.361127,108.996177 -17.355799,34.6578 -24.03188,58.36803 -20.238635,71.87794 1.57327,5.60331 1.526498,5.79596 -3.091113,12.73096 -5.763786,8.65639 -25.408094,29.17768 -27.930773,29.17768 -1.575717,0 -1.715943,-2.5794 -0.968313,-17.8125 z M 401.61915,-143.49431 c 8.32459,-2.14814 18.96432,-8.07312 24.10442,-13.42305 4.98567,-5.18925 2.47218,-6.10238 -15.41791,-5.60121 -13.00801,0.3644 -15.92705,0.84543 -21.23823,3.49983 -3.38666,1.69254 -6.6961,3.97466 -7.35426,5.07137 -2.07285,3.45419 0.16186,8.63584 4.54382,10.5357 5.17511,2.2438 6.37148,2.23737 15.36216,-0.0826 z m 565.42437,320.60739 c -14.51004,-15.21495 -22.06406,-24.89343 -22.06507,-28.27068 -6e-4,-1.87807 -5.493,-7.85657 -17.79973,-19.375 C 917.3893,120.30507 889.60779,93.367733 865.442,69.606663 821.62263,26.521173 809.84179,16.293453 778.88392,-5.5398171 754.94015,-22.426357 742.98541,-30.182857 715.58027,-46.612747 c -32.93073,-19.74257 -41.6011,-25.27444 -50.45489,-32.19139 -6.98992,-5.46084 -9.11522,-9.01225 -5.39301,-9.01225 5.17079,0 28.18895,10.11076 65.8762,28.93624 43.88455,21.92117 59.7433,31.09495 63.41577,36.68399 2.08839,3.17831 2.08438,3.50846 -0.0873,7.17456 -2.1964,3.7078 -2.1967,3.9011 -0.01,5.4971599 3.87223,2.82345 11.47298,-0.007 20.73392,-7.7231399 5.0326,-4.19277 6.01958,-4.53408 11.57246,-4.00202 11.35554,1.08804 42.00754,18.7774999 68.76255,39.68321 13.91828,10.87541 35.52736,32.41809 42.88041,42.74863 6.6251,9.30783 9.07912,10.70683 14.23016,8.11228 7.89699,-3.97764 10.70902,1.8168 11.4114,23.51409 l 0.52609,16.249997 -2.96026,-2.59656 c -1.62839,-1.42812 -9.44756,-8.229637 -17.37623,-15.114487 -7.92858,-6.88486 -25.52694,-24.3115 -39.10747,-38.72586 -26.09333,-27.69553 -37.39042,-38.34743 -48.62342,-45.8465301 -7.59684,-5.07168 -14.73668,-6.11636004 -17.67478,-2.58613 -5.3874,6.4731001 31.23385,53.7605501 47.64887,61.5269001 5.36284,2.53728 13.31347,9.70441 37.61135,33.90503 31.30133,31.176037 44.05723,42.143977 50.51094,43.431077 2.1626,0.43131 4.27166,2.03207 5.30658,4.02774 2.47077,4.76452 4.66516,21.70397 4.20737,32.47836 l -0.39301,9.24952 -11.15277,-11.69458 z M 472.29761,32.279763 c -4.08353,-4.07199 -4.55034,-7.2616 -1.83027,-12.50675 6.03373,-11.6350801 22.21359,-1.91489 17.44393,10.4796 -0.87687,2.27869 -6.81222,5.681 -9.91057,5.681 -1.12136,0 -3.6878,-1.64423 -5.70309,-3.65385 z m 446.28204,-19.19918 c -3.75138,-2.25666 -14.43593,-9.4808001 -23.7435,-16.0536501 -20.5888,-14.5395799 -37.77771,-26.0081399 -82.73348,-55.2005999 -48.82319,-31.70378 -73.03672,-49.824033 -70.99034,-53.125803 1.27289,-2.05376 6.57666,-0.21266 24.29837,8.43478 20.73261,10.116653 39.09613,20.873163 66.74857,39.098473 23.12065,15.23847 40.74298,24.51897 48.53748,25.56148 4.48215,0.59949 5.61915,0.2433 8.24607,-2.58314 3.66193,-3.94019 5.04814,-4.04886 9.68142,-0.759 9.87246,7.00994 33.38832,50.2793999 30.87503,56.81039 -1.08927,2.83059 -3.33,2.38265 -10.91962,-2.18292 z M 19.244579,12.190753 c -1.047326,-1.68984 4.566036,-12.55579014 11.607898,-22.46977 21.070995,-29.66505 64.100788,-77.2919 92.562653,-102.451523 31.46504,-27.81433 45.5803,-44.14344 45.61101,-52.76461 0.0122,-3.43742 -1.92271,-4.82124 -6.74133,-4.82124 -4.55106,0 -17.70368,11.8348 -65.325323,58.78011 -41.753823,41.160813 -63.379783,61.219893 -66.002013,61.219893 -2.265785,0 -0.865162,-4.76506 3.638518,-12.37856 8.186322,-13.83904 30.192626,-40.058133 51.011258,-60.776633 19.00824,-18.91681 24.63775,-23.29132 32.0356,-24.89386 6.4096,-1.38845 7.2502,-3.09756 5.57957,-11.34439 -1.13852,-5.6201 3.11908,-10.04296 15.20788,-15.79817 10.73248,-5.1095 19.32575,-12.73239 19.32575,-17.14342 0,-5.12856 4.6225,-8.57714 14.40629,-10.74767 21.13882,-4.68967 90.3364,-44.04155 95.99988,-54.59408 1.39744,-2.60384 1.276,-2.66146 -3.87804,-1.83962 -14.2063,2.26528 -53.68676,20.00708 -79.57707,35.76053 -36.71712,22.34124 -56.27668,37.99797 -95.268848,76.25927 -32.382878,31.77588 -39.950163,38.7466 -42.062605,38.7466 -2.411315,0 4.31591,-10.93124 21.075908,-34.24678 13.445986,-18.70526 16.71818,-24.03871 15.721548,-25.625 -1.936876,-3.08283 -6.12314,-3.07979 -11.633521,0.009 -5.887585,3.29966 -7.219213,2.61378 -5.052499,-2.60238 3.353956,-8.0743 15.518836,-15.72995 28.032009,-17.64122 12.702438,-1.94017 18.151418,-4.49141 20.604318,-9.64705 2.99054,-6.28568 16.16882,-14.70687 49.06381,-31.35278 31.0595,-15.7171 65.84691,-31.40229 94.73213,-42.71349 22.94084,-8.98341 28.93576,-13.51523 31.91486,-24.12554 1.57415,-5.6064 1.15005,-17.67494 -0.68222,-19.41126 -0.44566,-0.4224 -2.29648,1.19905 -4.11291,3.6032 -6.52812,8.64052 -17.23423,18.2125 -24.87991,22.24426 -4.28359,2.25889 -14.43724,6.26434 -22.56368,8.901 -19.55308,6.34414 -41.63264,16.21669 -81.87228,36.608 -31.12214,15.77054 -52.05403,24.75004 -57.69541,24.75004 -3.55978,0 -3.087226,-4.3121 0.80731,-7.3669 1.89229,-1.48428 4.92782,-2.48541 7.26977,-2.39762 5.35162,0.20063 10.14225,-3.12273 15.11445,-10.48521 6.96887,-10.31897 24.09696,-22.01335 54.42598,-37.15989 29.30958,-14.63741 57.30066,-25.08668 74.12604,-27.67178 5.1709,-0.79447 11.00035,-2.26513 12.95446,-3.26814 3.36319,-1.72628 3.5089,-2.14274 2.7288,-7.79901 -0.7812,-5.66342 -0.60671,-6.15862 3.34153,-9.4861 8.05504,-6.78864 23.04765,-11.82564 35.27315,-11.85052 4.00961,-0.008 8.35919,0.55563 9.66567,1.25286 1.30649,0.69723 5.00563,5.33786 8.2204,10.3125 8.59185,13.29538 35.28177,39.33707 45.53541,44.4294 4.41907,2.19472 8.79081,3.99041 9.71491,3.99041 3.17827,0 6.6942,-4.87703 6.6942,-9.28571 0,-4.18471 2.45563,-8.00345 5.41708,-8.42418 0.8126,-0.11538 13.04131,-0.26981 27.17489,-0.34306 19.49452,-0.101 27.96693,-0.6543 35.09906,-2.29207 10.83176,-2.48731 57.77143,-16.21321 57.24414,-16.73907 -0.19384,-0.19331 -14.1403,1.0867 -30.99196,2.84448 -36.25231,3.78138 -64.06128,3.81741 -71.06615,0.0921 -6.65177,-3.53757 -5.14603,-6.42674 6.58107,-12.62772 6.06502,-3.207 6.12579,-3.29241 1.88031,-2.64083 -11.16842,1.71406 -26.30183,2.12807 -32.14111,0.8793 -15.30248,-3.27261 -28.0287,-10.21967 -28.0287,-15.30057 0,-3.54569 2.6912,-3.93674 72.07841,-10.47333 25.50949,-2.40311 48.94764,-4.6265 52.08469,-4.94085 8.45276,-0.84702 15.39455,2.66922 19.69428,9.97584 4.42659,7.52199 10.25273,13.88365 13.57802,14.82598 3.62864,1.02831 9.2851,-3.59334 9.2851,-7.58653 0,-2.86575 -6.57445,-10.46381 -9.05415,-10.46381 -0.53581,0 -0.97415,-0.84375 -0.97415,-1.875 0,-1.42943 1.56391,-1.87339 6.58107,-1.86822 21.52094,0.0222 102.12832,16.50502 158.25912,32.36133 26.37363,7.45024 82.23277,30.92737 92.01728,38.67404 4.18682,3.31479 2.75959,6.45785 -2.93227,6.45785 -14.30337,0 -45.14681,-8.74935 -90.34195,-25.6273 -50.26345,-18.77071 -60.98461,-21.30851 -85.72984,-20.29316 -17.6094,0.72256 -28.3494,3.34044 -51.52912,12.5602 l -13.16214,5.23526 35.09905,0.79336 c 21.27905,0.48098 41.02187,1.60887 50.1415,2.86453 35.84877,4.93594 67.19814,14.01057 101.54678,29.39451 24.90388,11.15389 46.51115,18.56809 57.08981,19.58949 9.60009,0.9269 13.72483,3.12561 13.72483,7.31605 0,3.96626 -4.37665,6.91706 -10.25945,6.91706 -5.87067,0 -19.39965,-4.41358 -34.8679,-11.37501 -10.59711,-4.7692 -12.967,-5.36716 -21.51913,-5.42971 -8.57229,-0.0627 -9.97315,0.2673 -12.9678,3.05472 -1.84661,1.71875 -4.13507,4.6153 -5.08555,6.43676 -2.34261,4.48904 -0.75262,5.5356 9.83385,6.47309 13.73436,1.21625 24.18475,7.33308 25.00527,14.63614 0.532,4.73465 -3.38124,4.49404 -29.20863,-1.79595 -38.89737,-9.47304 -74.49232,-15.46663 -120.86991,-20.35244 -33.27841,-3.50583 -118.57302,-3.2307 -159.19927,0.51352 -55.66389,5.13014 -69.57134,5.22078 -69.57134,0.45342 0,-1.22776 4.23074,-6.26843 9.40154,-11.20148 5.17089,-4.93306 9.40153,-9.57815 9.40153,-10.32243 0,-1.58678 -4.02737,-1.21933 -22.81198,2.08128 -15.769,2.77074 -20.65509,1.95994 -20.10684,-3.33654 0.58746,-5.67491 -3.61621,-7.9645 -14.5621,-7.9314 -14.49029,0.0437 -24.1659,6.03236 -22.22241,13.75414 1.00383,3.98821 4.61292,4.83957 9.8862,2.33205 6.6271,-3.15135 8.39379,-1.83488 8.39379,6.25489 0,5.87592 0.45689,7.18186 3.28998,9.4041 2.57517,2.01988 4.34406,2.41252 8.14118,1.80705 5.19616,-0.82855 8.62544,0.87551 8.62544,4.28612 0,1.06493 -2.41722,4.24581 -5.37166,7.06864 -5.21452,4.98234 -12.47922,8.18415 -18.59097,8.19371 -4.68271,0.007 -10.97437,4.47676 -11.81634,8.39405 -1.93958,9.02418 -2.38353,9.36986 -10.93306,8.51346 -7.00888,-0.70207 -8.63005,-0.39305 -15.68396,2.98965 -9.59107,4.59937 -16.45634,9.22329 -30.36579,20.45192 -13.68683,11.04895 -25.13153,17.81486 -34.01704,20.11034 -9.90798,2.55961 -14.38826,5.13657 -21.73616,12.50218 -6.30887,6.32407 -12.44001,16.46219 -11.18261,18.49095 2.62813,4.24043 18.28185,-3.55972 51.89335,-25.85818 14.13369,-9.37649 30.87333,-19.61086 37.19938,-22.74305 16.68619,-8.26178 19.67332,-5.74381 10.15988,8.56407 -6.86879,10.33043 -27.76987,31.24155 -34.19711,34.21354 -2.91653,1.34861 -9.49099,2.64716 -15.71535,3.104 -5.88561,0.43197 -11.52653,1.28086 -12.53534,1.88641 -1.0088,0.60555 -6.24212,5.07179 -11.62961,9.92496 -14.9859,13.49973 -18.60134,14.68655 -24.74885,8.1242 l -3.58491,-3.82683 -9.07792,3.26535 c -19.13481,6.88283 -25.49896,11.2064 -45.05145,30.606303 -10.06492,9.98636 -27.215233,28.28201 -38.111834,40.65701 C 55.646769,-17.880567 37.098845,1.4353729 28.215736,8.5645729 21.840224,13.681293 20.503321,14.221673 19.244579,12.190723 Z M 190.91828,-172.794 c 40.95563,-16.22341 113.4796,-61.79436 107.62839,-67.62906 -3.05793,-3.04932 -27.87136,5.88937 -53.04299,19.10803 -38.24593,20.0845 -71.45164,43.57296 -71.45164,50.54221 0,2.80513 6.71324,2.00064 16.86624,-2.02118 z m 497.08417,-72.36758 c 4.62274,-3.293 8.0821,-10.25633 7.07767,-14.24689 -1.8419,-7.318 -15.2712,-12.08921 -59.09948,-20.99714 l -31.33844,-6.3694 -31.33844,0.0113 c -64.82775,0.0244 -158.45117,8.69544 -172.67481,15.99252 -3.92558,2.01394 -4.48325,4.74109 -1.25353,6.1307 4.31658,1.85725 35.52284,2.11514 79.91302,0.6604 95.90906,-3.14311 179.43849,4.23894 191.23668,16.90085 5.53643,5.94172 10.98811,6.53973 17.47733,1.91717 z M 348.35563,-24.617067 c -1.18183,-1.41996 -0.97906,-2.97195 0.95881,-7.3405 6.21785,-14.01685 27.02356,-28.8662 29.91552,-21.35117 1.99022,5.17191 -9.82121,20.9019 -20.11637,26.78999 -7.31675,4.18466 -8.66024,4.42215 -10.75796,1.90168 z m 452.03168,-8.88843 c -8.12644,-2.97178 -21.40611,-10.10184 -45.79394,-24.58753 -40.09686,-23.81637 -62.3997,-39.31939 -60.00323,-41.70907 3.24556,-3.236453 59.48748,21.64286 94.94885,42.0018 24.43987,14.03129 29.53244,19.10621 24.35443,24.26962 -2.38603,2.37935 -7.04478,2.38804 -13.50611,0.0251 z m -351.18378,-37.70223 c -5.25693,-1.26089 -4.72744,-2.84174 1.97718,-5.90251 10.31411,-4.70864 28.19196,-8.60129 35.55324,-7.74123 14.30788,1.67164 11.06182,9.69827 -5.3135,13.13923 -6.50876,1.36769 -27.26314,1.6927 -32.21692,0.50451 z m 252.25499,-47.941713 c -9.25732,-2.22783 -18.47022,-8.13815 -18.47022,-11.84914 0,-2.18332 6.35874,-5.56781 10.46082,-5.56781 6.40106,0 19.844,5.16734 24.43556,9.39279 3.8275,3.52238 4.3602,4.59863 3.20675,6.47818 -1.60574,2.61652 -11.83681,3.42217 -19.63291,1.54598 z m -419.91564,-8.76708 c -3.19632,-1.85643 -2.70543,-6.94211 1.53243,-15.87478 6.6631,-14.0447 22.65112,-28.2321 42.22827,-37.47219 8.91957,-4.20991 10.81301,-4.64053 20.4831,-4.6583 5.86034,-0.0112 11.29468,-0.4343 12.07648,-0.94117 2.60175,-1.68688 6.3776,-11.44036 9.14501,-23.62273 1.50485,-6.62438 3.40962,-12.92714 4.23285,-14.00615 1.58036,-2.07153 48.49546,-9.27513 79.21605,-12.16328 25.21987,-2.37101 44.19081,0.7077 46.36013,7.5236 1.72628,5.42349 -1.29094,6.70802 -13.73907,5.84929 -6.22105,-0.42915 -16.67957,-1.13699 -23.24129,-1.57296 -27.44114,-1.82326 -63.38798,6.20618 -75.11117,16.77758 -3.99828,3.60552 -5.37266,5.92393 -6.18184,10.42852 -0.57232,3.18577 -2.29137,7.54382 -3.81998,9.68459 -7.5447,10.5656 -30.05071,20.36981 -60.62299,26.4089 -9.73046,1.92212 -11.45312,4.51762 -10.2756,15.48227 0.76827,7.15369 0.54755,8.56201 -1.87308,11.95194 -4.75271,6.65575 -14.52018,9.62528 -20.4093,6.20488 z m 513.01026,-94.71581 c -6.92765,-2.03769 -1.18234,-7.63044 7.87493,-7.66564 5.25934,-0.0204 13.43521,2.92095 13.43521,4.83357 0,0.67625 -0.98719,1.51527 -2.19369,1.86451 -4.40473,1.27497 -16.06484,1.86514 -19.11645,0.96756 z m -599.19096,-92.12953 c 0,-3.33591 7.3109,-8.81471 21.73353,-16.28718 15.00063,-7.7719 24.01336,-15.00979 26.73645,-21.47124 1.48218,-3.51716 1.45671,-4.58453 -0.18512,-7.75043 -3.41645,-6.58805 -2.91874,-6.96265 8.61681,-6.4854 18.60661,0.76978 37.18966,-5.37241 86.62838,-28.63295 35.58081,-16.74048 44.15531,-19.92733 53.61671,-19.92733 5.9188,0 7.13162,0.46725 10.54415,4.0625 2.12089,2.23438 4.50773,5.32813 5.30417,6.875 4.22172,8.19975 -6.81563,13.97221 -79.49855,41.57693 -49.32329,18.73279 -57.43348,21.96774 -93.6534,37.35564 -21.23398,9.02118 -31.17331,12.62993 -34.78568,12.62993 -3.74123,0 -5.05745,-0.50632 -5.05745,-1.94547 z m 510.18979,-13.5028 c -4.48134,-1.59255 -12.37863,-5.03371 -17.54952,-7.64702 -19.19036,-9.69868 -39.90532,-15.57071 -55.15566,-15.6349 -18.85732,-0.0794 -30.79651,-4.09594 -33.18274,-11.16333 -2.59623,-7.68889 -10.31592,-9.2324 -28.6643,-5.73127 -13.80495,2.63419 -20.64395,2.40938 -26.57569,-0.87359 -4.56499,-2.52656 -7.03185,-2.7864 -30.56506,-3.2196 -15.17202,-0.27928 -37.3831,0.31422 -54.52889,1.45708 -15.9113,1.06058 -35.23273,2.28683 -42.93637,2.725 -14.94898,0.85028 -27.74861,-0.20156 -25.82277,-2.12203 1.53002,-1.52569 21.74406,-5.35115 44.84365,-8.48655 53.66746,-7.28449 125.97582,-12.60332 171.35959,-12.6048 23.43113,-7.6e-4 34.52353,1.45343 35.76875,4.68921 0.41186,1.07023 -0.79124,4.67776 -2.67345,8.01675 -4.13617,7.3374 -3.54009,10.21376 2.78336,13.42929 8.00679,4.07155 43.46917,10.58031 65.08698,11.94604 11.08297,0.70018 13.1827,1.74556 17.0797,8.50348 4.34396,7.53286 5.22233,12.82957 2.75126,16.59031 -1.67964,2.55617 -3.01852,3.06975 -7.94542,3.04783 -3.259,-0.0145 -9.59197,-1.32936 -14.07342,-2.9219 z M 421.9062,-393.12889 c -3.53849,-2.6593 -6.04546,-10.76909 -6.30229,-20.38699 -0.42329,-15.84976 2.0169,-16.38895 45.50823,-10.05575 39.70074,5.78121 64.68064,7.66355 76.80545,5.78763 11.61067,-1.79638 14.7028,-3.76536 14.7028,-9.36244 0,-2.34982 -0.5641,-4.62005 -1.25354,-5.04495 -2.17003,-1.33734 -1.44699,-11.35985 1.04053,-14.42305 l 2.29398,-2.82502 7.63264,4.05665 c 12.34424,6.56087 21.74256,14.85698 25.80562,22.77938 4.23827,8.26377 3.72141,11.7355 -2.10784,14.15836 -5.50133,2.28655 -23.12988,4.09916 -54.72153,5.62662 -46.43475,2.24513 -78.67112,5.47715 -94.19623,9.44414 -8.6803,2.21799 -12.50118,2.27965 -15.20782,0.24542 z"
           style="fill:#012456;fill-opacity:1" />
      </g>
      <g
         inkscape:label="PowerShell Logo"
         id="layer2-4">
        <text
           transform="scale(0.98423201,1.0160206)"
           sodipodi:linespacing="76.999998%"
           id="text4145"
           y="1119.7954"
           x="214.98303"
           style="font-style:normal;font-variant:normal;font-weight:normal;font-stretch:normal;font-size:1197.29003906px;line-height:76.99999809%;font-family:'Comic Sans MS';-inkscape-font-specification:'Comic Sans MS';letter-spacing:0px;word-spacing:0px;fill:#ffffff;fill-opacity:0.98757761;stroke:none;stroke-width:1px;stroke-linecap:butt;stroke-linejoin:miter;stroke-opacity:1"
           xml:space="preserve"><tspan
             style="font-style:normal;font-variant:normal;font-weight:normal;font-stretch:normal;font-size:1250px;line-height:76.99999809%;font-family:'Comic Sans MS';-inkscape-font-specification:'Comic Sans MS';letter-spacing:-84.91183472px;fill:#ffffff;fill-opacity:0.98757761"
             y="1119.7954"
             x="214.98303"
             id="tspan4147"
             sodipodi:role="line">&gt;</tspan></text>
        <text
           transform="scale(0.87510731,1.142717)"
           sodipodi:linespacing="125%"
           id="text4156"
           y="787.16791"
           x="551.39819"
           style="font-style:normal;font-variant:normal;font-weight:normal;font-stretch:normal;font-size:824.82611084px;line-height:125%;font-family:'Comic Sans MS';-inkscape-font-specification:'Comic Sans MS';letter-spacing:0px;word-spacing:0px;fill:#ffffff;fill-opacity:0.98757761;stroke:none;stroke-width:1px;stroke-linecap:butt;stroke-linejoin:miter;stroke-opacity:1"
           xml:space="preserve"><tspan
             style="font-style:normal;font-variant:normal;font-weight:normal;font-stretch:normal;font-size:706.99377441px;font-family:'Comic Sans MS';-inkscape-font-specification:'Comic Sans MS';fill:#ffffff;fill-opacity:0.98757761"
             y="787.16791"
             x="551.39819"
             id="tspan4158"
             sodipodi:role="line">_</tspan></text>
      </g>
    </g>
  </g>
</svg>
